<svg width="44" height="44" viewBox="0 0 44 44" fill="none" xmlns="http://www.w3.org/2000/svg">
<path d="M19.25 12.8333C17.7913 12.8333 16.3924 13.4127 15.3609 14.4442C14.3295 15.4756 13.75 16.8746 13.75 18.3333C13.75 19.7919 14.3295 21.1909 15.3609 22.2223C16.3924 23.2538 17.7913 23.8333 19.25 23.8333C20.7087 23.8333 22.1076 23.2538 23.1391 22.2223C24.1705 21.1909 24.75 19.7919 24.75 18.3333C24.75 16.8746 24.1705 15.4756 23.1391 14.4442C22.1076 13.4127 20.7087 12.8333 19.25 12.8333ZM16.5 18.3333C16.5 17.6039 16.7897 16.9044 17.3055 16.3887C17.8212 15.873 18.5207 15.5833 19.25 15.5833C19.9793 15.5833 20.6788 15.873 21.1945 16.3887C21.7103 16.9044 22 17.6039 22 18.3333C22 19.0626 21.7103 19.7621 21.1945 20.2778C20.6788 20.7935 19.9793 21.0833 19.25 21.0833C18.5207 21.0833 17.8212 20.7935 17.3055 20.2778C16.7897 19.7621 16.5 19.0626 16.5 18.3333ZM3.66666 11.4583C3.66666 10.3642 4.10126 9.31502 4.87485 8.54144C5.64844 7.76785 6.69765 7.33325 7.79166 7.33325H30.7083C31.25 7.33325 31.7864 7.43995 32.2869 7.64725C32.7874 7.85455 33.2421 8.1584 33.6251 8.54144C34.0082 8.92448 34.312 9.37921 34.5193 9.87968C34.7266 10.3802 34.8333 10.9165 34.8333 11.4583V20.1666H32.0833V15.5833H30.7083C29.6143 15.5833 28.5651 15.1487 27.7915 14.3751C27.0179 13.6015 26.5833 12.5523 26.5833 11.4583V10.0833H11.9167V11.4583C11.9167 12.5523 11.4821 13.6015 10.7085 14.3751C9.93489 15.1487 8.88568 15.5833 7.79166 15.5833H6.41666V21.0833H7.79166C8.88568 21.0833 9.93489 21.5178 10.7085 22.2914C11.4821 23.065 11.9167 24.1142 11.9167 25.2083V26.5833H25.6667V29.3333H7.79166C6.69765 29.3333 5.64844 28.8987 4.87485 28.1251C4.10126 27.3515 3.66666 26.3023 3.66666 25.2083V11.4583ZM7.79166 10.0833C7.42699 10.0833 7.07725 10.2281 6.81939 10.486C6.56153 10.7438 6.41666 11.0936 6.41666 11.4583V12.8333H7.79166C8.15634 12.8333 8.50607 12.6884 8.76394 12.4305C9.0218 12.1727 9.16666 11.8229 9.16666 11.4583V10.0833H7.79166ZM32.0833 12.8333V11.4583C32.0833 11.0936 31.9385 10.7438 31.6806 10.486C31.4227 10.2281 31.073 10.0833 30.7083 10.0833H29.3333V11.4583C29.3333 12.2173 29.9493 12.8333 30.7083 12.8333H32.0833ZM6.41666 25.2083C6.41666 25.9673 7.03266 26.5833 7.79166 26.5833H9.16666V25.2083C9.16666 24.8436 9.0218 24.4938 8.76394 24.236C8.50607 23.9781 8.15634 23.8333 7.79166 23.8333H6.41666V25.2083ZM8.0685 32.0833H25.6667V34.8333H12.8333C11.8676 34.8335 10.9188 34.5796 10.0824 34.0968C9.24594 33.6141 8.55137 32.9196 8.0685 32.0833ZM40.3333 20.1666V16.4999C40.3336 15.5342 40.0796 14.5854 39.5969 13.749C39.1142 12.9125 38.4197 12.218 37.5833 11.7351V20.1666H40.3333ZM30.25 21.9999C29.5207 21.9999 28.8212 22.2896 28.3055 22.8054C27.7897 23.3211 27.5 24.0206 27.5 24.7499V39.4166C27.5 40.1459 27.7897 40.8454 28.3055 41.3611C28.8212 41.8769 29.5207 42.1666 30.25 42.1666H39.4167C40.146 42.1666 40.8455 41.8769 41.3612 41.3611C41.8769 40.8454 42.1667 40.1459 42.1667 39.4166V24.7499C42.1667 24.0206 41.8769 23.3211 41.3612 22.8054C40.8455 22.2896 40.146 21.9999 39.4167 21.9999H30.25ZM31.1667 30.2499H33C33.2431 30.2499 33.4763 30.3465 33.6482 30.5184C33.8201 30.6903 33.9167 30.9235 33.9167 31.1666C33.9167 31.4097 33.8201 31.6429 33.6482 31.8148C33.4763 31.9867 33.2431 32.0833 33 32.0833H31.1667C30.9235 32.0833 30.6904 31.9867 30.5185 31.8148C30.3466 31.6429 30.25 31.4097 30.25 31.1666C30.25 30.9235 30.3466 30.6903 30.5185 30.5184C30.6904 30.3465 30.9235 30.2499 31.1667 30.2499ZM36.6667 30.2499H38.5C38.7431 30.2499 38.9763 30.3465 39.1482 30.5184C39.3201 30.6903 39.4167 30.9235 39.4167 31.1666C39.4167 31.4097 39.3201 31.6429 39.1482 31.8148C38.9763 31.9867 38.7431 32.0833 38.5 32.0833H36.6667C36.4235 32.0833 36.1904 31.9867 36.0185 31.8148C35.8466 31.6429 35.75 31.4097 35.75 31.1666C35.75 30.9235 35.8466 30.6903 36.0185 30.5184C36.1904 30.3465 36.4235 30.2499 36.6667 30.2499ZM31.1667 33.9166H33C33.2431 33.9166 33.4763 34.0132 33.6482 34.1851C33.8201 34.357 33.9167 34.5901 33.9167 34.8333C33.9167 35.0764 33.8201 35.3095 33.6482 35.4814C33.4763 35.6533 33.2431 35.7499 33 35.7499H31.1667C30.9235 35.7499 30.6904 35.6533 30.5185 35.4814C30.3466 35.3095 30.25 35.0764 30.25 34.8333C30.25 34.5901 30.3466 34.357 30.5185 34.1851C30.6904 34.0132 30.9235 33.9166 31.1667 33.9166ZM36.6667 33.9166H38.5C38.7431 33.9166 38.9763 34.0132 39.1482 34.1851C39.3201 34.357 39.4167 34.5901 39.4167 34.8333C39.4167 35.0764 39.3201 35.3095 39.1482 35.4814C38.9763 35.6533 38.7431 35.7499 38.5 35.7499H36.6667C36.4235 35.7499 36.1904 35.6533 36.0185 35.4814C35.8466 35.3095 35.75 35.0764 35.75 34.8333C35.75 34.5901 35.8466 34.357 36.0185 34.1851C36.1904 34.0132 36.4235 33.9166 36.6667 33.9166ZM31.1667 37.5833H33C33.2431 37.5833 33.4763 37.6798 33.6482 37.8517C33.8201 38.0236 33.9167 38.2568 33.9167 38.4999C33.9167 38.743 33.8201 38.9762 33.6482 39.1481C33.4763 39.32 33.2431 39.4166 33 39.4166H31.1667C30.9235 39.4166 30.6904 39.32 30.5185 39.1481C30.3466 38.9762 30.25 38.743 30.25 38.4999C30.25 38.2568 30.3466 38.0236 30.5185 37.8517C30.6904 37.6798 30.9235 37.5833 31.1667 37.5833ZM36.6667 37.5833H38.5C38.7431 37.5833 38.9763 37.6798 39.1482 37.8517C39.3201 38.0236 39.4167 38.2568 39.4167 38.4999C39.4167 38.743 39.3201 38.9762 39.1482 39.1481C38.9763 39.32 38.7431 39.4166 38.5 39.4166H36.6667C36.4235 39.4166 36.1904 39.32 36.0185 39.1481C35.8466 38.9762 35.75 38.743 35.75 38.4999C35.75 38.2568 35.8466 38.0236 36.0185 37.8517C36.1904 37.6798 36.4235 37.5833 36.6667 37.5833ZM30.25 25.6666C30.25 25.4235 30.3466 25.1903 30.5185 25.0184C30.6904 24.8465 30.9235 24.7499 31.1667 24.7499H38.5C38.7431 24.7499 38.9763 24.8465 39.1482 25.0184C39.3201 25.1903 39.4167 25.4235 39.4167 25.6666V27.4999C39.4167 27.743 39.3201 27.9762 39.1482 28.1481C38.9763 28.32 38.7431 28.4166 38.5 28.4166H31.1667C30.9235 28.4166 30.6904 28.32 30.5185 28.1481C30.3466 27.9762 30.25 27.743 30.25 27.4999V25.6666Z" fill="#008080"/>
</svg>
