<svg width="18" height="18" viewBox="0 0 18 18" fill="none" xmlns="http://www.w3.org/2000/svg">
<path d="M9.05679 7.11001C9.14806 6.99497 9.19073 6.84881 9.17569 6.70273C9.16064 6.55666 9.08906 6.42226 8.97625 6.32825C8.86344 6.23424 8.71834 6.18808 8.57195 6.19962C8.42555 6.21116 8.28948 6.27948 8.19279 6.39001L6.31779 8.64001C6.24938 8.72213 6.20579 8.82205 6.19212 8.92805C6.17845 9.03406 6.19526 9.14176 6.24059 9.23856C6.28592 9.33535 6.35789 9.41723 6.44807 9.4746C6.53825 9.53198 6.64291 9.56247 6.74979 9.56251H8.17404L7.06779 10.89C7.0184 10.9465 6.98081 11.0122 6.95721 11.0834C6.93361 11.1546 6.92449 11.2298 6.93039 11.3046C6.93628 11.3794 6.95707 11.4522 6.99153 11.5188C7.02599 11.5854 7.07342 11.6445 7.13104 11.6925C7.18866 11.7405 7.2553 11.7765 7.32705 11.7984C7.39879 11.8203 7.47418 11.8276 7.54879 11.8199C7.6234 11.8122 7.69572 11.7897 7.7615 11.7537C7.82727 11.7176 7.88517 11.6688 7.93179 11.61L9.80679 9.36001C9.8752 9.27788 9.91879 9.17796 9.93246 9.07196C9.94613 8.96595 9.92932 8.85825 9.88399 8.76145C9.83866 8.66466 9.76669 8.58278 9.67651 8.52541C9.58633 8.46804 9.48167 8.43755 9.37479 8.43751H7.95054L9.05679 7.11001Z" fill="#FF9500"/>
<path fill-rule="evenodd" clip-rule="evenodd" d="M7.45823 2.4375H8.66723C10.0457 2.4375 11.1377 2.4375 11.992 2.55225C12.871 2.67075 13.5827 2.91975 14.1445 3.48075C14.7055 4.0425 14.9545 4.75425 15.073 5.63325C15.1247 6.018 15.1532 6.4515 15.169 6.93825C15.4405 6.93825 15.6902 6.942 15.898 6.96975C16.165 7.00575 16.4462 7.08975 16.678 7.32225C16.9097 7.55475 16.9945 7.83525 17.0305 8.10225C17.0627 8.3445 17.0627 8.64225 17.0627 8.96625V9.03375C17.0627 9.3585 17.0627 9.65625 17.0305 9.89775C16.9945 10.1647 16.9105 10.446 16.678 10.6778C16.4455 10.9095 16.165 10.9943 15.898 11.0302C15.6902 11.058 15.4405 11.0618 15.169 11.0625C15.1532 11.5485 15.124 11.982 15.073 12.3668C14.9545 13.2458 14.7055 13.9575 14.1445 14.5192C13.5827 15.0802 12.871 15.3293 11.992 15.4478C11.137 15.5625 10.0457 15.5625 8.66723 15.5625H7.45898C6.08048 15.5625 4.98848 15.5625 4.13423 15.4478C3.25523 15.3293 2.54348 15.0802 1.98173 14.5192C1.42073 13.9575 1.17173 13.2458 1.05323 12.3668C0.938477 11.5118 0.938477 10.4205 0.938477 9.042V8.958C0.938477 7.5795 0.938477 6.4875 1.05323 5.63325C1.17173 4.75425 1.42073 4.0425 1.98173 3.48075C2.54348 2.91975 3.25523 2.67075 4.13423 2.55225C4.98923 2.4375 6.07973 2.4375 7.45823 2.4375ZM4.28273 3.6675C3.52823 3.76875 3.09323 3.95925 2.77523 4.2765C2.45873 4.59375 2.26823 5.02875 2.16698 5.78325C2.06348 6.55425 2.06198 7.56975 2.06198 9C2.06198 10.4303 2.06348 11.4465 2.16698 12.2175C2.26823 12.9713 2.45873 13.4062 2.77598 13.7235C3.09323 14.0408 3.52823 14.2313 4.28273 14.3325C5.05373 14.436 6.06923 14.4375 7.49948 14.4375H8.62448C10.0547 14.4375 11.071 14.436 11.842 14.3325C12.5957 14.2313 13.0307 14.0408 13.348 13.7235C13.6652 13.4062 13.8557 12.9712 13.957 12.2167C14.0605 11.4457 14.062 10.4303 14.062 9C14.062 7.56975 14.0605 6.55425 13.957 5.7825C13.8557 5.02875 13.6652 4.59375 13.348 4.2765C13.0307 3.95925 12.5957 3.76875 11.8412 3.6675C11.071 3.564 10.0547 3.5625 8.62448 3.5625H7.50023C6.06998 3.5625 5.05448 3.564 4.28273 3.6675ZM15.562 8.07V9.93C15.6325 9.927 15.6942 9.922 15.7472 9.915C15.7927 9.91032 15.8373 9.89973 15.88 9.8835L15.8822 9.88275L15.883 9.8805L15.8867 9.873C15.9011 9.83254 15.9104 9.79048 15.9145 9.74775C15.9355 9.59025 15.937 9.36975 15.937 9C15.937 8.63025 15.9355 8.40975 15.9145 8.25225C15.9098 8.20682 15.8992 8.16219 15.883 8.1195L15.8822 8.11725L15.88 8.1165L15.8725 8.11275C15.832 8.09841 15.79 8.0891 15.7472 8.085C15.6857 8.07745 15.6239 8.07245 15.562 8.07Z" fill="#FF9500"/>
</svg>
