<svg width="19" height="18" viewBox="0 0 19 18" fill="none" xmlns="http://www.w3.org/2000/svg">
<g clip-path="url(#clip0_2780_14207)">
<path d="M14.6476 5.5H14.6475H13.625V3.9375C13.625 3.4568 13.434 2.99578 13.0941 2.65587C12.7542 2.31596 12.2932 2.125 11.8125 2.125H1.6875C1.2068 2.125 0.745779 2.31596 0.405869 2.65587C0.0659593 2.99578 -0.125 3.4568 -0.125 3.9375V11.8125C-0.12502 12.1878 -0.00855816 12.5538 0.208312 12.86C0.407483 13.1413 0.682323 13.3594 1.00005 13.4897C0.998226 13.7754 1.04798 14.0594 1.14717 14.3279C1.25688 14.6248 1.42484 14.8969 1.64119 15.128C1.85754 15.3591 2.1179 15.5446 2.40699 15.6736L2.45793 15.5595L2.40699 15.6736C2.69607 15.8027 3.00802 15.8726 3.32452 15.8793C3.64102 15.886 3.95567 15.8294 4.24997 15.7128C4.54428 15.5962 4.81229 15.4219 5.03827 15.2002C5.26425 14.9785 5.44362 14.7139 5.56585 14.4218C5.67192 14.1684 5.7331 13.8988 5.74696 13.625H11.1283C11.1591 14.2094 11.4048 14.7635 11.8206 15.1794C12.266 15.6248 12.8701 15.875 13.5 15.875C14.1299 15.875 14.734 15.6248 15.1794 15.1794C15.5952 14.7635 15.8409 14.2094 15.8717 13.625H16.3125C16.7932 13.625 17.2542 13.434 17.5941 13.0941C17.934 12.7542 18.125 12.2932 18.125 11.8125V9.39492C18.125 9.39491 18.125 9.39489 18.125 9.39487C18.1251 8.98288 17.9849 8.58313 17.7275 8.26151L16.0614 6.18029C16.0614 6.18028 16.0613 6.18027 16.0613 6.18026C15.8917 5.96821 15.6766 5.797 15.4319 5.67925C15.1872 5.5615 14.9192 5.50024 14.6476 5.5ZM1.25 11.8126V11.8125V3.9375C1.25 3.82147 1.29609 3.71019 1.37814 3.62814C1.46019 3.54609 1.57147 3.5 1.6875 3.5H11.8125C11.9285 3.5 12.0398 3.54609 12.1219 3.62814C12.2039 3.71019 12.25 3.82147 12.25 3.9375V11.4806C11.9375 11.6741 11.6741 11.9375 11.4806 12.25H5.39438C5.19085 11.9212 4.90988 11.6467 4.57558 11.4508C4.22031 11.2426 3.81703 11.1304 3.4053 11.1251C2.99358 11.1199 2.58756 11.2217 2.22708 11.4207C1.90279 11.5998 1.62538 11.8519 1.41647 12.1564C1.37879 12.1267 1.34607 12.0908 1.3198 12.05C1.27417 11.9793 1.24993 11.8968 1.25 11.8126ZM13.625 11.1283V6.875H14.6473C14.7129 6.87509 14.7776 6.88993 14.8367 6.9184C14.8957 6.94687 14.9477 6.98826 14.9886 7.0395L14.9886 7.03959L16.6536 9.12084L16.6538 9.12097C16.7159 9.19841 16.7498 9.29469 16.75 9.39397V11.8125C16.75 11.9285 16.7039 12.0398 16.6219 12.1219C16.5398 12.2039 16.4285 12.25 16.3125 12.25H15.5194C15.3132 11.9168 15.0275 11.6395 14.6875 11.4432C14.3626 11.2556 13.9984 11.148 13.625 11.1283ZM2.66789 12.7929C2.85543 12.6054 3.10978 12.5 3.375 12.5C3.64022 12.5 3.89457 12.6054 4.08211 12.7929C4.26964 12.9804 4.375 13.2348 4.375 13.5C4.375 13.7652 4.26964 14.0196 4.08211 14.2071C3.89457 14.3946 3.64022 14.5 3.375 14.5C3.10978 14.5 2.85543 14.3946 2.66789 14.2071C2.48036 14.0196 2.375 13.7652 2.375 13.5C2.375 13.2348 2.48036 12.9804 2.66789 12.7929ZM12.7929 12.7929C12.9804 12.6054 13.2348 12.5 13.5 12.5C13.7652 12.5 14.0196 12.6054 14.2071 12.7929C14.3946 12.9804 14.5 13.2348 14.5 13.5C14.5 13.7652 14.3946 14.0196 14.2071 14.2071C14.0196 14.3946 13.7652 14.5 13.5 14.5C13.2348 14.5 12.9804 14.3946 12.7929 14.2071C12.6054 14.0196 12.5 13.7652 12.5 13.5C12.5 13.2348 12.6054 12.9804 12.7929 12.7929Z" fill="#007AFF" stroke="#007AFF" stroke-width="0.25"/>
</g>
<defs>
<clipPath id="clip0_2780_14207">
<rect width="19" height="18" fill="white"/>
</clipPath>
</defs>
</svg>
