<svg width="257" height="172" viewBox="0 0 257 172" fill="none" xmlns="http://www.w3.org/2000/svg">
<path d="M234.985 99.7818L234.594 99.3226C233.001 97.4193 230.917 95.9877 228.569 95.1826C226.221 94.3775 223.697 94.2296 221.271 94.7549C220.64 94.8981 220.02 95.0883 219.418 95.3237C217.235 96.2068 215.304 97.6154 213.797 99.4244C212.29 101.233 211.253 103.387 210.779 105.693C210.241 108.414 210.436 111.412 208.97 113.745C207.037 116.781 203.045 117.515 199.502 117.974C195.959 118.433 191.963 119.18 190.048 122.223C188.845 124.132 188.763 126.578 189.242 128.792C190.517 134.652 195.493 139.271 201.157 141.046C206.821 142.821 213.03 142.074 218.575 139.973C226.343 137.05 233.261 131.365 236.736 123.755C240.211 116.144 239.861 106.597 234.985 99.7818Z" fill="#C1DFDF"/>
<path d="M28.58 93.4082L29.1351 93.4836C31.7245 93.9023 34.38 93.4914 36.7219 92.3097C39.0637 91.128 40.9719 89.236 42.1735 86.9044C43.1505 84.9429 43.6277 82.7703 43.5625 80.5799C43.4973 78.3895 42.8919 76.2491 41.8 74.3491C40.4945 72.1218 38.4967 70.1617 38.0924 67.6226C37.5647 64.3192 39.8948 61.3415 42.0742 58.8366C44.2535 56.3317 46.5802 53.3539 46.0388 50.0403C45.6961 47.9843 44.2467 46.2162 42.547 44.9723C38.0444 41.6758 31.7256 41.5456 26.685 43.7867C21.6444 46.0277 17.7928 50.407 15.216 55.2831C11.5974 62.1159 10.2747 70.3433 12.5637 77.7929C14.8527 85.2425 20.9762 91.6675 28.58 93.4082Z" fill="#C1DFDF"/>
<path d="M237.991 73.8538C239.22 68.6698 236.014 63.4708 230.83 62.2416C225.646 61.0123 220.447 64.2184 219.218 69.4025C217.989 74.5865 221.195 79.7855 226.379 81.0148C231.563 82.244 236.762 79.0379 237.991 73.8538Z" fill="#C1DFDF"/>
<path d="M205.207 15.3181H52.3984V104.535H135.293L140.824 109.603L145.604 104.535H205.207V15.3181Z" fill="white"/>
<path d="M205.211 15.3181H52.3984V21.911H205.211V15.3181Z" fill="#008080"/>
<path d="M56.1848 19.5878C56.6579 19.5878 57.0415 19.2043 57.0415 18.7312C57.0415 18.2581 56.6579 17.8745 56.1848 17.8745C55.7117 17.8745 55.3281 18.2581 55.3281 18.7312C55.3281 19.2043 55.7117 19.5878 56.1848 19.5878Z" fill="#263238"/>
<path d="M59.3645 19.5878C59.8376 19.5878 60.2211 19.2043 60.2211 18.7312C60.2211 18.2581 59.8376 17.8745 59.3645 17.8745C58.8914 17.8745 58.5078 18.2581 58.5078 18.7312C58.5078 19.2043 58.8914 19.5878 59.3645 19.5878Z" fill="#263238"/>
<path d="M62.5598 19.5878C63.0329 19.5878 63.4165 19.2043 63.4165 18.7312C63.4165 18.2581 63.0329 17.8745 62.5598 17.8745C62.0867 17.8745 61.7031 18.2581 61.7031 18.7312C61.7031 19.2043 62.0867 19.5878 62.5598 19.5878Z" fill="#263238"/>
<path d="M129.013 29.5149C129.013 29.5628 125.997 29.604 122.276 29.604C118.555 29.604 115.539 29.5628 115.539 29.5149C115.539 29.4669 118.555 29.4258 122.276 29.4258C125.997 29.4258 129.013 29.46 129.013 29.5149Z" fill="#263238"/>
<path d="M146.931 29.5149C146.931 29.5628 143.916 29.604 140.198 29.604C136.48 29.604 133.461 29.5628 133.461 29.5149C133.461 29.4669 136.476 29.4258 140.198 29.4258C143.919 29.4258 146.931 29.46 146.931 29.5149Z" fill="#263238"/>
<path d="M164.856 29.5149C164.856 29.5628 161.841 29.604 158.12 29.604C154.398 29.604 151.383 29.5628 151.383 29.5149C151.383 29.4669 154.398 29.4258 158.12 29.4258C161.841 29.4258 164.856 29.46 164.856 29.5149Z" fill="#263238"/>
<path d="M182.931 29.5149C182.931 29.5628 179.916 29.604 176.198 29.604C172.48 29.604 169.461 29.5628 169.461 29.5149C169.461 29.4669 172.476 29.4258 176.198 29.4258C179.919 29.4258 182.931 29.46 182.931 29.5149Z" fill="#263238"/>
<path d="M76.2891 36.56V41.138C76.2886 41.2443 76.3092 41.3497 76.3497 41.448C76.3902 41.5463 76.4497 41.6357 76.5249 41.7108C76.6001 41.786 76.6894 41.8456 76.7877 41.8861C76.8861 41.9265 76.9914 41.9471 77.0978 41.9467H82.2789L83.5742 43.5949L84.9928 42.0084H90.383C90.4892 42.0084 90.5943 41.9875 90.6924 41.9468C90.7905 41.9062 90.8797 41.8466 90.9548 41.7715C91.0299 41.6964 91.0894 41.6073 91.1301 41.5092C91.1707 41.411 91.1916 41.3059 91.1916 41.1997V36.536C91.1916 36.4298 91.1707 36.3246 91.1301 36.2265C91.0894 36.1284 91.0299 36.0393 90.9548 35.9642C90.8797 35.8891 90.7905 35.8295 90.6924 35.7889C90.5943 35.7482 90.4892 35.7273 90.383 35.7273L77.0943 35.7513C76.8804 35.7522 76.6756 35.8378 76.5247 35.9894C76.3738 36.1409 76.2891 36.3461 76.2891 36.56Z" fill="#008080"/>
<path d="M79.3994 40.1991H78.625V39.4692L80.4137 37.5126H80.448C80.5433 37.4744 80.6469 37.4618 80.7485 37.4763C80.8502 37.4907 80.9462 37.5316 81.0271 37.5948C81.1001 37.6807 81.1522 37.7823 81.1796 37.8917C81.2069 38.001 81.2087 38.1152 81.1847 38.2253V38.2596L79.3994 40.1991ZM78.882 39.9421H79.2863L80.938 38.1362C80.9558 38.0157 80.9263 37.8929 80.8558 37.7936C80.8111 37.7645 80.7603 37.7463 80.7073 37.7404C80.6544 37.7344 80.6008 37.7409 80.5508 37.7593L78.882 39.5857V39.9421Z" fill="white"/>
<path d="M84.4613 39.7057V39.9593H82.9844V37.9238H84.4236V38.1774H83.2756V38.8045H84.3036V39.0546H83.2756V39.7091L84.4613 39.7057Z" fill="white"/>
<path d="M86.3286 37.804V39.9593H86.0613V39.716C85.9972 39.8008 85.9136 39.8687 85.8175 39.9141C85.7214 39.9594 85.6158 39.9808 85.5096 39.9765C85.31 39.9633 85.1229 39.8747 84.9862 39.7287C84.8495 39.5826 84.7734 39.3901 84.7734 39.19C84.7734 38.99 84.8495 38.7975 84.9862 38.6514C85.1229 38.5054 85.31 38.4168 85.5096 38.4036C85.6127 38.3994 85.7154 38.42 85.809 38.4635C85.9025 38.507 85.9844 38.5722 86.0476 38.6538V37.804H86.3286ZM86.051 39.1746C86.0633 39.1001 86.0591 39.0238 86.0389 38.951C86.0187 38.8783 85.9829 38.8108 85.934 38.7532C85.8851 38.6956 85.8243 38.6494 85.7557 38.6177C85.6872 38.586 85.6126 38.5696 85.537 38.5696C85.4615 38.5696 85.3869 38.586 85.3184 38.6177C85.2498 38.6494 85.189 38.6956 85.1401 38.7532C85.0912 38.8108 85.0554 38.8783 85.0352 38.951C85.015 39.0238 85.0108 39.1001 85.023 39.1746C85.0108 39.2492 85.015 39.3254 85.0352 39.3982C85.0554 39.471 85.0912 39.5385 85.1401 39.5961C85.189 39.6536 85.2498 39.6998 85.3184 39.7316C85.3869 39.7633 85.4615 39.7797 85.537 39.7797C85.6126 39.7797 85.6872 39.7633 85.7557 39.7316C85.8243 39.6998 85.8851 39.6536 85.934 39.5961C85.9829 39.5385 86.0187 39.471 86.0389 39.3982C86.0591 39.3254 86.0633 39.2492 86.051 39.1746Z" fill="white"/>
<path d="M86.8125 37.9444C86.8125 37.9198 86.8174 37.8954 86.8269 37.8728C86.8364 37.8501 86.8504 37.8295 86.8679 37.8123C86.8855 37.7951 86.9063 37.7815 86.9291 37.7724C86.952 37.7633 86.9764 37.7589 87.001 37.7593C87.0252 37.7579 87.0495 37.7615 87.0723 37.7698C87.0951 37.7781 87.116 37.7911 87.1337 37.8077C87.1513 37.8244 87.1654 37.8445 87.175 37.8669C87.1845 37.8892 87.1895 37.9132 87.1894 37.9375C87.1894 37.9875 87.1696 38.0354 87.1342 38.0708C87.0989 38.1061 87.051 38.126 87.001 38.126C86.951 38.126 86.903 38.1061 86.8677 38.0708C86.8324 38.0354 86.8125 37.9875 86.8125 37.9375V37.9444ZM86.8605 38.4207H87.1415V39.9592H86.8605V38.4207Z" fill="white"/>
<path d="M88.5306 39.8703C88.4324 39.9449 88.3111 39.9825 88.1879 39.9765C88.1226 39.9846 88.0562 39.9778 87.9938 39.9567C87.9314 39.9356 87.8745 39.9007 87.8274 39.8546C87.7804 39.8085 87.7443 39.7524 87.7219 39.6905C87.6994 39.6285 87.6913 39.5623 87.6979 39.4968V38.6504H87.4375V38.4208H87.6979V38.0781H87.9789V38.4208H88.421V38.6504H87.9789V39.4831C87.9789 39.651 88.0646 39.7435 88.2188 39.7435C88.2984 39.7446 88.376 39.718 88.4381 39.6681L88.5306 39.8703Z" fill="white"/>
<path d="M114.428 94.1589H63.8984V43.4819H114.428V94.1589ZM64.2411 93.8162H114.085V43.8246H64.2411V93.8162Z" fill="#008080"/>
<path d="M89.7285 94.9609H87.9844V93.2476H89.7285V94.9609ZM88.327 94.6182H89.3859V93.5902H88.327V94.6182Z" fill="#008080"/>
<path d="M115.15 67.0952H113.406V65.3818H115.15V67.0952ZM113.749 66.7525H114.808V65.7245H113.749V66.7525Z" fill="#008080"/>
<path d="M64.771 67.0952H63.0234V65.3818H64.771V67.0952ZM63.3695 66.7525H64.4284V65.7245H63.3661L63.3695 66.7525Z" fill="#008080"/>
<path d="M191.239 69.7403H124.172V53.5493H191.239V69.7403ZM124.515 69.3976H190.896V53.892H124.515V69.3976Z" fill="#008080"/>
<path d="M191.723 76.3298C191.723 76.3778 177.091 76.4189 159.043 76.4189C140.995 76.4189 126.359 76.3778 126.359 76.3298C126.359 76.2818 140.988 76.2407 159.043 76.2407C177.098 76.2407 191.723 76.2818 191.723 76.3298Z" fill="#263238"/>
<path d="M191.367 86.2742C191.367 86.3256 176.732 86.3667 158.684 86.3667C140.635 86.3667 126 86.3256 126 86.2742C126 86.2228 140.632 86.1851 158.684 86.1851C176.735 86.1851 191.367 86.2262 191.367 86.2742Z" fill="#E0E0E0"/>
<path d="M191.367 88.906C191.367 88.954 176.732 88.9951 158.684 88.9951C140.635 88.9951 126 88.954 126 88.906C126 88.858 140.632 88.8169 158.684 88.8169C176.735 88.8169 191.367 88.8546 191.367 88.906Z" fill="#E0E0E0"/>
<path d="M159.461 79.7805C159.461 79.8319 152.049 79.8696 142.91 79.8696C133.771 79.8696 126.359 79.8319 126.359 79.7805C126.359 79.7291 133.768 79.6914 142.91 79.6914C152.053 79.6914 159.461 79.7325 159.461 79.7805Z" fill="#263238"/>
<path d="M197.728 97.397H196.014V97.0543H197.728V97.397ZM194.301 97.397H192.588V97.0543H194.301V97.397ZM190.874 97.397H189.161V97.0543H190.874V97.397ZM187.448 97.397H185.734V97.0543H187.448V97.397ZM197.899 97.0201H197.556V95.3067H197.899V97.0201ZM184.569 96.8487H184.227V95.1354H184.569V96.8487ZM197.899 93.5934H197.556V91.8801H197.899V93.5934ZM184.569 93.4221H184.227V91.7087H184.569V93.4221ZM197.899 90.1667H197.556V88.4534H197.899V90.1667ZM184.569 89.9954H184.227V88.2821H184.569V89.9954ZM197.899 86.7401H197.556V85.0267H197.899V86.7401ZM184.569 86.5687H184.227V84.8554H184.569V86.5687ZM197.145 84.0673H195.432V83.7246H197.145V84.0673ZM193.718 84.0673H192.005V83.7246H193.718V84.0673ZM190.292 84.0673H188.578V83.7246H190.292V84.0673ZM186.865 84.0673H185.152V83.7246H186.865V84.0673Z" fill="#263238"/>
<path d="M184.495 85.3148C184.246 85.3148 184.002 85.2408 183.795 85.1022C183.587 84.9637 183.426 84.7667 183.33 84.5363C183.235 84.3059 183.21 84.0523 183.259 83.8077C183.307 83.5631 183.427 83.3384 183.604 83.1621C183.78 82.9857 184.005 82.8656 184.249 82.817C184.494 82.7683 184.748 82.7933 184.978 82.8887C185.208 82.9842 185.405 83.1458 185.544 83.3532C185.682 83.5605 185.756 83.8043 185.756 84.0537C185.756 84.3882 185.624 84.7089 185.387 84.9454C185.151 85.1819 184.83 85.3148 184.495 85.3148ZM184.495 83.1388C184.314 83.1388 184.136 83.1928 183.985 83.2938C183.834 83.3949 183.716 83.5385 183.647 83.7065C183.577 83.8745 183.559 84.0594 183.595 84.2376C183.631 84.4158 183.718 84.5795 183.847 84.7077C183.976 84.836 184.14 84.9232 184.318 84.9583C184.497 84.9933 184.681 84.9747 184.849 84.9046C185.017 84.8346 185.16 84.7163 185.261 84.5649C185.361 84.4134 185.414 84.2355 185.414 84.0537C185.41 83.8126 185.312 83.5825 185.14 83.4132C184.968 83.2439 184.737 83.1491 184.495 83.1491V83.1388Z" fill="#263238"/>
<path d="M197.636 85.3145C197.387 85.3145 197.143 85.2406 196.935 85.102C196.728 84.9634 196.566 84.7665 196.471 84.5361C196.376 84.3056 196.351 84.0521 196.399 83.8075C196.448 83.5629 196.568 83.3382 196.744 83.1618C196.921 82.9855 197.145 82.8654 197.39 82.8167C197.635 82.7681 197.888 82.793 198.119 82.8885C198.349 82.9839 198.546 83.1455 198.685 83.3529C198.823 83.5603 198.897 83.8041 198.897 84.0535C198.897 84.3879 198.764 84.7087 198.528 84.9452C198.291 85.1817 197.97 85.3145 197.636 85.3145ZM197.636 83.1386C197.454 83.1386 197.277 83.1925 197.125 83.2936C196.974 83.3946 196.857 83.5383 196.787 83.7063C196.718 83.8743 196.7 84.0591 196.736 84.2373C196.771 84.4156 196.859 84.5792 196.988 84.7075C197.117 84.8358 197.281 84.923 197.459 84.958C197.637 84.9931 197.822 84.9744 197.99 84.9044C198.158 84.8343 198.301 84.7161 198.401 84.5646C198.502 84.4132 198.555 84.2353 198.554 84.0535C198.551 83.8123 198.452 83.5822 198.281 83.413C198.109 83.2437 197.877 83.1488 197.636 83.1489V83.1386Z" fill="#263238"/>
<path d="M184.495 98.8431C184.246 98.8431 184.002 98.769 183.794 98.6303C183.587 98.4916 183.425 98.2945 183.33 98.0638C183.235 97.8332 183.21 97.5795 183.259 97.3348C183.308 97.0901 183.428 96.8654 183.605 96.6892C183.782 96.513 184.007 96.3931 184.251 96.3449C184.496 96.2966 184.75 96.3221 184.98 96.418C185.211 96.514 185.407 96.6762 185.546 96.884C185.684 97.0918 185.757 97.3359 185.756 97.5855C185.755 97.9193 185.622 98.2392 185.386 98.4749C185.149 98.7107 184.829 98.8431 184.495 98.8431ZM184.495 96.6671C184.314 96.6671 184.136 96.721 183.985 96.8219C183.834 96.9228 183.716 97.0662 183.647 97.234C183.577 97.4019 183.559 97.5865 183.595 97.7647C183.63 97.9428 183.718 98.1064 183.846 98.2349C183.974 98.3633 184.138 98.4508 184.316 98.4862C184.494 98.5216 184.679 98.5034 184.847 98.4339C185.015 98.3644 185.158 98.2467 185.259 98.0957C185.36 97.9447 185.414 97.7671 185.414 97.5855C185.414 97.3419 185.317 97.1083 185.145 96.9361C184.973 96.7639 184.739 96.6671 184.495 96.6671Z" fill="#263238"/>
<path d="M197.636 98.8433C197.386 98.8433 197.143 98.7693 196.935 98.6306C196.728 98.4918 196.566 98.2947 196.471 98.0641C196.375 97.8335 196.351 97.5797 196.399 97.335C196.448 97.0903 196.569 96.8656 196.746 96.6894C196.922 96.5132 197.147 96.3934 197.392 96.3451C197.637 96.2968 197.891 96.3223 198.121 96.4183C198.351 96.5142 198.548 96.6764 198.686 96.8842C198.824 97.092 198.898 97.3362 198.897 97.5857C198.896 97.9196 198.763 98.2394 198.526 98.4752C198.29 98.7109 197.97 98.8433 197.636 98.8433ZM197.636 96.6674C197.454 96.6674 197.277 96.7212 197.126 96.8222C196.975 96.9231 196.857 97.0665 196.788 97.2343C196.718 97.4021 196.7 97.5868 196.735 97.7649C196.771 97.943 196.858 98.1067 196.987 98.2351C197.115 98.3635 197.279 98.451 197.457 98.4864C197.635 98.5219 197.82 98.5037 197.987 98.4342C198.155 98.3647 198.299 98.247 198.4 98.0959C198.5 97.9449 198.554 97.7674 198.554 97.5857C198.554 97.3422 198.458 97.1086 198.285 96.9364C198.113 96.7641 197.88 96.6674 197.636 96.6674Z" fill="#263238"/>
<path d="M190.772 88.1246H188.305V86.9561H194.62V88.1246H192.153V94.3988H190.782L190.772 88.1246Z" fill="#263238"/>
<path d="M198.631 31.6566C198.631 31.6566 198.747 31.6566 198.953 31.6018C199.254 31.5285 199.525 31.3632 199.727 31.1289C199.874 30.9625 199.979 30.7642 200.036 30.5498C200.088 30.2882 200.104 30.0208 200.084 29.7548C200.046 29.1928 200.217 28.4561 199.707 27.9215C199.459 27.6468 199.116 27.4775 198.747 27.4487C198.36 27.4487 197.939 27.4487 197.51 27.4487H194.769H188.484C188.224 27.4499 187.97 27.5224 187.748 27.6583C187.526 27.7943 187.346 27.9884 187.227 28.2197C187.111 28.4487 187.057 28.7036 187.069 28.9598V29.7582C187.053 30.0105 187.07 30.2638 187.117 30.5121C187.18 30.7433 187.298 30.9561 187.46 31.1323C187.629 31.3076 187.838 31.4392 188.07 31.5161C188.294 31.5699 188.525 31.5907 188.755 31.5778L193.895 31.5984L197.356 31.6258H198.298H198.542H198.624C198.597 31.6302 198.569 31.6302 198.542 31.6258H198.298L197.356 31.6429L193.895 31.6737L188.755 31.6909C188.503 31.7084 188.25 31.6852 188.005 31.6223C187.747 31.5455 187.514 31.4041 187.327 31.2115C187.14 31.019 187.005 30.7817 186.936 30.5224C186.899 30.3894 186.88 30.2524 186.877 30.1146V28.9735C186.866 28.7564 186.898 28.5392 186.973 28.3351C187.048 28.131 187.164 27.9443 187.313 27.7862C187.463 27.6282 187.643 27.5022 187.842 27.4159C188.042 27.3296 188.257 27.2848 188.474 27.2842H194.759H197.5C197.932 27.2842 198.339 27.2842 198.747 27.2842C199.144 27.3214 199.512 27.5089 199.775 27.8085C200.018 28.0819 200.155 28.4331 200.162 28.7988C200.162 29.1414 200.162 29.4361 200.162 29.7274C200.18 30.001 200.158 30.2756 200.097 30.5429C200.019 30.8094 199.87 31.0496 199.666 31.2379C199.462 31.4262 199.211 31.5556 198.939 31.6121C198.839 31.6425 198.735 31.6575 198.631 31.6566Z" fill="#263238"/>
<path d="M100.005 35.7273H93.1481C92.4838 35.7273 91.9453 36.2658 91.9453 36.9301V40.7851C91.9453 41.4493 92.4838 41.9878 93.1481 41.9878H100.005C100.669 41.9878 101.208 41.4493 101.208 40.7851V36.9301C101.208 36.2658 100.669 35.7273 100.005 35.7273Z" fill="#008080"/>
<path d="M96.1107 40.127H94.0547V37.605H96.1107V40.127ZM94.3974 39.7843H95.768V37.9476H94.3974V39.7843Z" fill="white"/>
<path d="M95.4216 37.3071H94.75V37.7457H95.4216V37.3071Z" fill="white"/>
<path d="M96.4287 37.5879H93.7422V37.9306H96.4287V37.5879Z" fill="white"/>
<path d="M99.7635 37.8383C99.7635 37.906 99.7434 37.9723 99.7057 38.0286C99.6681 38.085 99.6145 38.1289 99.5519 38.1549C99.4893 38.1808 99.4204 38.1876 99.3539 38.1744C99.2875 38.1611 99.2264 38.1285 99.1785 38.0806C99.1306 38.0327 99.0979 37.9716 99.0847 37.9051C99.0715 37.8387 99.0783 37.7698 99.1042 37.7071C99.1301 37.6445 99.1741 37.591 99.2304 37.5534C99.2868 37.5157 99.353 37.4956 99.4208 37.4956C99.5117 37.4956 99.5988 37.5317 99.6631 37.596C99.7274 37.6602 99.7635 37.7474 99.7635 37.8383Z" fill="white"/>
<path d="M99.7635 38.7496C99.7635 38.8174 99.7434 38.8837 99.7057 38.94C99.6681 38.9964 99.6145 39.0403 99.5519 39.0662C99.4893 39.0922 99.4204 39.099 99.3539 39.0857C99.2875 39.0725 99.2264 39.0399 99.1785 38.992C99.1306 38.944 99.0979 38.883 99.0847 38.8165C99.0715 38.75 99.0783 38.6811 99.1042 38.6185C99.1301 38.5559 99.1741 38.5024 99.2304 38.4647C99.2868 38.4271 99.353 38.407 99.4208 38.407C99.5117 38.407 99.5988 38.4431 99.6631 38.5073C99.7274 38.5716 99.7635 38.6588 99.7635 38.7496Z" fill="white"/>
<path d="M99.7635 39.661C99.7635 39.7288 99.7434 39.7951 99.7057 39.8514C99.6681 39.9078 99.6145 39.9517 99.5519 39.9776C99.4893 40.0035 99.4204 40.0103 99.3539 39.9971C99.2875 39.9839 99.2264 39.9513 99.1785 39.9033C99.1306 39.8554 99.0979 39.7943 99.0847 39.7279C99.0715 39.6614 99.0783 39.5925 99.1042 39.5299C99.1301 39.4673 99.1741 39.4138 99.2304 39.3761C99.2868 39.3385 99.353 39.3184 99.4208 39.3184C99.5117 39.3184 99.5988 39.3545 99.6631 39.4187C99.7274 39.483 99.7635 39.5701 99.7635 39.661Z" fill="white"/>
<g opacity="0.3">
<path d="M97.6406 35.7273H100.012C100.331 35.7273 100.637 35.854 100.862 36.0796C101.088 36.3051 101.215 36.6111 101.215 36.9301V40.7851C101.215 41.104 101.088 41.41 100.862 41.6355C100.637 41.8611 100.331 41.9878 100.012 41.9878H97.6406V35.7273Z" fill="white"/>
</g>
<path d="M110.996 46.9668H67.3438V89.197H110.996V46.9668Z" fill="#455A64"/>
<g opacity="0.3">
<path d="M70.7266 85.5854L82.8021 63.8535L92.6778 77.7418L98.6779 70.3676L107.608 85.5854H70.7266Z" fill="black"/>
</g>
<g opacity="0.3">
<path d="M96.8861 59.6147C96.8868 60.2363 96.703 60.8441 96.3582 61.3613C96.0133 61.8785 95.5228 62.2818 94.9487 62.5202C94.3746 62.7585 93.7427 62.8212 93.1329 62.7004C92.5231 62.5795 91.9629 62.2805 91.5231 61.8412C91.0833 61.4019 90.7837 60.842 90.6622 60.2324C90.5407 59.6227 90.6027 58.9908 90.8404 58.4164C91.0782 57.842 91.4809 57.3511 91.9977 57.0056C92.5145 56.6602 93.1222 56.4758 93.7438 56.4758C94.5766 56.4758 95.3753 56.8064 95.9645 57.395C96.5537 57.9835 96.8852 58.7819 96.8861 59.6147Z" fill="black"/>
</g>
<g opacity="0.3">
<path d="M107.605 50.2872L70.727 50.2563C70.7681 50.2118 70.3295 50.6538 70.5145 50.4722V55.249C70.5145 56.8321 70.5145 58.3992 70.5145 59.9504C70.5145 63.0549 70.5145 66.0944 70.5145 69.0516C70.5145 74.966 70.5145 80.5584 70.5351 85.7018V85.8834H70.7167L97.4995 85.7909L104.98 85.7429L106.94 85.7224H107.437C107.49 85.7273 107.544 85.7273 107.598 85.7224H107.416H106.899L104.905 85.7018L97.3659 85.6538L70.8812 85.5613C70.8812 80.4693 70.8812 74.9386 70.8983 69.0927C70.8983 66.1355 70.8983 63.0961 70.8983 59.9915V50.671L107.396 50.6436C107.433 61.112 107.464 69.8329 107.488 75.9632C107.505 79.0472 107.523 81.4459 107.533 83.1352C107.533 83.9553 107.54 84.5893 107.553 85.037C107.553 85.2426 107.553 85.4037 107.553 85.5305C107.549 85.5875 107.549 85.6448 107.553 85.7018C107.558 85.6505 107.558 85.5989 107.553 85.5476C107.553 85.4277 107.553 85.2735 107.553 85.0747C107.553 84.6361 107.553 84.0124 107.574 83.2106C107.574 81.5452 107.601 79.1363 107.618 76.0763C107.642 69.8809 107.673 61.0572 107.711 50.4654V50.2872H107.605Z" fill="black"/>
</g>
<path d="M178.874 45.0239H131.031C130.259 45.0239 129.633 45.6499 129.633 46.422V49.8692C129.633 50.6414 130.259 51.2673 131.031 51.2673H178.874C179.646 51.2673 180.272 50.6414 180.272 49.8692V46.422C180.272 45.6499 179.646 45.0239 178.874 45.0239Z" fill="#008080"/>
<g opacity="0.3">
<path d="M147.764 46.1958H131.227V49.8692H147.764V46.1958Z" fill="white"/>
</g>
<path d="M132.924 47.5596H132.328V47.3438H133.764V47.5596H133.171V49.0811H132.924V47.5596Z" fill="white"/>
<path d="M133.922 47.3608C133.922 47.318 133.939 47.2771 133.969 47.2469C133.999 47.2167 134.04 47.1997 134.083 47.1997C134.126 47.1997 134.167 47.2167 134.197 47.2469C134.227 47.2771 134.244 47.318 134.244 47.3608C134.244 47.4035 134.227 47.4444 134.197 47.4746C134.167 47.5048 134.126 47.5218 134.083 47.5218C134.04 47.5218 133.999 47.5048 133.969 47.4746C133.939 47.4444 133.922 47.4035 133.922 47.3608ZM133.963 47.7651H134.203V49.0809H133.963V47.7651Z" fill="white"/>
<path d="M135.39 48.9921C135.307 49.0551 135.205 49.0877 135.102 49.0846C135.046 49.091 134.989 49.0849 134.936 49.0666C134.883 49.0483 134.835 49.0183 134.794 48.9789C134.754 48.9395 134.724 48.8916 134.704 48.8387C134.685 48.7859 134.678 48.7294 134.684 48.6734V47.9641H134.461V47.7688H134.67V47.481H134.91V47.7688H135.287V47.9641H134.91V48.6769C134.906 48.7055 134.908 48.7346 134.917 48.7622C134.925 48.7898 134.94 48.8151 134.96 48.8362C134.979 48.8573 135.004 48.8736 135.031 48.884C135.058 48.8944 135.087 48.8985 135.115 48.8962C135.182 48.8972 135.248 48.8755 135.3 48.8345L135.39 48.9921Z" fill="white"/>
<path d="M135.68 47.241H135.916V49.0811H135.68V47.241Z" fill="white"/>
<path d="M137.554 48.502H136.488C136.503 48.6147 136.561 48.7172 136.65 48.7886C136.738 48.8599 136.851 48.8947 136.964 48.8858C137.035 48.8887 137.106 48.8761 137.172 48.8489C137.238 48.8216 137.297 48.7804 137.345 48.7281L137.475 48.8823C137.378 48.9804 137.254 49.0482 137.119 49.0777C136.984 49.1072 136.844 49.0971 136.715 49.0486C136.585 49.0001 136.473 48.9152 136.391 48.8043C136.309 48.6933 136.26 48.561 136.252 48.4232C136.245 48.3339 136.258 48.2443 136.288 48.1601C136.319 48.076 136.367 47.9992 136.429 47.9346C136.491 47.87 136.565 47.8192 136.648 47.7853C136.731 47.7514 136.82 47.7352 136.909 47.7378C136.999 47.7351 137.087 47.7513 137.17 47.7852C137.252 47.8192 137.327 47.8702 137.388 47.9349C137.45 47.9996 137.497 48.0765 137.527 48.1606C137.556 48.2448 137.568 48.3342 137.561 48.4232C137.56 48.4496 137.558 48.4759 137.554 48.502ZM136.488 48.3307H137.331C137.318 48.2281 137.268 48.1339 137.19 48.0656C137.113 47.9973 137.013 47.9596 136.909 47.9596C136.806 47.9596 136.706 47.9973 136.629 48.0656C136.551 48.1339 136.501 48.2281 136.488 48.3307Z" fill="white"/>
<path d="M145.125 47.8784H146.698L145.913 48.6631L145.125 47.8784Z" fill="white"/>
<path d="M152.495 48.5568C152.495 48.8721 152.235 49.0571 151.745 49.0571H150.758V47.2307H151.69C152.173 47.2307 152.406 47.4295 152.406 47.7104C152.407 47.7929 152.385 47.8741 152.342 47.9445C152.299 48.0149 152.237 48.0716 152.163 48.1079C152.26 48.1358 152.345 48.1949 152.405 48.276C152.465 48.3572 152.497 48.4559 152.495 48.5568ZM151.272 47.6214V47.964H151.614C151.786 47.964 151.875 47.9058 151.875 47.7858C151.875 47.6659 151.786 47.6111 151.614 47.6111L151.272 47.6214ZM151.978 48.5191C151.978 48.3924 151.882 48.3307 151.707 48.3307H151.272V48.7042H151.707C151.882 48.687 151.978 48.6254 151.978 48.502V48.5191Z" fill="white"/>
<path d="M155.328 47.2031H155.461L155.095 49.0295H154.961L155.328 47.2031Z" fill="white"/>
<path d="M158.397 46.1377H158.055V50.0921H158.397V46.1377Z" fill="white"/>
<path d="M166.319 46.0586H165.977V50.013H166.319V46.0586Z" fill="white"/>
<path d="M173.702 46.1377H173.359V50.0921H173.702V46.1377Z" fill="white"/>
<path d="M162.42 47.1177H160.258V47.4603H162.42V47.1177Z" fill="white"/>
<path d="M162.42 48.3647H160.258V48.7074H162.42V48.3647Z" fill="white"/>
<path d="M161.341 47.7651H160.258V48.1078H161.341V47.7651Z" fill="white"/>
<path d="M163.75 47.8887H164.891L164.322 48.4027L163.75 47.8887Z" fill="white"/>
<path d="M169.352 48.855H167.375V47.2307H168.4V47.5734H167.718V48.5123H169.01V48.1696H169.352V48.855Z" fill="white"/>
<path d="M170.493 48.855H169.65V48.5123H170.15V47.5734H168.858V48.0086H168.516V47.2307H170.493V48.855Z" fill="white"/>
<path d="M171.297 47.9126H172.352L171.825 48.4026L171.297 47.9126Z" fill="white"/>
<path d="M177.381 49.3108H175.555V47.0903H177.381V49.3108ZM175.897 48.9681H177.038V47.433H175.897V48.9681Z" fill="white"/>
<path d="M176.759 46.8606H176.18V47.2375H176.759V46.8606Z" fill="white"/>
<path d="M177.626 47.0801H175.312V47.4227H177.626V47.0801Z" fill="white"/>
<path d="M155.758 50.9144L157.786 53.1452L159.75 50.8699L155.758 50.9144Z" fill="#008080"/>
<path d="M189.296 56.2566H160.797V68.082H189.296V56.2566Z" fill="#E0E0E0"/>
<path d="M131.958 63.0651V65.5426H130.93V63.0411L128.086 58.374H129.193L131.485 62.1434L133.791 58.374H134.819L131.958 63.0651Z" fill="#263238"/>
<path d="M134.945 61.9619C134.945 59.8614 136.563 58.2954 138.763 58.2954C140.963 58.2954 142.553 59.8511 142.553 61.9619C142.553 64.0728 140.932 65.6251 138.752 65.6251C136.573 65.6251 134.945 64.0693 134.945 61.9619ZM141.538 61.9619C141.547 61.4087 141.391 60.8654 141.09 60.4012C140.789 59.937 140.356 59.573 139.847 59.3556C139.338 59.1382 138.776 59.0772 138.233 59.1805C137.689 59.2837 137.189 59.5465 136.795 59.9353C136.401 60.3241 136.132 60.8214 136.022 61.3636C135.912 61.9059 135.966 62.4686 136.177 62.9801C136.389 63.4916 136.747 63.9286 137.208 64.2355C137.668 64.5424 138.209 64.7053 138.763 64.7033C139.126 64.7131 139.488 64.649 139.826 64.515C140.164 64.381 140.472 64.1797 140.73 63.9235C140.988 63.6672 141.192 63.3613 141.328 63.0241C141.465 62.687 141.532 62.3256 141.525 61.9619H141.538Z" fill="#263238"/>
<path d="M144.07 62.4517V58.3774H145.098V62.4106C145.098 63.9972 145.825 64.7133 147.113 64.7133C148.402 64.7133 149.142 63.9972 149.142 62.4106V58.3774H150.136V62.4517C150.136 64.5283 148.998 65.6248 147.106 65.6248C145.215 65.6248 144.07 64.5283 144.07 62.4517Z" fill="#263238"/>
<path d="M157.024 65.5426L155.478 63.3427C155.335 63.3427 155.18 63.3632 155.026 63.3632H153.255V65.5426H152.227V58.3774H155.019C156.883 58.3774 158.011 59.3198 158.011 60.8755C158.034 61.3735 157.892 61.8652 157.607 62.2742C157.322 62.6832 156.91 62.9866 156.435 63.1371L158.148 65.5357L157.024 65.5426ZM156.993 60.8755C156.993 59.8475 156.308 59.2684 154.995 59.2684H153.255V62.4929H154.995C156.308 62.4929 156.993 61.9001 156.993 60.8755Z" fill="#263238"/>
<path d="M164.296 59.7275H162L162.278 58.3774H168.524L168.247 59.7275H165.965L164.796 65.5529H163.138L164.296 59.7275Z" fill="#263238"/>
<path d="M170.798 59.707L170.493 61.2627H173.82L173.563 62.5545H170.225L169.883 64.2131H173.81L173.532 65.5426H167.984L169.417 58.3774H174.831L174.557 59.707H170.798Z" fill="#263238"/>
<path d="M179.218 61.9309L181.185 65.5426H179.393L178.125 63.1062L175.953 65.5426H173.969L177.395 61.8281L175.542 58.3774H177.313L178.509 60.6802L180.599 58.3774H182.481L179.218 61.9309Z" fill="#263238"/>
<path d="M184.429 59.7275H182.133L182.41 58.3774H188.657L188.38 59.7275H186.097L184.929 65.5529H183.27L184.429 59.7275Z" fill="#263238"/>
<path d="M64.5967 32.4239C66.2035 32.4239 67.506 31.1214 67.506 29.5147C67.506 27.908 66.2035 26.6055 64.5967 26.6055C62.99 26.6055 61.6875 27.908 61.6875 29.5147C61.6875 31.1214 62.99 32.4239 64.5967 32.4239Z" fill="#E0E0E0"/>
<path d="M205.203 15.3181C205.203 15.8733 205.23 49.9275 205.271 104.535V104.603H205.203H145.599L145.661 104.576L140.881 109.647L140.822 109.706L140.764 109.651L135.233 104.583L135.288 104.603H54.484H52.3047V104.514C52.3047 72.9273 52.3047 42.7829 52.3047 15.2976V15.2153H52.3869L205.196 15.2976L52.3938 15.4107L52.476 15.3284C52.476 42.8137 52.476 72.9581 52.476 104.545L52.3869 104.456H135.312L135.336 104.48L140.863 109.548H140.747L145.544 104.477L145.568 104.453H145.603H205.206L205.137 104.521C205.175 49.9172 205.203 15.8733 205.203 15.3181Z" fill="#263238"/>
<path d="M56.7902 133.093C55.4415 132.25 53.9177 131.727 52.3356 131.565C51.6091 131.489 50.8141 131.51 50.2316 131.948C50.1645 131.988 50.1091 132.045 50.0711 132.113C50.0332 132.181 50.0141 132.258 50.0157 132.336C50.0508 132.444 50.1238 132.537 50.2213 132.596C51.1657 133.27 52.2763 133.672 53.4331 133.76C54.5898 133.847 55.7484 133.617 56.7834 133.093" fill="#008080"/>
<path d="M56.6665 132.969C55.6364 132.212 54.6745 131.365 53.7915 130.44C52.9086 129.508 52.2879 128.359 51.9925 127.11C51.9338 126.925 51.9159 126.73 51.9402 126.537C51.9645 126.345 52.0303 126.16 52.133 125.996C54.4255 127.785 56.2245 130.108 56.6665 132.969Z" fill="#008080"/>
<path d="M56.7631 133.076C56.5516 131.826 56.5702 130.549 56.818 129.306C57.0726 128.053 57.7894 126.941 58.826 126.191C59.2235 127.117 59.0522 128.182 58.7746 129.149C58.342 130.646 57.6684 132.062 56.7803 133.343" fill="#008080"/>
<path d="M59.0138 137.099C57.666 137.316 56.4193 137.947 55.4466 138.904C54.4172 139.832 53.6992 141.055 53.3906 142.407C54.727 142.324 55.8613 141.379 56.6837 140.327C57.5061 139.275 58.0749 138.109 58.9795 137.119" fill="#008080"/>
<path d="M59.4992 137.743C58.9638 136.38 58.7774 134.904 58.9569 133.451C59.1365 131.997 59.6762 130.611 60.5272 129.419C61.3051 132.181 61.0172 135.303 59.4992 137.743Z" fill="#008080"/>
<path d="M62.4583 141.276C61.2132 141.199 59.9729 141.49 58.8916 142.112C57.8103 142.734 56.9355 143.659 56.3759 144.774C56.3274 144.844 56.298 144.924 56.2908 145.009C56.2836 145.093 56.2988 145.178 56.3348 145.254C56.3877 145.305 56.4522 145.342 56.5226 145.362C56.593 145.383 56.6674 145.385 56.7391 145.371C57.9385 145.295 59.0007 144.572 59.878 143.75C60.7552 142.927 61.5159 141.982 62.4857 141.272" fill="#008080"/>
<path d="M62.3701 141.08C61.73 139.026 61.6908 136.831 62.257 134.755C62.4798 133.939 62.8533 133.082 63.6071 132.699C63.6371 132.679 63.6709 132.666 63.7063 132.66C63.7417 132.654 63.778 132.655 63.8127 132.664C63.8737 132.696 63.9203 132.75 63.943 132.815C64.1957 133.385 64.3051 134.009 64.2616 134.631C64.2165 135.25 64.1214 135.864 63.9772 136.468C63.7408 137.592 63.614 138.798 62.9972 139.768C62.8516 140 62.7211 140.242 62.6066 140.491C62.49 140.738 62.49 140.834 62.3804 141.022" fill="#008080"/>
<path d="M70.212 142.252C69.9486 141.097 69.9399 139.899 70.1867 138.74C70.4335 137.581 70.9297 136.49 71.6409 135.543C71.7437 135.409 71.8808 135.265 72.0487 135.282C72.3057 135.306 72.3708 135.649 72.3605 135.906C72.2532 138.181 71.5087 140.38 70.212 142.252Z" fill="#008080"/>
<path d="M70.9375 142.735C72.3106 143.059 73.7376 143.081 75.1201 142.8C76.5026 142.519 77.8078 141.942 78.9456 141.108C77.6054 140.436 76.0742 140.247 74.6109 140.573C73.1648 140.916 71.8387 141.553 70.9375 142.735Z" fill="#008080"/>
<path d="M71.5312 141.262C73.0356 138.808 75.9208 137.205 78.7958 137.061C78.4531 138.229 77.5039 139.137 76.4211 139.689C75.3114 140.191 74.1375 140.537 72.9328 140.717C72.4667 140.81 71.8294 140.909 71.5312 141.272" fill="#008080"/>
<path d="M70.3635 134.114C70.819 132.732 71.1313 131.307 71.2956 129.861C71.4542 128.403 71.1574 126.932 70.4458 125.65C69.0408 128.371 68.8969 131.551 70.3224 134.261" fill="#008080"/>
<path d="M75.1016 131.722C76.7464 128.731 80.1011 126.346 83.4969 126.01C82.1879 129.272 78.6139 131.791 75.1016 131.722Z" fill="#008080"/>
<path d="M74.0703 132.304C76.5238 132.678 78.6141 134.247 80.9236 135.197C81.4046 135.427 81.9371 135.528 82.4691 135.491C82.7161 135.488 82.956 135.409 83.1567 135.265C83.3574 135.12 83.5091 134.918 83.5916 134.686C83.6741 134.453 83.6833 134.2 83.618 133.962C83.5527 133.724 83.416 133.511 83.2264 133.353C82.9019 133.051 82.5195 132.818 82.1024 132.668C79.6044 131.64 76.9282 131.602 74.2999 132.233" fill="#008080"/>
<path d="M72.6484 134.025C73.2036 134.186 73.392 134.474 73.8341 134.847C75.3328 136.122 77.106 137.033 79.0152 137.51C79.2139 137.558 79.4744 137.578 79.5703 137.4C79.6662 137.222 79.5497 137.057 79.4367 136.913C78.6031 135.938 77.5225 135.206 76.3081 134.792C75.1122 134.347 74.0774 133.809 72.6484 133.922" fill="#008080"/>
<path d="M71.0469 123.635C72.0517 124.563 73.2398 125.271 74.5347 125.712C75.8296 126.152 77.2025 126.317 78.565 126.195C78.6905 126.197 78.8126 126.154 78.9076 126.071C79.0961 125.866 78.87 125.547 78.6506 125.386C76.437 123.673 73.7608 122.95 71.0469 123.645" fill="#008080"/>
<path d="M72.9453 122.943C74.2761 121.963 75.8199 121.312 77.4505 121.043C79.0812 120.774 80.7524 120.894 82.3275 121.394C81.0993 122.531 79.5239 123.22 77.8557 123.351C76.2073 123.5 74.5455 123.359 72.9453 122.936" fill="#008080"/>
<path d="M72.1903 118.166C71.971 115.959 72.1115 114.219 71.9608 111.998C71.9608 111.82 71.9093 111.607 71.7449 111.546C71.5119 111.457 71.32 111.738 71.2446 111.974C70.9226 113.002 70.8402 114.089 71.0035 115.154C71.1669 116.218 71.5717 117.231 72.1869 118.115" fill="#008080"/>
<path d="M72.0312 118.413C73.4729 117.482 74.7156 116.274 75.6875 114.859C76.4105 113.869 77.017 112.687 76.8526 111.474C76.3447 111.488 75.8459 111.612 75.3909 111.838C74.9358 112.064 74.5354 112.387 74.2175 112.783C73.5859 113.582 73.1283 114.504 72.8742 115.49C72.5795 116.46 72.3739 117.457 72.0312 118.413Z" fill="#008080"/>
<path d="M75.6149 117.412C78.9056 116.195 81.952 114.398 84.6099 112.108C83.5373 111.676 82.3071 111.936 81.2312 112.368C78.7932 113.292 76.779 115.078 75.5703 117.388" fill="#008080"/>
<path d="M73.0469 119.619C74.7033 119.855 76.3843 119.863 78.043 119.643C79.6603 119.373 81.1921 118.732 82.7032 118.094C82.8354 118.056 82.9488 117.971 83.0219 117.855C83.0455 117.784 83.0473 117.708 83.0271 117.637C83.007 117.565 82.9657 117.501 82.9088 117.454C82.7927 117.362 82.6565 117.298 82.5113 117.269C80.8665 116.806 79.0847 117.022 77.4707 117.57C75.928 118.098 74.4452 118.787 73.0469 119.626" fill="#008080"/>
<path d="M63.5592 123.71C62.425 121.425 62.5004 118.755 63.477 116.398C64.1623 117.45 64.2514 118.797 64.1246 120.034C63.9979 121.271 63.6175 122.569 63.5935 123.827" fill="#008080"/>
<path d="M59.0329 121.428C57.6143 121.41 56.2075 121.689 54.9024 122.245C53.5973 122.801 52.4225 123.624 51.4531 124.66C52.8825 124.829 54.3296 124.56 55.6028 123.889C56.8663 123.218 58.0581 122.42 59.1597 121.507" fill="#008080"/>
<path d="M55.9903 120.411C54.6196 120.301 53.2729 120.13 51.9434 120.538C51.2719 120.727 50.6489 121.058 50.1167 121.509C49.5846 121.96 49.1558 122.521 48.8594 123.152C50.165 123.255 51.4745 123.008 52.6527 122.436C53.8231 121.861 54.94 121.183 55.9903 120.411Z" fill="#008080"/>
<path d="M60.4972 120.459C59.2499 119.643 57.9717 118.81 56.5222 118.475C55.0727 118.139 53.3937 118.386 52.3828 119.479C53.5582 120.164 54.9802 120.25 56.3406 120.246C57.701 120.243 59.3698 120.246 60.6514 120.685" fill="#008080"/>
<path d="M60.5026 120.524C58.3746 118.433 57.5659 114.681 58.4226 111.823C60.1021 114.395 60.8373 117.47 60.5026 120.524Z" fill="#008080"/>
<path d="M66.3594 114.602C66.7603 113.67 67.0447 112.69 67.3874 111.741C67.716 110.777 68.2215 109.882 68.878 109.103C69.5425 108.318 70.4889 107.825 71.5131 107.732C71.1853 109.171 70.561 110.527 69.6802 111.711C68.7993 112.896 67.6811 113.884 66.3971 114.613" fill="#008080"/>
<path d="M65.2957 115.836C64.6309 114.921 63.8634 113.681 62.9622 112.999C62.0609 112.317 60.9062 111.902 59.7891 112.166C60.3586 113.164 61.1529 114.015 62.1087 114.652C63.0646 115.289 64.1558 115.694 65.2957 115.836Z" fill="#008080"/>
<path d="M65.5041 114.678C65.0272 113.588 64.6754 112.448 64.4555 111.279C64.2379 110.099 64.4251 108.881 64.9867 107.821C66.1552 110.031 66.5321 112.399 65.5658 114.705" fill="#008080"/>
<path d="M66.3672 107.821C67.0285 105.631 69.0331 104.021 71.1954 103.281C71.4644 103.171 71.7558 103.128 72.0452 103.154C72.1886 103.171 72.3241 103.229 72.4349 103.321C72.5457 103.414 72.627 103.537 72.6688 103.675C72.7476 104.048 72.4392 104.381 72.1514 104.627C70.4597 106.073 68.4918 107.16 66.3672 107.821Z" fill="#008080"/>
<path d="M66.3936 106.032C66.4759 104.621 66.565 103.188 67.0241 101.852C67.4833 100.515 68.3674 99.2578 69.6558 98.6719C69.8751 100.097 69.2446 101.516 68.4873 102.743C67.73 103.969 66.8151 105.141 66.3594 106.512" fill="#008080"/>
<path d="M66.3531 107.002C65.8048 105.409 65.75 103.38 64.794 101.992C64.1086 101.019 63.0566 100.358 62.481 99.3296C62.132 100.316 62.18 101.4 62.6146 102.352C63.0503 103.293 63.6489 104.149 64.3828 104.881C65.0887 105.635 65.6952 106.203 66.3531 107.002Z" fill="#008080"/>
<path d="M66.3716 153.989C66.327 153.989 66.2927 143.345 66.2893 130.218C66.2859 117.09 66.3167 106.447 66.3613 106.447C66.4058 106.447 66.4401 117.087 66.4435 130.218C66.4469 143.349 66.4127 153.989 66.3716 153.989Z" fill="#263238"/>
<path d="M75.6635 122.107C75.5345 122.169 75.4004 122.219 75.2626 122.258L74.1626 122.628C73.234 122.943 71.9593 123.402 70.5749 123.971C69.1905 124.54 67.909 125.037 67.1722 125.684C66.879 125.929 66.6447 126.237 66.4869 126.586C66.3807 126.836 66.3635 126.99 66.3498 126.987C66.3361 126.983 66.3498 126.949 66.3498 126.877C66.3667 126.771 66.393 126.666 66.4287 126.565C66.5674 126.194 66.7957 125.863 67.0934 125.602C67.5387 125.227 68.0362 124.919 68.5703 124.687C69.1597 124.41 69.8142 124.122 70.5098 123.837C71.8976 123.269 73.1826 122.827 74.1215 122.535C74.591 122.388 74.9748 122.282 75.2386 122.21C75.3768 122.162 75.519 122.128 75.6635 122.107Z" fill="#263238"/>
<path d="M78.7082 114.616C78.7082 114.616 78.6705 114.664 78.5952 114.736L78.2525 115.058L76.9778 116.216L72.7356 119.986C71.077 121.459 69.6516 122.868 68.6544 123.93C68.1575 124.458 67.7669 124.896 67.4996 125.205L67.1912 125.547C67.1574 125.59 67.1196 125.629 67.0781 125.664C67.0781 125.664 67.1055 125.612 67.1672 125.527C67.2289 125.441 67.3248 125.314 67.4551 125.157C67.7086 124.838 68.0856 124.386 68.5756 123.844C69.8604 122.452 71.2181 121.128 72.643 119.88C74.305 118.41 75.8161 117.087 76.9161 116.134L78.2251 115.014L78.5849 114.716C78.622 114.678 78.6634 114.644 78.7082 114.616Z" fill="#263238"/>
<path d="M70.957 121.494C70.9125 121.476 71.2586 120.675 71.6047 119.667C71.9507 118.66 72.1152 117.803 72.1598 117.81C72.1238 118.463 71.985 119.106 71.7486 119.715C71.602 120.151 71.4304 120.577 71.2346 120.993C71.1662 121.172 71.0728 121.341 70.957 121.494Z" fill="#263238"/>
<path d="M66.377 127.936C66.2809 127.847 66.1948 127.748 66.12 127.641L65.4552 126.802C64.907 126.092 64.1463 125.112 63.2964 124.04C62.4466 122.967 61.6619 122.004 61.0965 121.298L60.4283 120.469C60.3403 120.372 60.2623 120.266 60.1953 120.154C60.2975 120.236 60.3906 120.329 60.4729 120.431C60.6442 120.616 60.8841 120.887 61.1788 121.226C61.7682 121.912 62.5494 122.857 63.4164 123.933C64.2833 125.009 65.0166 125.989 65.5443 126.726C65.8082 127.089 66.0172 127.387 66.1577 127.593C66.2407 127.701 66.3141 127.815 66.377 127.936Z" fill="#263238"/>
<path d="M64.3427 125.318C63.9313 124.862 63.6383 124.313 63.4894 123.717C63.3292 123.197 63.2642 122.651 63.2975 122.107H63.3626C63.3352 122.23 63.3112 122.295 63.301 122.295C63.2907 122.295 63.301 122.223 63.301 122.097H63.3695C63.4033 122.628 63.494 123.154 63.6402 123.666C63.8352 124.232 64.0699 124.784 64.3427 125.318Z" fill="#263238"/>
<path d="M61.707 122.008C61.5242 121.868 61.3237 121.752 61.1108 121.665C60.5745 121.505 60.0107 121.46 59.4557 121.531C58.8927 121.574 58.3344 121.664 57.7869 121.802C57.5621 121.871 57.3332 121.926 57.1016 121.966C57.3054 121.842 57.5274 121.751 57.7595 121.696C58.307 121.528 58.8712 121.421 59.442 121.377C60.0197 121.302 60.607 121.365 61.1553 121.562C61.3852 121.642 61.5802 121.8 61.707 122.008Z" fill="#263238"/>
<path d="M61.0823 121.202C61.0823 121.226 60.7397 121.065 60.1674 120.86C58.6867 120.354 57.1012 120.236 55.562 120.517C54.9726 120.623 54.6162 120.733 54.6094 120.705C54.685 120.659 54.767 120.625 54.8527 120.603C55.0768 120.524 55.3057 120.46 55.538 120.411C56.3114 120.239 57.1059 120.184 57.8955 120.246C58.6853 120.306 59.4622 120.48 60.2017 120.764C60.4255 120.85 60.644 120.95 60.8562 121.062C60.9375 121.098 61.0136 121.146 61.0823 121.202Z" fill="#263238"/>
<path d="M66.3575 117.81C66.0867 117.052 65.8635 116.279 65.6893 115.493C65.4679 114.721 65.2951 113.936 65.1719 113.143C65.6676 114.671 66.0637 116.23 66.3575 117.81Z" fill="#263238"/>
<path d="M66.3967 117.81C66.1846 117.33 65.9372 116.866 65.6566 116.422C65.3457 116.002 64.9804 115.625 64.5703 115.302C64.7261 115.339 64.8706 115.413 64.9918 115.517C65.2995 115.744 65.567 116.021 65.7834 116.336C66.1147 116.765 66.3264 117.273 66.3967 117.81Z" fill="#263238"/>
<path d="M66.3626 148.314C66.3626 148.314 66.3147 148.057 66.1947 147.605C66.0174 146.969 65.7787 146.353 65.482 145.764C64.459 143.837 63.1922 142.05 61.7126 140.446C60.8697 139.483 60.0541 138.575 59.3585 137.705C58.7365 136.939 58.174 136.127 57.676 135.275C57.3414 134.701 57.0571 134.099 56.8262 133.476C56.7474 133.254 56.6926 133.079 56.6583 132.959C56.6379 132.9 56.6241 132.839 56.6172 132.777C56.6172 132.777 56.7063 133.021 56.881 133.463C57.1342 134.073 57.4308 134.663 57.7685 135.231C58.2827 136.07 58.8552 136.871 59.4819 137.63C60.1672 138.49 60.9999 139.391 61.8429 140.371C63.3375 141.981 64.6056 143.788 65.6122 145.74C65.9075 146.339 66.1373 146.967 66.2975 147.615C66.3379 147.791 66.3688 147.97 66.39 148.149C66.3856 148.205 66.3765 148.26 66.3626 148.314Z" fill="#263238"/>
<path d="M74.7662 138.822C74.6257 138.914 74.4792 138.997 74.3276 139.069C73.9295 139.292 73.5482 139.544 73.1865 139.823C72.6513 140.24 72.1495 140.698 71.6857 141.193C71.158 141.749 70.6165 142.393 70.0614 143.085C68.9546 144.476 67.9198 145.703 67.2995 146.686C66.9843 147.173 66.7547 147.584 66.6142 147.872C66.4737 148.16 66.3812 148.317 66.3709 148.314C66.3606 148.311 66.3709 148.27 66.412 148.187C66.4531 148.105 66.4874 147.992 66.5594 147.845C66.7518 147.426 66.9704 147.02 67.2139 146.628C68.0584 145.364 68.9737 144.15 69.9552 142.989C70.5103 142.304 71.0586 141.649 71.5966 141.094C72.0693 140.594 72.584 140.135 73.1351 139.723C73.5057 139.448 73.9002 139.206 74.3139 139C74.4578 138.928 74.5778 138.884 74.6566 138.85C74.7354 138.815 74.7662 138.815 74.7662 138.822Z" fill="#263238"/>
<path d="M74.9296 141.899C74.6243 141.97 74.3137 142.016 74.001 142.036C73.2521 142.111 72.5121 142.257 71.7908 142.471C71.0785 142.7 70.41 143.048 69.8136 143.499C69.3578 143.842 69.1454 144.14 69.1282 144.123C69.1111 144.106 69.1625 144.041 69.2653 143.911C69.4093 143.729 69.5712 143.563 69.7485 143.414C70.3384 142.922 71.018 142.548 71.7497 142.314C72.4803 142.097 73.2333 141.963 73.9941 141.916C74.3049 141.884 74.6178 141.879 74.9296 141.899Z" fill="#263238"/>
<path d="M69.4022 143.798C69.3542 143.77 69.7723 143.129 70.0876 142.266C70.4028 141.402 70.4645 140.635 70.5193 140.642C70.5487 140.807 70.5487 140.976 70.5193 141.142C70.4733 141.543 70.3813 141.937 70.2452 142.317C70.1058 142.696 69.9254 143.058 69.7072 143.397C69.6276 143.546 69.5247 143.681 69.4022 143.798Z" fill="#263238"/>
<path d="M77.4945 130.547C77.4463 130.577 77.3959 130.603 77.3438 130.626L76.9086 130.824C76.7167 130.907 76.4837 131.009 76.2232 131.15C75.9628 131.29 75.6544 131.424 75.3357 131.616L74.8286 131.904C74.6504 132.007 74.4859 132.127 74.2906 132.246C73.9171 132.473 73.5402 132.754 73.1427 133.038C71.427 134.315 69.9306 135.862 68.712 137.62C68.4413 138.031 68.174 138.414 67.9615 138.798C67.8519 138.987 67.7354 139.165 67.6394 139.343C67.5435 139.521 67.4578 139.686 67.3687 139.861C67.1905 140.203 67.0603 140.498 66.9335 140.769C66.8068 141.039 66.7074 141.269 66.632 141.454C66.5566 141.639 66.4984 141.779 66.447 141.899C66.4282 141.952 66.404 142.003 66.375 142.05C66.3817 141.993 66.3967 141.938 66.4195 141.886L66.5772 141.433C66.6565 141.192 66.7491 140.955 66.8547 140.724C66.9747 140.45 67.098 140.135 67.2728 139.802L67.5366 139.278C67.6292 139.096 67.7422 138.915 67.8485 138.723C68.0609 138.336 68.3248 137.945 68.5955 137.53C69.8085 135.751 71.3148 134.19 73.0502 132.915C73.4545 132.63 73.8349 132.353 74.2152 132.127C74.4037 132.013 74.5819 131.894 74.7601 131.784L75.2775 131.503C75.5996 131.318 75.9114 131.184 76.1821 131.054C76.4052 130.942 76.634 130.841 76.8675 130.752L77.3163 130.581C77.373 130.558 77.4335 130.547 77.4945 130.547Z" fill="#263238"/>
<path d="M70.8438 135.001C70.9044 134.786 71.0315 134.595 71.207 134.457C71.6177 134.103 72.1386 133.903 72.6804 133.891C73.2129 133.89 73.7403 133.994 74.2327 134.196C74.441 134.262 74.6384 134.357 74.8187 134.481C74.6069 134.439 74.3993 134.378 74.1985 134.299C73.7117 134.133 73.2014 134.048 72.6873 134.045C72.1769 134.057 71.6836 134.231 71.2789 134.542C71.1228 134.684 70.9773 134.838 70.8438 135.001Z" fill="#263238"/>
<path d="M69.8516 136.03C70.0477 135.592 70.1881 135.131 70.2696 134.659C70.2993 134.184 70.2671 133.707 70.1737 133.24C70.2638 133.355 70.3239 133.49 70.3484 133.634C70.5309 134.325 70.4452 135.06 70.1086 135.69C69.9783 135.923 69.8653 136.047 69.8516 136.03Z" fill="#263238"/>
<path d="M59.0156 149.839C59.2452 153.906 60.4685 158.042 62.3532 162.226H70.5532C72.3522 158.083 73.4933 153.954 73.6955 149.839H59.0156Z" fill="#455A64"/>
<path d="M72.3631 156.422C72.3631 156.463 69.6629 156.497 66.3356 156.497C63.0083 156.497 60.3047 156.463 60.3047 156.422C60.3047 156.38 63.0049 156.343 66.3356 156.343C69.6663 156.343 72.3631 156.377 72.3631 156.422Z" fill="#FAFAFA"/>
<path d="M72.1796 157.895C72.1796 157.936 69.6473 157.97 66.5256 157.97C63.4039 157.97 60.875 157.936 60.875 157.895C60.875 157.854 63.4039 157.816 66.5256 157.816C69.6473 157.816 72.1796 157.85 72.1796 157.895Z" fill="#FAFAFA"/>
<path d="M239.07 162.278C239.07 162.329 190.785 162.367 131.243 162.367C71.7017 162.367 23.4062 162.329 23.4062 162.278C23.4062 162.226 71.6777 162.188 131.243 162.188C190.809 162.188 239.07 162.23 239.07 162.278Z" fill="#263238"/>
<path d="M109.543 153.337H100.945V162.23H109.543V153.337Z" fill="#455A64"/>
<path d="M105.985 153.581C105.985 153.581 105.889 153.632 105.718 153.728C105.477 153.866 105.248 154.025 105.033 154.201C104.335 154.799 103.754 155.522 103.319 156.332C103.049 156.798 102.833 157.261 102.634 157.682C102.455 158.056 102.225 158.402 101.949 158.71C101.756 158.922 101.523 159.094 101.263 159.214C101.171 159.261 101.071 159.295 100.969 159.313C100.969 159.313 101.075 159.279 101.25 159.19C101.494 159.06 101.713 158.886 101.894 158.676C102.384 158.159 102.709 157.22 103.265 156.277C103.703 155.459 104.297 154.734 105.012 154.143C105.232 153.969 105.467 153.815 105.715 153.683C105.803 153.644 105.893 153.609 105.985 153.581Z" fill="#263238"/>
<path d="M105.839 159.286L106.003 159.149C106.109 159.06 106.267 158.926 106.455 158.738C106.551 158.645 106.654 158.539 106.76 158.416C106.888 158.302 106.969 158.144 106.987 157.974C106.976 157.927 106.957 157.883 106.928 157.845C106.9 157.806 106.865 157.774 106.823 157.75C106.782 157.726 106.736 157.711 106.689 157.706C106.641 157.701 106.593 157.706 106.548 157.72C106.336 157.794 106.139 157.904 105.965 158.046C105.531 158.329 105.134 158.665 104.783 159.046C104.593 159.26 104.434 159.5 104.314 159.759C104.253 159.892 104.236 160.041 104.266 160.184C104.286 160.254 104.322 160.318 104.372 160.37C104.422 160.423 104.485 160.462 104.554 160.485C104.86 160.571 105.186 160.545 105.475 160.413C105.783 160.287 106.07 160.113 106.325 159.899C106.89 159.478 107.332 158.912 107.603 158.262C107.726 157.934 107.772 157.582 107.737 157.234C107.733 157.065 107.681 156.901 107.587 156.76C107.493 156.62 107.36 156.51 107.206 156.442C107.045 156.413 106.88 156.415 106.72 156.45C106.56 156.485 106.408 156.551 106.274 156.644C105.996 156.805 105.736 156.996 105.499 157.213C104.578 158.07 104.005 159.07 103.399 159.807C102.947 160.415 102.376 160.925 101.72 161.304C101.54 161.402 101.35 161.481 101.154 161.541C101.086 161.563 101.016 161.58 100.945 161.592L100.997 161.575L101.147 161.527C101.341 161.462 101.528 161.378 101.706 161.277C102.353 160.893 102.916 160.383 103.361 159.776C103.961 159.039 104.526 158.032 105.458 157.165C105.696 156.943 105.958 156.749 106.24 156.586C106.382 156.487 106.542 156.417 106.712 156.381C106.881 156.345 107.056 156.344 107.226 156.377C107.403 156.434 107.551 156.557 107.641 156.72C107.73 156.877 107.786 157.051 107.806 157.23C107.845 157.594 107.799 157.963 107.672 158.306C107.394 158.968 106.944 159.544 106.37 159.975C106.108 160.192 105.814 160.367 105.499 160.496C105.195 160.633 104.851 160.659 104.53 160.568C104.449 160.543 104.375 160.499 104.316 160.439C104.256 160.379 104.212 160.306 104.187 160.225C104.154 160.068 104.174 159.904 104.242 159.759C104.366 159.494 104.528 159.249 104.725 159.033C105.082 158.65 105.484 158.312 105.924 158.029C106.102 157.88 106.305 157.763 106.524 157.686C106.575 157.671 106.629 157.666 106.682 157.673C106.736 157.68 106.787 157.698 106.833 157.725C106.878 157.753 106.918 157.79 106.949 157.834C106.979 157.878 107 157.928 107.011 157.981C107.004 158.071 106.979 158.159 106.938 158.239C106.896 158.32 106.84 158.391 106.771 158.45C106.661 158.571 106.558 158.677 106.462 158.769C106.27 158.959 106.061 159.132 105.839 159.286Z" fill="#263238"/>
<path d="M109.491 154.876C109.491 154.876 109.46 154.992 109.412 155.219C109.346 155.524 109.298 155.833 109.269 156.144C109.224 156.534 109.193 157.007 109.118 157.515C108.886 159.125 108.033 160.581 106.74 161.568C106.403 161.835 106.03 162.053 105.633 162.216C105.633 162.216 105.657 162.195 105.708 162.168L105.934 162.048C107.108 161.384 108.036 160.359 108.58 159.125C109.09 158.025 109.114 156.908 109.217 156.127C109.252 155.815 109.308 155.506 109.385 155.202C109.412 155.09 109.447 154.982 109.491 154.876Z" fill="#263238"/>
<path d="M102.795 153.553C102.801 153.606 102.801 153.659 102.795 153.711C102.78 153.854 102.757 153.995 102.727 154.136C102.529 155.069 102.073 155.927 101.411 156.613C101.312 156.717 101.207 156.814 101.096 156.905C101.058 156.941 101.015 156.972 100.969 156.997C100.969 156.997 101.13 156.843 101.373 156.579C101.688 156.231 101.958 155.846 102.178 155.431C102.397 155.017 102.565 154.577 102.679 154.122C102.771 153.773 102.795 153.55 102.795 153.553Z" fill="#263238"/>
<path d="M109.543 142.348H100.945V150.946H109.543V142.348Z" fill="#455A64"/>
<path d="M104.638 142.708C104.631 142.783 104.615 142.856 104.59 142.927C104.541 143.125 104.477 143.318 104.398 143.506C104.141 144.131 103.774 144.706 103.316 145.202C102.856 145.698 102.313 146.108 101.712 146.415C101.53 146.508 101.342 146.588 101.15 146.655L100.938 146.72C101.001 146.683 101.069 146.652 101.14 146.628C101.273 146.576 101.462 146.487 101.688 146.371C102.277 146.055 102.809 145.644 103.264 145.154C103.717 144.664 104.084 144.101 104.35 143.489C104.433 143.304 104.505 143.114 104.566 142.92C104.585 142.848 104.609 142.777 104.638 142.708Z" fill="#263238"/>
<path d="M106.426 145.494C106.28 145.771 106.107 146.033 105.908 146.275C105.378 146.947 104.714 147.501 103.959 147.903C103.709 148.035 103.45 148.15 103.184 148.245C102.901 148.383 102.579 148.419 102.273 148.348C102.192 148.317 102.121 148.264 102.069 148.195C102.017 148.126 101.985 148.044 101.978 147.957C101.971 147.785 102.009 147.614 102.088 147.461C102.242 147.148 102.424 146.849 102.632 146.57C103.571 145.305 104.957 144.446 106.508 144.171C106.711 144.135 106.916 144.111 107.121 144.099C107.325 144.078 107.53 144.085 107.731 144.12C107.938 144.152 108.125 144.261 108.256 144.424C108.372 144.592 108.438 144.789 108.444 144.993C108.432 145.762 108.128 146.497 107.594 147.049C107.123 147.539 106.571 147.945 105.963 148.249C105.442 148.521 104.905 148.764 104.356 148.975C103.352 149.369 102.516 149.619 101.94 149.794L101.272 149.989C101.121 150.034 101.039 150.051 101.039 150.051L101.269 149.976L101.93 149.767C102.506 149.585 103.338 149.328 104.329 148.931C104.874 148.714 105.407 148.468 105.925 148.194C106.525 147.892 107.069 147.49 107.533 147.005C108.052 146.47 108.348 145.759 108.362 145.014C108.358 144.825 108.298 144.641 108.191 144.486C108.07 144.336 107.898 144.236 107.707 144.205C107.511 144.174 107.312 144.168 107.115 144.188C106.242 144.242 105.393 144.486 104.626 144.905C103.859 145.324 103.194 145.906 102.677 146.611C102.469 146.887 102.288 147.182 102.136 147.491C102.06 147.634 102.022 147.793 102.026 147.954C102.033 148.029 102.061 148.101 102.106 148.161C102.152 148.222 102.213 148.269 102.283 148.297C102.576 148.364 102.883 148.329 103.153 148.197C103.419 148.103 103.677 147.989 103.924 147.855C104.678 147.461 105.343 146.916 105.878 146.254C106.066 146.021 106.196 145.826 106.285 145.696C106.374 145.566 106.426 145.494 106.426 145.494Z" fill="#263238"/>
<path d="M109.48 147.92C109.48 147.92 109.48 147.94 109.442 147.975L109.326 148.115C109.178 148.289 109.021 148.455 108.856 148.612C107.772 149.664 106.435 150.421 104.974 150.809C104.755 150.87 104.533 150.919 104.309 150.956L104.128 150.983H104.062C104.062 150.983 104.083 150.983 104.124 150.963L104.306 150.922C104.46 150.891 104.686 150.833 104.964 150.754C105.68 150.545 106.369 150.255 107.02 149.89C107.67 149.521 108.275 149.077 108.822 148.568C109.031 148.372 109.196 148.208 109.305 148.091L109.432 147.958L109.48 147.92Z" fill="#263238"/>
<path d="M181.543 142.348H172.945V150.946H181.543V142.348Z" fill="#455A64"/>
<path d="M176.638 142.708C176.631 142.783 176.615 142.856 176.59 142.927C176.541 143.125 176.477 143.318 176.398 143.506C176.141 144.131 175.774 144.706 175.316 145.202C174.856 145.698 174.313 146.108 173.712 146.415C173.53 146.508 173.342 146.588 173.15 146.655L172.938 146.72C173.001 146.683 173.069 146.652 173.14 146.628C173.949 146.301 174.674 145.798 175.264 145.154C175.717 144.664 176.084 144.101 176.35 143.489C176.433 143.304 176.505 143.114 176.566 142.92C176.585 142.848 176.609 142.777 176.638 142.708Z" fill="#263238"/>
<path d="M178.416 145.494C178.271 145.771 178.097 146.033 177.899 146.275C177.369 146.947 176.705 147.501 175.949 147.903C175.7 148.036 175.441 148.15 175.175 148.245C174.892 148.383 174.57 148.419 174.263 148.348C174.182 148.317 174.112 148.264 174.06 148.195C174.007 148.126 173.976 148.044 173.969 147.957C173.962 147.785 173.999 147.614 174.078 147.461C174.233 147.148 174.415 146.849 174.623 146.57C175.561 145.305 176.948 144.446 178.499 144.171C178.702 144.135 178.906 144.111 179.112 144.099C179.315 144.078 179.521 144.085 179.722 144.12C179.929 144.152 180.116 144.261 180.246 144.424C180.363 144.592 180.428 144.789 180.435 144.993C180.423 145.762 180.119 146.497 179.585 147.049C179.114 147.539 178.562 147.945 177.954 148.249C177.432 148.521 176.896 148.764 176.347 148.975C175.343 149.369 174.507 149.619 173.948 149.794L173.28 149.989C173.129 150.034 173.047 150.051 173.047 150.051L173.276 149.976L173.938 149.767C174.513 149.585 175.346 149.328 176.336 148.931C176.882 148.714 177.415 148.468 177.933 148.194C178.536 147.889 179.081 147.483 179.547 146.994C180.065 146.46 180.36 145.748 180.373 145.004C180.369 144.815 180.31 144.631 180.202 144.476C180.082 144.325 179.909 144.225 179.719 144.195C179.523 144.163 179.323 144.158 179.126 144.178C178.254 144.231 177.404 144.476 176.637 144.895C175.87 145.314 175.205 145.896 174.688 146.6C174.481 146.876 174.299 147.171 174.147 147.481C174.071 147.623 174.033 147.783 174.037 147.944C174.044 148.019 174.072 148.091 174.118 148.151C174.163 148.212 174.224 148.258 174.294 148.286C174.587 148.354 174.894 148.319 175.165 148.187C175.43 148.093 175.688 147.979 175.936 147.844C176.69 147.451 177.355 146.906 177.889 146.244C178.077 146.011 178.207 145.816 178.297 145.686C178.386 145.555 178.416 145.494 178.416 145.494Z" fill="#263238"/>
<path d="M181.474 147.92C181.474 147.92 181.474 147.94 181.436 147.975L181.32 148.115C181.172 148.289 181.015 148.455 180.85 148.612C179.766 149.663 178.43 150.42 176.971 150.809C176.746 150.87 176.517 150.92 176.286 150.956L176.104 150.983H176.039C176.039 150.983 176.06 150.983 176.101 150.963L176.282 150.922C176.437 150.891 176.663 150.833 176.94 150.754C177.656 150.544 178.346 150.254 178.996 149.89C179.645 149.52 180.249 149.076 180.795 148.568C181.004 148.372 181.169 148.208 181.278 148.091L181.405 147.958L181.474 147.92Z" fill="#263238"/>
<path d="M181.543 153.337H172.945V162.23H181.543V153.337Z" fill="#455A64"/>
<path d="M177.976 153.581C177.976 153.581 177.88 153.632 177.709 153.728C177.468 153.866 177.238 154.025 177.023 154.201C176.326 154.8 175.746 155.523 175.31 156.332C175.043 156.798 174.824 157.261 174.625 157.682C174.446 158.056 174.215 158.402 173.939 158.71C173.753 158.921 173.525 159.093 173.271 159.214C173.178 159.261 173.079 159.295 172.977 159.313C172.977 159.313 173.083 159.279 173.258 159.19C173.503 159.06 173.723 158.886 173.905 158.676C174.395 158.159 174.717 157.22 175.259 156.277C175.697 155.459 176.291 154.734 177.006 154.143C177.226 153.969 177.461 153.815 177.709 153.683C177.796 153.644 177.885 153.609 177.976 153.581Z" fill="#263238"/>
<path d="M177.839 159.286L178.003 159.149C178.113 159.06 178.267 158.926 178.459 158.738C178.551 158.645 178.654 158.539 178.76 158.416C178.888 158.302 178.969 158.144 178.987 157.974C178.976 157.927 178.957 157.883 178.928 157.845C178.9 157.806 178.865 157.774 178.823 157.75C178.782 157.726 178.736 157.711 178.689 157.706C178.641 157.701 178.593 157.706 178.548 157.72C178.336 157.794 178.139 157.904 177.965 158.046C177.532 158.33 177.135 158.666 176.783 159.046C176.593 159.26 176.434 159.5 176.314 159.759C176.253 159.892 176.236 160.041 176.266 160.184C176.285 160.254 176.322 160.318 176.372 160.37C176.422 160.423 176.485 160.462 176.554 160.485C176.86 160.571 177.186 160.545 177.475 160.413C177.783 160.287 178.07 160.113 178.325 159.899C178.89 159.478 179.332 158.912 179.603 158.262C179.726 157.934 179.772 157.582 179.737 157.234C179.733 157.065 179.681 156.901 179.587 156.76C179.493 156.62 179.36 156.51 179.206 156.442C179.045 156.413 178.88 156.415 178.72 156.45C178.56 156.485 178.408 156.551 178.274 156.644C177.996 156.805 177.738 156.995 177.503 157.213C176.578 158.07 176.005 159.07 175.399 159.807C174.947 160.415 174.376 160.925 173.72 161.304C173.54 161.402 173.35 161.481 173.154 161.541C173.086 161.563 173.016 161.58 172.945 161.592L172.997 161.575L173.147 161.527C173.341 161.462 173.528 161.378 173.706 161.277C174.353 160.893 174.916 160.383 175.361 159.776C175.961 159.039 176.526 158.032 177.458 157.165C177.696 156.943 177.958 156.749 178.24 156.586C178.382 156.487 178.542 156.417 178.712 156.381C178.881 156.345 179.056 156.344 179.226 156.377C179.403 156.434 179.551 156.557 179.641 156.72C179.73 156.877 179.786 157.051 179.805 157.23C179.848 157.594 179.803 157.963 179.672 158.306C179.396 158.969 178.946 159.546 178.37 159.975C178.108 160.193 177.815 160.368 177.499 160.496C177.195 160.633 176.851 160.659 176.53 160.568C176.449 160.543 176.375 160.499 176.316 160.439C176.256 160.379 176.212 160.306 176.187 160.225C176.154 160.068 176.174 159.904 176.242 159.759C176.366 159.494 176.528 159.249 176.725 159.033C177.082 158.65 177.484 158.312 177.924 158.029C178.102 157.88 178.305 157.763 178.524 157.686C178.575 157.671 178.629 157.666 178.682 157.673C178.736 157.68 178.787 157.698 178.833 157.725C178.878 157.753 178.918 157.79 178.949 157.834C178.979 157.878 179 157.928 179.011 157.981C179.003 158.071 178.979 158.159 178.938 158.239C178.896 158.32 178.84 158.391 178.771 158.45C178.664 158.57 178.558 158.676 178.462 158.769C178.27 158.959 178.061 159.132 177.839 159.286Z" fill="#263238"/>
<path d="M181.483 154.876C181.483 154.876 181.453 154.992 181.405 155.219C181.339 155.524 181.291 155.833 181.261 156.144C181.216 156.534 181.185 157.007 181.11 157.515C181.031 158.081 180.873 158.633 180.64 159.156C180.213 160.101 179.557 160.926 178.732 161.555C178.396 161.822 178.023 162.041 177.625 162.202C177.647 162.182 177.673 162.166 177.7 162.154L177.927 162.034C179.101 161.37 180.03 160.345 180.575 159.111C181.083 158.011 181.107 156.894 181.209 156.113C181.244 155.801 181.3 155.492 181.377 155.188C181.407 155.082 181.442 154.978 181.483 154.876Z" fill="#263238"/>
<path d="M174.803 153.553C174.811 153.605 174.811 153.659 174.803 153.711C174.787 153.854 174.765 153.995 174.734 154.136C174.536 155.069 174.081 155.927 173.419 156.613C173.32 156.717 173.214 156.814 173.103 156.905C173.065 156.941 173.023 156.972 172.977 156.997C172.977 156.997 173.138 156.843 173.381 156.579C173.696 156.231 173.966 155.846 174.186 155.431C174.405 155.017 174.573 154.577 174.686 154.122C174.755 153.773 174.789 153.55 174.803 153.553Z" fill="#263238"/>
<path d="M183.65 150.946H99.0391V153.632H183.65V150.946Z" fill="#455A64"/>
<path d="M183.668 153.632C183.668 153.68 164.729 153.721 141.373 153.721C118.016 153.721 99.0703 153.68 99.0703 153.632C99.0703 153.584 118.006 153.543 141.373 153.543C164.739 153.543 183.668 153.584 183.668 153.632Z" fill="#263238"/>
<path d="M183.668 150.946C183.668 150.997 164.729 151.035 141.373 151.035C118.016 151.035 99.0703 150.997 99.0703 150.946C99.0703 150.894 118.006 150.856 141.373 150.856C164.739 150.856 183.668 150.898 183.668 150.946Z" fill="#263238"/>
<path d="M183.64 140.285H98.9297V142.704H183.64V140.285Z" fill="#455A64"/>
<path d="M182.673 142.708C182.673 142.756 163.953 142.797 140.868 142.797C117.782 142.797 99.0625 142.756 99.0625 142.708C99.0625 142.66 117.779 142.619 140.868 142.619C163.957 142.619 182.673 142.656 182.673 142.708Z" fill="#263238"/>
<path d="M160.336 138.044L153.555 132.798L157.828 126.65L164.856 132.798C164.856 132.798 164.832 135.364 163.852 136.437C162.872 137.509 160.336 138.044 160.336 138.044Z" fill="#FFCBB8"/>
<path d="M165.246 133.034L164.742 132.572C163.844 134.843 162.214 136.75 160.109 137.989L163.879 141.187L173.559 129.926C172.415 129.066 165.246 133.034 165.246 133.034Z" fill="#008080"/>
<path d="M163.864 141.186L162.945 140.405L172.591 129.878C172.591 129.878 173.242 129.567 173.544 129.926L163.864 141.186Z" fill="#263238"/>
<path d="M165.345 132.805C165.4 132.853 165.188 133.148 165.133 133.573C165.078 133.997 165.184 134.337 165.133 134.368C165.081 134.398 164.821 134.045 164.896 133.535C164.972 133.024 165.304 132.747 165.345 132.805Z" fill="#263238"/>
<path d="M166.847 132.041C166.912 132.075 166.799 132.383 166.871 132.781C166.943 133.178 167.145 133.432 167.094 133.487C167.043 133.542 166.703 133.305 166.625 132.822C166.546 132.339 166.796 132 166.847 132.041Z" fill="#263238"/>
<path d="M168.839 132.603C168.808 132.664 168.465 132.503 168.287 132.106C168.109 131.708 168.208 131.345 168.287 131.359C168.366 131.372 168.38 131.674 168.531 132C168.681 132.325 168.88 132.527 168.839 132.603Z" fill="#263238"/>
<path d="M125.446 122.162C125.463 121.97 135.603 113.345 136.72 112.656C138.125 111.789 141.562 111.398 143.34 112.934C144.988 114.359 159.212 126.239 159.212 126.239L153.476 133.24L141.116 123.591C141.116 123.591 129.39 130.643 129.274 130.817C129.157 130.992 123.664 128.909 123.664 128.734C123.664 128.559 125.446 122.162 125.446 122.162Z" fill="#263238"/>
<path d="M114.751 87.5213C114.532 85.9965 114.444 84.4557 114.488 82.9159C114.535 81.368 114.966 79.8562 115.742 78.516C115.865 78.3173 116.831 77.0151 117.058 77.0837C117.215 77.1316 116.526 78.3892 116.581 78.5469C117.048 80.0822 117.036 81.7233 116.547 83.2517C116.109 84.7372 115.507 86.1692 114.751 87.5213Z" fill="#263238"/>
<path d="M116.295 100.927C115.176 100.677 114.198 99.9999 113.572 99.0394C112.946 98.0788 112.72 96.9113 112.944 95.7866L115.757 81.6927C116.391 77.8822 119.139 75.0758 122.932 75.8159L123.275 75.905C124.956 76.3362 126.414 77.385 127.357 78.8423C128.3 80.2997 128.659 82.0588 128.364 83.7692C127.795 87.0691 127.123 90.7082 126.65 92.4353C125.684 96.0161 121.949 95.6529 121.949 95.6529C121.949 95.6529 121.76 96.489 121.538 97.5547C121.417 98.123 121.186 98.6618 120.856 99.1399C120.526 99.6181 120.105 100.026 119.616 100.34C119.128 100.654 118.582 100.869 118.01 100.971C117.438 101.072 116.852 101.06 116.285 100.933L116.295 100.927Z" fill="#FFCBB8"/>
<path d="M121.946 95.6872C120.289 95.2576 118.789 94.3622 117.625 93.1069C117.625 93.1069 118.094 96.0093 121.761 96.6056L121.946 95.6872Z" fill="#664D42"/>
<path d="M120.774 89.2692C120.874 89.2017 120.987 89.1575 121.105 89.1397C121.224 89.1219 121.345 89.131 121.459 89.1664C121.574 89.2018 121.679 89.2626 121.767 89.3441C121.855 89.4257 121.923 89.526 121.967 89.6376C122.011 89.7492 122.029 89.8692 122.02 89.9888C122.011 90.1083 121.975 90.2243 121.915 90.3282C121.855 90.432 121.773 90.5211 121.674 90.5887C121.575 90.6563 121.462 90.7007 121.343 90.7187C121.125 90.7475 120.903 90.7029 120.713 90.5919C120.565 90.5171 120.445 90.397 120.37 90.2492C120.325 90.1366 120.31 90.0145 120.327 89.8944C120.343 89.7744 120.39 89.6606 120.463 89.5639C120.573 89.399 120.727 89.2684 120.908 89.1869" fill="#664D42"/>
<path d="M126.67 86.5861C126.637 86.7203 126.553 86.8364 126.436 86.9095C126.319 86.9825 126.178 87.0066 126.043 86.9767C125.976 86.9648 125.913 86.9398 125.856 86.903C125.8 86.8663 125.751 86.8185 125.713 86.7627C125.675 86.7068 125.648 86.6439 125.635 86.5777C125.622 86.5115 125.622 86.4433 125.635 86.3771C125.668 86.2436 125.751 86.128 125.868 86.0551C125.984 85.9821 126.124 85.9575 126.259 85.9864C126.326 85.9979 126.389 86.0227 126.446 86.0593C126.503 86.0959 126.553 86.1435 126.591 86.1994C126.629 86.2553 126.656 86.3183 126.67 86.3848C126.683 86.4512 126.683 86.5196 126.67 86.5861Z" fill="#263238"/>
<path d="M127.164 85.3351C127.085 85.3831 126.77 84.9924 126.218 84.8588C125.666 84.7251 125.19 84.8896 125.149 84.8074C125.108 84.7251 125.221 84.6635 125.43 84.5812C125.711 84.478 126.017 84.4637 126.307 84.5401C126.595 84.6109 126.853 84.7732 127.041 85.0027C127.178 85.1775 127.205 85.3145 127.164 85.3351Z" fill="#263238"/>
<path d="M121.678 85.4415C121.646 85.5758 121.562 85.6919 121.445 85.7649C121.327 85.8379 121.186 85.8621 121.051 85.8322C120.985 85.8211 120.921 85.7967 120.864 85.7604C120.807 85.7242 120.758 85.6767 120.72 85.621C120.682 85.5653 120.656 85.5025 120.642 85.4363C120.629 85.3701 120.63 85.302 120.643 85.2359C120.676 85.1017 120.76 84.9856 120.877 84.9126C120.994 84.8395 121.136 84.8154 121.271 84.8453C121.337 84.8568 121.4 84.8815 121.457 84.9179C121.514 84.9543 121.562 85.0017 121.6 85.0573C121.638 85.1129 121.665 85.1755 121.678 85.2415C121.692 85.3075 121.692 85.3755 121.678 85.4415Z" fill="#263238"/>
<path d="M121.824 84.105C121.741 84.153 121.426 83.7623 120.874 83.6287C120.323 83.4951 119.846 83.6595 119.805 83.5773C119.764 83.495 119.877 83.4334 120.086 83.3511C120.369 83.2481 120.676 83.2337 120.967 83.31C121.254 83.3815 121.51 83.5437 121.697 83.7726C121.834 83.9439 121.861 84.081 121.824 84.105Z" fill="#263238"/>
<path d="M122.641 88.6832C122.955 88.6653 123.271 88.6883 123.58 88.7518C123.723 88.7723 123.864 88.7792 123.922 88.6867C123.966 88.5437 123.966 88.391 123.922 88.2481C123.878 87.8711 123.83 87.4771 123.782 87.0659C123.593 85.3902 123.497 84.0264 123.566 84.0196C123.634 84.0127 123.84 85.3662 124.025 87.0419C124.066 87.4531 124.107 87.8471 124.148 88.2241C124.191 88.4171 124.167 88.6189 124.08 88.7963C124.046 88.8404 124.003 88.8765 123.954 88.902C123.905 88.9275 123.851 88.9417 123.795 88.9437C123.711 88.9437 123.627 88.9333 123.545 88.9128C123.235 88.8735 122.932 88.7964 122.641 88.6832Z" fill="#263238"/>
<path d="M120.921 88.6455C121.011 88.6661 120.86 89.2623 121.264 89.8208C121.668 90.3794 122.323 90.4753 122.292 90.561C122.261 90.6467 122.121 90.6398 121.85 90.5781C121.498 90.4932 121.188 90.2869 120.973 89.9956C120.766 89.7146 120.677 89.3646 120.723 89.019C120.774 88.7654 120.88 88.6318 120.921 88.6455Z" fill="#263238"/>
<path d="M122.388 81.9496C122.295 82.0867 121.761 81.8742 121.093 81.7851C120.424 81.696 119.859 81.7406 119.808 81.5829C119.784 81.5076 119.91 81.391 120.15 81.2985C120.481 81.1897 120.834 81.1603 121.178 81.2129C121.52 81.2577 121.847 81.3834 122.131 81.5795C122.333 81.7371 122.429 81.8879 122.388 81.9496Z" fill="#263238"/>
<path d="M127.341 83.7177C127.211 83.8171 126.865 83.5875 126.409 83.4642C125.953 83.3408 125.545 83.3339 125.487 83.1797C125.467 83.1044 125.559 82.9947 125.758 82.9193C126.022 82.8352 126.305 82.8317 126.571 82.9092C126.837 82.9867 127.074 83.1417 127.252 83.3545C127.379 83.5224 127.399 83.6663 127.341 83.7177Z" fill="#263238"/>
<path d="M115.356 84.4649C115.301 84.4204 113.074 83.0942 112.522 85.5751C111.97 88.056 114.578 88.0937 114.578 88.0252C114.578 87.9567 115.356 84.4649 115.356 84.4649Z" fill="#FFCBB8"/>
<path d="M114.049 86.9184C114.049 86.9184 113.998 86.939 113.919 86.9561C113.806 86.9765 113.69 86.9532 113.594 86.891C113.457 86.7535 113.359 86.582 113.31 86.3941C113.261 86.2062 113.263 86.0087 113.316 85.8219C113.357 85.6088 113.445 85.4075 113.573 85.2325C113.613 85.1604 113.67 85.0992 113.74 85.0544C113.809 85.0096 113.888 84.9825 113.971 84.9755C114.023 84.9727 114.075 84.9887 114.117 85.0207C114.159 85.0527 114.189 85.0986 114.2 85.1503C114.217 85.2257 114.2 85.2702 114.2 85.2805C114.2 85.2908 114.262 85.2497 114.265 85.1434C114.264 85.0785 114.241 85.0158 114.2 84.9652C114.143 84.8996 114.064 84.858 113.977 84.8487C113.871 84.8468 113.767 84.8719 113.673 84.9217C113.58 84.9715 113.5 85.0442 113.443 85.1331C113.288 85.3234 113.183 85.5496 113.138 85.7911C113.042 86.2914 113.193 86.8191 113.528 86.9973C113.59 87.0317 113.659 87.0518 113.73 87.0559C113.8 87.0601 113.871 87.0482 113.936 87.0212C114.032 86.9767 114.056 86.9253 114.049 86.9184Z" fill="#664D42"/>
<path d="M127.696 79.4242C128.145 79.2872 127.151 77.6629 126.26 77.005C124.914 76.0078 122.727 75.1066 121.271 75.2026C119.517 75.3191 117.964 75.8468 116.816 77.1763C115.688 78.5387 114.943 80.1767 114.658 81.9223C114.523 82.4448 114.531 82.994 114.682 83.5122C114.908 84.1256 115.49 84.6088 115.319 85.3455C115.244 85.6083 115.266 85.889 115.381 86.1371C115.723 86.7779 116.409 86.4386 116.751 86.0274C117.502 85.1742 117.81 84.0331 118.098 82.9434C118.355 82.0739 118.504 81.1763 118.544 80.2706C118.53 79.9822 118.56 79.6933 118.633 79.414C118.74 78.9532 118.978 78.5332 119.318 78.2043C119.402 78.1365 119.492 78.0779 119.589 78.0296C119.941 77.845 120.336 77.7564 120.734 77.7726C121.131 77.7889 121.517 77.9094 121.854 78.1221C123.156 78.9137 124.115 79.9485 125.883 79.6264C126.195 79.5412 126.482 79.3826 126.72 79.1638C126.882 79.0758 127.072 79.0519 127.252 79.097C127.431 79.142 127.587 79.2527 127.689 79.4071L127.696 79.4242Z" fill="#263238"/>
<path d="M114.381 88.9057C114.381 88.9057 114.381 88.9674 114.322 89.0325C114.272 89.0713 114.214 89.0993 114.152 89.1146C114.09 89.13 114.025 89.1323 113.963 89.1216C113.778 89.1015 113.606 89.0207 113.473 88.892C113.302 88.7335 113.2 88.5146 113.188 88.282C113.179 88.052 113.252 87.8263 113.394 87.6447C113.51 87.5017 113.666 87.3967 113.843 87.3431C114.141 87.2575 114.329 87.3431 114.322 87.3603C114.316 87.3774 114.137 87.3603 113.894 87.4802C113.74 87.5457 113.61 87.6567 113.522 87.7981C113.433 87.9396 113.389 88.1049 113.397 88.2718C113.408 88.4368 113.47 88.5942 113.576 88.7211C113.682 88.8481 113.826 88.9379 113.987 88.9777C114.081 89.0085 114.183 89.0085 114.278 88.9777C114.34 88.9365 114.364 88.8988 114.381 88.9057Z" fill="#263238"/>
<path d="M149.772 122.446L143.148 118.098L140.814 119.862L124.777 119.139V119.595L123.773 124.958L143.689 123.769C143.689 123.769 144.865 124.656 145.385 124.454C145.906 124.252 146.369 124.026 146.369 124.026L147.16 124.276C147.426 124.235 147.68 124.134 147.902 123.982C148.124 123.829 148.308 123.629 148.442 123.395C148.442 123.395 149.552 124.571 150.125 124.584C150.697 124.598 149.772 122.446 149.772 122.446Z" fill="#FFCBB8"/>
<path d="M113.422 94.8545C113.422 94.8545 111.051 95.1286 109.433 96.2731C106.873 98.0824 104.183 102.253 103.296 108.037C102.556 112.834 103.029 117.998 102.803 121.528C102.46 126.877 102.443 129.289 102.803 130.471C103.399 132.435 104.475 139.165 108.909 139.847C109.834 138.515 110.547 137.048 111.023 135.498C111.619 133.281 113.658 127.12 119.364 126.363C119.871 126.294 125.61 125.431 125.61 125.431C125.61 125.431 125.227 119.914 125.227 117.738C125.227 116.652 125.569 114.602 125.946 112.827C126.409 110.555 125.765 108.147 125.148 105.912C124.531 103.678 124.065 100.659 123.65 99.8746C123.093 98.9266 122.28 98.1556 121.303 97.6507L113.422 94.8545Z" fill="#008080"/>
<path d="M113.422 94.8545C113.422 94.8545 116.372 98.312 117.877 102.307C118.939 105.124 122.674 112.433 122.674 112.433C122.674 112.433 122.523 107.129 122.194 104.336C121.714 100.272 121.492 97.7637 121.492 97.7637L117.671 95.6906L113.422 94.8545Z" fill="#FFCBB8"/>
<path d="M117.809 126.534C117.623 126.546 117.437 126.546 117.251 126.534C116.746 126.543 116.244 126.599 115.75 126.702C115.018 126.853 114.304 127.083 113.622 127.387C112.782 127.754 112.001 128.241 111.302 128.833C110.085 129.972 109.03 131.273 108.166 132.699C107.824 133.223 107.56 133.655 107.354 133.987C107.262 134.15 107.157 134.304 107.039 134.45C107.11 134.277 107.195 134.109 107.293 133.949C107.467 133.634 107.724 133.182 108.057 132.633C108.899 131.173 109.953 129.846 111.185 128.696C111.899 128.099 112.699 127.611 113.557 127.25C114.252 126.947 114.982 126.726 115.729 126.592C116.23 126.497 116.741 126.459 117.251 126.479C117.389 126.482 117.528 126.493 117.665 126.513C117.714 126.513 117.762 126.52 117.809 126.534Z" fill="#263238"/>
<path d="M104.258 109.373C104.258 109.373 106.17 97.5241 111.502 97.0786C116.834 96.6331 116.282 102.931 116.011 105.967C115.888 107.532 115.682 109.088 115.394 110.631L104.258 109.373Z" fill="#008080"/>
<path d="M115.82 110.631H115.614L115.004 110.576L112.664 110.353L104.299 109.528H104.203L104.231 109.435C104.7 107.996 105.002 106.379 105.392 104.689C105.783 103 106.29 101.211 107.321 99.604C108.105 98.3198 109.294 97.3326 110.7 96.7976C111.377 96.5603 112.102 96.492 112.811 96.5988C113.501 96.6982 114.131 97.0483 114.579 97.5823C114.987 98.0857 115.323 98.6426 115.58 99.2374C115.707 99.522 115.804 99.8195 115.868 100.125C115.919 100.426 115.96 100.718 115.998 101.009C116.136 102.083 116.211 103.164 116.224 104.247C116.229 105.814 116.154 107.379 116.001 108.938C115.946 109.487 115.905 109.911 115.874 110.216C115.874 110.353 115.847 110.463 115.837 110.559C115.835 110.595 115.829 110.631 115.82 110.665C115.82 110.665 115.82 110.624 115.82 110.545C115.82 110.467 115.82 110.353 115.84 110.203C115.861 109.901 115.891 109.476 115.929 108.935C116.001 107.828 116.128 106.228 116.094 104.251C116.073 103.172 115.991 102.095 115.847 101.026C115.809 100.742 115.765 100.444 115.713 100.152C115.651 99.8584 115.557 99.5723 115.432 99.2991C115.18 98.7212 114.851 98.1805 114.452 97.692C114.028 97.1875 113.433 96.8579 112.78 96.7668C112.098 96.6663 111.402 96.7334 110.751 96.9621C109.385 97.4886 108.231 98.4525 107.469 99.7034C106.458 101.276 105.954 103.055 105.557 104.73C105.159 106.406 104.871 108.034 104.378 109.483L104.313 109.38L112.619 110.282L114.97 110.545L115.597 110.621L115.758 110.641L115.82 110.631Z" fill="#263238"/>
<g opacity="0.3">
<path d="M106.687 131.965C106.491 132.175 106.35 132.429 106.276 132.706C106.243 132.845 106.256 132.99 106.312 133.121C106.369 133.252 106.467 133.361 106.591 133.432C106.951 133.593 107.338 133.285 107.619 132.993C108.592 131.928 109.435 130.749 110.405 129.676C111.269 128.627 112.38 127.81 113.64 127.298C110.281 128.316 108.887 129.248 106.687 131.965Z" fill="black"/>
</g>
<g opacity="0.3">
<path d="M124.892 119.667C124.885 119.578 124.859 119.492 124.816 119.414C124.773 119.336 124.714 119.268 124.642 119.215C124.544 119.178 124.44 119.163 124.336 119.171C124.232 119.179 124.13 119.209 124.039 119.259L116.5 122.158C115.027 122.727 113.416 123.303 111.898 122.843C110.312 122.371 109.219 120.835 108.838 119.225C108.458 117.614 108.667 115.928 108.938 114.294C109.208 112.659 109.678 110.045 109.678 110.045L104.99 109.582C104.469 114.53 104.099 120.321 105.042 124.423C105.401 125.989 106.265 126.969 107.612 127.85C108.718 128.566 110.809 127.737 112.179 127.192C115.74 125.773 119.129 124.351 121.935 122.737C122.62 122.343 124.724 120.918 125.187 120.277C125.65 119.636 125.029 120.445 124.892 119.667Z" fill="black"/>
</g>
<path d="M105.558 109.644C105.558 109.644 105.236 118.317 105.582 121.792C105.849 124.434 106.823 126.287 108.344 126.541C109.866 126.795 116.191 125.146 119.926 123.248C122.302 122.029 124.615 120.691 126.855 119.239L126.571 115.726C126.571 115.726 119.611 117.303 118.408 117.491C117.205 117.68 113.532 118.084 113.532 118.084C113.532 117.974 114.701 110.566 114.701 110.566L105.558 109.644Z" fill="#FFCBB8"/>
<path d="M135.778 115C135.459 114.678 128.013 115.545 126.752 115.685L126.57 115.706L126.855 119.218H132.224L132.399 120.054C132.399 120.054 131.714 119.948 131.351 120.263C130.987 120.579 132.546 120.877 132.886 120.925C133.842 121.058 134.321 120.116 134.321 120.116C135.089 120.62 135.781 119.674 135.781 119.674C136.395 120.116 136.929 119.146 136.929 119.146C136.929 119.146 137.906 120.174 138.464 120.298C138.833 120.359 139.209 120.359 139.578 120.298C139.578 120.298 136.127 115.346 135.778 115Z" fill="#FFCBB8"/>
<path d="M134.318 120.003C134.263 120.003 134.17 119.448 133.896 118.817C133.707 118.446 133.496 118.085 133.266 117.738C133.636 117.975 133.916 118.33 134.061 118.745C134.257 119.134 134.346 119.568 134.318 120.003Z" fill="#664D42"/>
<path d="M134.346 116.895C134.346 116.878 134.524 116.963 134.736 117.179C134.999 117.468 135.21 117.799 135.36 118.159C135.518 118.511 135.649 118.874 135.751 119.245C135.823 119.54 135.771 119.735 135.751 119.729C135.73 119.722 135.73 119.547 135.634 119.28C135.538 119.012 135.377 118.632 135.202 118.231C135.056 117.887 134.868 117.561 134.644 117.261C134.466 117.035 134.325 116.915 134.346 116.895Z" fill="#664D42"/>
<path d="M135.652 116.237C136.354 117.147 136.824 118.213 137.023 119.345C136.975 119.345 136.742 118.635 136.358 117.779C135.974 116.922 135.608 116.264 135.652 116.237Z" fill="#664D42"/>
<path d="M139.887 157.347L139.305 150.421H147.244L147.001 157.203C147.001 157.203 144.832 159.015 143.382 158.971C141.933 158.926 139.887 157.347 139.887 157.347Z" fill="#FFCBB8"/>
<path d="M147.002 157.888V157.203C144.709 158.045 142.2 158.096 139.875 157.347L139.988 162.278L154.836 162.014C154.736 160.598 147.002 157.888 147.002 157.888Z" fill="#008080"/>
<path d="M140.004 162.277L139.977 161.075L154.252 161.273C154.252 161.273 154.917 161.548 154.852 162.014L140.004 162.277Z" fill="#263238"/>
<path d="M147.248 157.806C147.248 157.881 146.885 157.919 146.532 158.149C146.179 158.378 145.994 158.697 145.926 158.669C145.857 158.642 145.96 158.221 146.392 157.94C146.823 157.659 147.262 157.741 147.248 157.806Z" fill="#263238"/>
<path d="M148.811 158.423C148.832 158.495 148.52 158.622 148.277 158.933C148.033 159.245 147.972 159.571 147.9 159.567C147.828 159.564 147.773 159.156 148.081 158.776C148.39 158.395 148.811 158.354 148.811 158.423Z" fill="#263238"/>
<path d="M149.741 160.273C149.676 160.29 149.57 159.93 149.741 159.529C149.913 159.128 150.255 158.964 150.289 159.022C150.324 159.08 150.115 159.3 149.971 159.629C149.827 159.958 149.799 160.263 149.741 160.273Z" fill="#263238"/>
<path d="M142.094 159.731C142.094 159.809 142.071 159.884 142.028 159.949C141.985 160.013 141.924 160.063 141.853 160.092C141.781 160.122 141.703 160.13 141.627 160.115C141.551 160.1 141.482 160.062 141.427 160.008C141.372 159.953 141.335 159.883 141.32 159.808C141.305 159.732 141.313 159.653 141.342 159.582C141.372 159.511 141.422 159.45 141.486 159.407C141.55 159.364 141.626 159.341 141.703 159.341C141.755 159.34 141.806 159.35 141.853 159.37C141.901 159.389 141.944 159.418 141.98 159.454C142.017 159.491 142.046 159.534 142.065 159.581C142.084 159.629 142.094 159.68 142.094 159.731Z" fill="#263238"/>
<path d="M109.133 139.507C109.068 139.61 115.479 140.535 120.948 140.254C126.417 139.973 137.976 135.687 137.976 135.687C137.698 137.347 137.536 139.024 137.489 140.707C137.472 143.003 138.603 150.774 138.603 150.774H148.094V134.117C148.094 134.117 147.827 127.829 147.81 126.791C147.779 125.232 145.922 122.991 142.886 123.166C140.326 123.316 117.635 126.558 117.635 126.558C117.635 126.558 114.208 127.641 112.838 129.464C111.467 131.287 109.133 139.507 109.133 139.507Z" fill="#263238"/>
<path d="M112.593 133.973C112.314 134.051 112.023 134.072 111.736 134.035C111.446 134.056 111.156 134.015 110.883 133.915C111.163 133.838 111.455 133.819 111.743 133.857C112.031 133.838 112.32 133.877 112.593 133.973Z" fill="#455A64"/>
<path d="M116.022 133.805C115.752 133.912 115.463 133.963 115.173 133.956C114.887 134.007 114.595 133.999 114.312 133.932C114.582 133.826 114.87 133.774 115.159 133.781C115.445 133.731 115.739 133.739 116.022 133.805Z" fill="#455A64"/>
<path d="M119.415 133.353C119.153 133.48 118.869 133.553 118.579 133.569C118.298 133.641 118.005 133.655 117.719 133.61C117.979 133.48 118.264 133.405 118.555 133.391C118.836 133.321 119.129 133.308 119.415 133.353Z" fill="#455A64"/>
<path d="M122.781 132.716C122.25 132.943 121.679 133.06 121.102 133.058C121.631 132.827 122.203 132.71 122.781 132.716Z" fill="#455A64"/>
<path d="M126.125 131.979C125.6 132.218 125.03 132.345 124.453 132.353C124.703 132.206 124.981 132.113 125.269 132.078C125.545 131.988 125.836 131.954 126.125 131.979Z" fill="#455A64"/>
<path d="M129.469 131.232C129.219 131.378 128.941 131.472 128.654 131.506C128.378 131.597 128.086 131.631 127.797 131.605C128.049 131.461 128.328 131.368 128.616 131.331C128.891 131.241 129.181 131.207 129.469 131.232Z" fill="#455A64"/>
<path d="M132.823 130.547C132.568 130.685 132.289 130.771 132.001 130.8C131.722 130.885 131.43 130.911 131.141 130.879C131.396 130.74 131.677 130.654 131.966 130.625C132.244 130.541 132.535 130.514 132.823 130.547Z" fill="#455A64"/>
<path d="M136.212 129.998C135.952 130.124 135.668 130.195 135.379 130.207C135.097 130.277 134.803 130.289 134.516 130.242C134.778 130.117 135.062 130.046 135.352 130.033C135.633 129.961 135.926 129.949 136.212 129.998Z" fill="#455A64"/>
<path d="M139.621 129.789C139.342 129.848 139.058 129.872 138.774 129.861C138.488 129.905 138.196 129.895 137.914 129.83C138.184 129.719 138.476 129.669 138.767 129.683C139.056 129.638 139.352 129.675 139.621 129.789Z" fill="#455A64"/>
<path d="M141.584 132.137C141.488 131.868 141.424 131.59 141.392 131.307C141.296 130.859 141.087 130.547 141.121 130.516C141.155 130.485 141.464 130.776 141.566 131.266C141.659 131.548 141.665 131.851 141.584 132.137Z" fill="#455A64"/>
<path d="M141.723 135.56C141.626 135.287 141.584 134.997 141.6 134.707C141.559 134.421 141.576 134.129 141.651 133.85C141.796 134.41 141.821 134.994 141.723 135.563V135.56Z" fill="#455A64"/>
<path d="M141.89 138.983C141.741 138.424 141.711 137.841 141.801 137.27C141.905 137.54 141.95 137.83 141.934 138.12C141.977 138.408 141.962 138.701 141.89 138.983Z" fill="#455A64"/>
<path d="M142.085 142.403C141.938 141.844 141.906 141.261 141.993 140.689C142.095 140.961 142.142 141.25 142.13 141.539C142.175 141.827 142.16 142.121 142.085 142.403Z" fill="#455A64"/>
<path d="M142.264 145.826C142.116 145.267 142.086 144.684 142.175 144.113C142.278 144.385 142.324 144.675 142.309 144.966C142.351 145.253 142.336 145.545 142.264 145.826Z" fill="#455A64"/>
<path d="M142.42 149.249C142.321 148.976 142.278 148.686 142.293 148.396C142.254 148.109 142.273 147.816 142.348 147.536C142.447 147.809 142.489 148.1 142.471 148.389C142.511 148.677 142.494 148.969 142.42 149.249Z" fill="#455A64"/>
<path d="M141.526 127.548C141.352 127.957 141.157 128.356 140.94 128.744C140.57 129.478 140.08 130.499 139.59 131.65C139.1 132.801 138.716 133.867 138.449 134.642C138.321 135.067 138.171 135.485 138 135.896C138.007 135.779 138.029 135.664 138.065 135.553C138.12 135.33 138.209 135.008 138.329 134.614C138.643 133.588 139.009 132.578 139.425 131.588C139.844 130.601 140.312 129.635 140.83 128.696C141.029 128.336 141.197 128.049 141.32 127.853C141.376 127.743 141.445 127.641 141.526 127.548Z" fill="#455A64"/>
<path d="M144.472 130.598C144.472 130.626 144.027 130.804 143.325 131.164C142.414 131.635 141.554 132.199 140.758 132.846C139.967 133.5 139.247 134.235 138.609 135.039C138.119 135.656 137.852 136.067 137.828 136.067C137.866 135.957 137.919 135.853 137.986 135.759C138.145 135.488 138.319 135.226 138.507 134.974C139.125 134.139 139.843 133.383 140.645 132.723C141.448 132.064 142.33 131.507 143.27 131.064C143.553 130.929 143.844 130.809 144.14 130.704C144.245 130.652 144.357 130.616 144.472 130.598Z" fill="#455A64"/>
<path d="M124.826 120.506C124.865 120.471 124.908 120.439 124.953 120.411L125.34 120.157L126.837 119.191L132.207 119.153H132.265V119.211L132.443 120.047L132.464 120.15H132.358C132.018 120.087 131.667 120.157 131.378 120.345C131.272 120.383 131.494 120.517 131.652 120.572C131.832 120.636 132.015 120.691 132.2 120.736C132.568 120.858 132.958 120.893 133.341 120.839C133.718 120.717 134.033 120.453 134.218 120.102L134.266 120.02L134.342 120.068C134.445 120.138 134.563 120.182 134.687 120.195C134.811 120.208 134.936 120.19 135.051 120.143C135.302 120.035 135.52 119.864 135.685 119.646L135.733 119.585L135.805 119.626C135.885 119.685 135.98 119.719 136.079 119.725C136.182 119.722 136.282 119.69 136.367 119.633C136.556 119.502 136.713 119.33 136.826 119.129L136.884 119.026L136.967 119.112C137.227 119.386 137.507 119.641 137.803 119.876C137.952 119.994 138.114 120.095 138.286 120.178C138.463 120.242 138.649 120.276 138.838 120.277C139.067 120.284 139.296 120.269 139.523 120.232L139.465 120.373C138.502 119.002 137.566 117.659 136.669 116.405L136.041 115.469L135.874 115.25C135.825 115.183 135.771 115.12 135.712 115.062C135.636 115.041 135.558 115.028 135.479 115.024H135.212C134.496 115.024 133.797 115.079 133.132 115.127C130.466 115.342 128.266 115.593 126.759 115.754L124.963 116.124L124.497 116.213C124.444 116.227 124.39 116.234 124.336 116.233L124.49 116.189L124.953 116.079L126.741 115.671C128.246 115.486 130.446 115.216 133.115 114.986C133.783 114.935 134.486 114.876 135.209 114.873C135.298 114.873 135.39 114.873 135.486 114.873C135.591 114.873 135.694 114.893 135.791 114.931C135.869 114.998 135.938 115.074 135.997 115.157L136.168 115.38C136.388 115.682 136.614 115.99 136.854 116.299C137.755 117.549 138.69 118.882 139.657 120.263L139.735 120.38L139.598 120.404C139.355 120.441 139.108 120.456 138.862 120.448C138.651 120.448 138.441 120.408 138.245 120.332C138.06 120.246 137.886 120.137 137.727 120.01C137.422 119.769 137.135 119.506 136.867 119.225L137.011 119.208C136.884 119.435 136.705 119.63 136.49 119.777C136.375 119.849 136.243 119.89 136.107 119.893C135.972 119.887 135.842 119.842 135.733 119.763L135.856 119.742C135.671 119.976 135.427 120.156 135.15 120.267C135.009 120.323 134.857 120.344 134.706 120.328C134.554 120.312 134.41 120.259 134.284 120.174L134.407 120.14C134.197 120.532 133.843 120.826 133.42 120.962C133.21 121.008 132.993 121.008 132.783 120.962C132.584 120.928 132.389 120.887 132.197 120.839C132.005 120.794 131.816 120.737 131.631 120.668C131.535 120.631 131.443 120.584 131.357 120.527C131.303 120.493 131.261 120.442 131.237 120.383C131.228 120.346 131.229 120.307 131.241 120.27C131.253 120.234 131.276 120.201 131.306 120.178C131.463 120.051 131.653 119.973 131.854 119.951C132.041 119.927 132.229 119.927 132.416 119.951L132.33 120.04C132.272 119.749 132.214 119.461 132.159 119.204L132.231 119.263H126.861H126.885L125.367 120.191L124.966 120.428C124.922 120.458 124.875 120.484 124.826 120.506Z" fill="#664D42"/>
<path d="M148.099 135.132C148.083 135.073 148.075 135.011 148.075 134.95C148.075 134.81 148.058 134.635 148.045 134.422C148.024 133.943 147.997 133.285 147.966 132.49C147.935 131.695 147.904 130.691 147.87 129.618C147.846 129.08 147.849 128.505 147.805 127.925C147.753 127.326 147.648 126.732 147.493 126.15C147.415 125.857 147.315 125.569 147.195 125.29C147.074 125.027 146.907 124.788 146.701 124.584C146.307 124.191 145.842 123.876 145.331 123.656C144.871 123.45 144.377 123.328 143.874 123.296C143.432 123.27 142.988 123.27 142.545 123.296C141.729 123.341 141.071 123.409 140.616 123.447L140.091 123.484C140.03 123.492 139.968 123.492 139.906 123.484C139.965 123.463 140.026 123.45 140.088 123.447L140.609 123.375C141.061 123.317 141.719 123.231 142.538 123.166C142.985 123.129 143.433 123.118 143.881 123.132C144.404 123.16 144.917 123.281 145.396 123.491C145.928 123.717 146.413 124.041 146.825 124.447C147.045 124.667 147.224 124.923 147.356 125.205C147.479 125.493 147.581 125.789 147.661 126.092C147.821 126.683 147.927 127.288 147.976 127.898C148.017 128.494 148.014 129.056 148.031 129.611C148.051 130.687 148.072 131.667 148.089 132.486C148.106 133.305 148.089 133.939 148.11 134.422V134.95C148.114 135.011 148.111 135.072 148.099 135.132Z" fill="#455A64"/>
<path d="M127.054 124.19L141.069 121.682L150.88 106.389L160.509 108.404L151.459 122.302L126.102 125.468C126.067 125.174 126.147 124.878 126.324 124.64C126.501 124.402 126.762 124.242 127.054 124.19Z" fill="#455A64"/>
<path d="M151.293 114.805C150.998 115.205 150.95 115.678 151.201 115.853C151.451 116.028 151.886 115.853 152.17 115.445C152.455 115.038 152.513 114.575 152.263 114.397C152.013 114.219 151.584 114.404 151.293 114.805Z" fill="white"/>
</svg>
