<svg width="24" height="25" viewBox="0 0 24 25" fill="none" xmlns="http://www.w3.org/2000/svg">
<path d="M4 5.5C4 5.23478 4.10536 4.98043 4.29289 4.79289C4.48043 4.60536 4.73478 4.5 5 4.5H9C9.26522 4.5 9.51957 4.60536 9.70711 4.79289C9.89464 4.98043 10 5.23478 10 5.5V10.5C10 10.7652 9.89464 11.0196 9.70711 11.2071C9.51957 11.3946 9.26522 11.5 9 11.5H5C4.73478 11.5 4.48043 11.3946 4.29289 11.2071C4.10536 11.0196 4 10.7652 4 10.5V5.5ZM14 5.5C14 5.23478 14.1054 4.98043 14.2929 4.79289C14.4804 4.60536 14.7348 4.5 15 4.5H19C19.2652 4.5 19.5196 4.60536 19.7071 4.79289C19.8946 4.98043 20 5.23478 20 5.5V7.5C20 7.76522 19.8946 8.01957 19.7071 8.20711C19.5196 8.39464 19.2652 8.5 19 8.5H15C14.7348 8.5 14.4804 8.39464 14.2929 8.20711C14.1054 8.01957 14 7.76522 14 7.5V5.5ZM4 16.5C4 16.2348 4.10536 15.9804 4.29289 15.7929C4.48043 15.6054 4.73478 15.5 5 15.5H9C9.26522 15.5 9.51957 15.6054 9.70711 15.7929C9.89464 15.9804 10 16.2348 10 16.5V19.5C10 19.7652 9.89464 20.0196 9.70711 20.2071C9.51957 20.3946 9.26522 20.5 9 20.5H5C4.73478 20.5 4.48043 20.3946 4.29289 20.2071C4.10536 20.0196 4 19.7652 4 19.5V16.5ZM14 13.5C14 13.2348 14.1054 12.9804 14.2929 12.7929C14.4804 12.6054 14.7348 12.5 15 12.5H19C19.2652 12.5 19.5196 12.6054 19.7071 12.7929C19.8946 12.9804 20 13.2348 20 13.5V19.5C20 19.7652 19.8946 20.0196 19.7071 20.2071C19.5196 20.3946 19.2652 20.5 19 20.5H15C14.7348 20.5 14.4804 20.3946 14.2929 20.2071C14.1054 20.0196 14 19.7652 14 19.5V13.5Z" stroke="#F7F7F7" stroke-width="2"/>
</svg>
