<svg width="16" height="20" viewBox="0 0 16 20" fill="none" xmlns="http://www.w3.org/2000/svg">
<path d="M6 19H13C14.1046 19 15 18.1046 15 17V7.41421C15 7.149 14.8946 6.89464 14.7071 6.70711L9.29289 1.29289C9.10536 1.10536 8.851 1 8.58579 1H3C1.89543 1 1 1.89543 1 3V14M1 19L5.87868 14.1213M5.87868 14.1213C6.42157 14.6642 7.17157 15 8 15C9.65685 15 11 13.6569 11 12C11 10.3431 9.65685 9 8 9C6.34315 9 5 10.3431 5 12C5 12.8284 5.33579 13.5784 5.87868 14.1213Z" stroke="#008080" stroke-width="2" stroke-linecap="round"/>
</svg>
