<svg width="18" height="18" viewBox="0 0 18 18" fill="none" xmlns="http://www.w3.org/2000/svg">
<path d="M1.50146 3.52875V6.75C1.50145 7.35946 1.62523 7.96257 1.86531 8.52276C2.10539 9.08294 2.45676 9.58852 2.89811 10.0088C3.33945 10.4291 3.86158 10.7554 4.43281 10.9679C5.00404 11.1803 5.61248 11.2745 6.22122 11.2448C6.41624 11.8989 6.73698 12.5088 7.16546 13.0402L5.41796 14.787C5.3186 14.8936 5.26451 15.0347 5.26708 15.1804C5.26965 15.3261 5.32869 15.4652 5.43175 15.5682C5.53481 15.6713 5.67385 15.7303 5.81957 15.7329C5.9653 15.7355 6.10633 15.6814 6.21297 15.582L7.96047 13.8353C8.73169 14.4564 9.66287 14.8466 10.6465 14.9611C11.6301 15.0755 12.626 14.9093 13.5192 14.4818C14.4124 14.0543 15.1664 13.3829 15.6943 12.5451C16.2221 11.7073 16.5022 10.7372 16.5022 9.747V5.811C16.5022 5.4629 16.3639 5.12906 16.1178 4.88292C15.8716 4.63678 15.5378 4.4985 15.1897 4.4985H11.253C10.8157 4.4985 10.3905 4.55175 9.98396 4.65225C9.60187 3.92711 9.02898 3.32009 8.32712 2.89674C7.62527 2.47338 6.82112 2.24975 6.00146 2.25H2.78021C2.07446 2.25 1.50146 2.82225 1.50146 3.52875ZM8.76297 13.0343L11.835 9.96375C11.9343 9.85712 11.9884 9.71608 11.9858 9.57036C11.9833 9.42463 11.9242 9.28559 11.8212 9.18253C11.7181 9.07947 11.5791 9.02044 11.4334 9.01787C11.2876 9.0153 11.1466 9.06939 11.04 9.16875L7.96722 12.2393C7.50343 11.6275 7.21961 10.8984 7.14771 10.134C7.07581 9.36967 7.21868 8.60044 7.56023 7.91288C7.90179 7.22533 8.42847 6.64676 9.081 6.24229C9.73353 5.83783 10.486 5.62352 11.2537 5.6235H15.1897C15.2394 5.6235 15.2871 5.64325 15.3223 5.67842C15.3575 5.71358 15.3772 5.76127 15.3772 5.811V9.747C15.3772 10.5147 15.163 11.2671 14.7586 11.9196C14.3542 12.5721 13.7758 13.0988 13.0883 13.4404C12.4009 13.782 11.6317 13.925 10.8674 13.8533C10.1032 13.7815 9.37406 13.4979 8.76221 13.0343M6.00146 3.375C7.24422 3.375 8.33021 4.04625 8.91596 5.046C8.09386 5.45621 7.39322 6.07412 6.88347 6.8385L5.45997 5.415C5.35333 5.31564 5.2123 5.26155 5.06657 5.26412C4.92085 5.26669 4.78181 5.32572 4.67875 5.42878C4.57569 5.53184 4.51665 5.67088 4.51408 5.81661C4.51151 5.96233 4.5656 6.10337 4.66496 6.21L6.34271 7.8885C6.07339 8.60158 5.96257 9.36476 6.01797 10.125H6.00146C5.10636 10.125 4.24791 9.76942 3.61498 9.13649C2.98204 8.50355 2.62646 7.64511 2.62646 6.75V3.52875C2.62646 3.444 2.69546 3.375 2.78021 3.375H6.00146Z" fill="#34C759"/>
</svg>
