<svg width="44" height="44" viewBox="0 0 44 44" fill="none" xmlns="http://www.w3.org/2000/svg">
<path d="M32.5508 25.6666C33.9808 25.6666 35.2403 26.3944 35.9792 27.4999H24.75C23.7178 27.4999 22.7663 27.8409 22 28.4166H11.4638C11.0992 28.4166 10.7494 28.5615 10.4916 28.8193C10.2337 29.0772 10.0888 29.4269 10.0888 29.7916V30.8494C10.0888 31.8303 10.4408 32.7799 11.0788 33.5261C13.0863 35.8783 16.0912 37.2221 20.1667 37.5228V39.4166C20.1667 39.7136 20.1942 40.0021 20.2492 40.2819C15.3413 39.9721 11.5592 38.3276 8.987 35.3136C7.92437 34.0689 7.34061 32.486 7.34067 30.8494V29.7898C7.34115 28.6964 7.77571 27.6479 8.54885 26.8748C9.32199 26.1017 10.3705 25.6671 11.4638 25.6666H32.5508ZM22 3.67578C23.2038 3.67578 24.3958 3.91288 25.5079 4.37355C26.6201 4.83422 27.6306 5.50943 28.4818 6.36064C29.333 7.21184 30.0082 8.22236 30.4689 9.33452C30.9296 10.4467 31.1667 11.6387 31.1667 12.8424C31.1667 14.0462 30.9296 15.2382 30.4689 16.3504C30.0082 17.4625 29.333 18.4731 28.4818 19.3243C27.6306 20.1755 26.6201 20.8507 25.5079 21.3113C24.3958 21.772 23.2038 22.0091 22 22.0091C19.5688 22.0091 17.2373 21.0433 15.5182 19.3243C13.7991 17.6052 12.8333 15.2736 12.8333 12.8424C12.8333 10.4113 13.7991 8.07972 15.5182 6.36064C17.2373 4.64155 19.5688 3.67578 22 3.67578ZM22 6.42578C21.1574 6.42578 20.323 6.59175 19.5444 6.91422C18.7659 7.23669 18.0586 7.70934 17.4627 8.30518C16.8669 8.90102 16.3942 9.60839 16.0718 10.3869C15.7493 11.1654 15.5833 11.9998 15.5833 12.8424C15.5833 13.6851 15.7493 14.5195 16.0718 15.298C16.3942 16.0765 16.8669 16.7839 17.4627 17.3797C18.0586 17.9756 18.7659 18.4482 19.5444 18.7707C20.323 19.0931 21.1574 19.2591 22 19.2591C23.7018 19.2591 25.3339 18.5831 26.5373 17.3797C27.7406 16.1764 28.4167 14.5443 28.4167 12.8424C28.4167 11.1406 27.7406 9.50854 26.5373 8.30518C25.3339 7.10182 23.7018 6.42578 22 6.42578ZM22 32.0833C22 31.3539 22.2897 30.6545 22.8055 30.1387C23.3212 29.623 24.0207 29.3333 24.75 29.3333H39.4167C40.146 29.3333 40.8455 29.623 41.3612 30.1387C41.8769 30.6545 42.1667 31.3539 42.1667 32.0833V39.4166C42.1667 40.146 41.8769 40.8454 41.3612 41.3612C40.8455 41.8769 40.146 42.1666 39.4167 42.1666H24.75C24.0207 42.1666 23.3212 41.8769 22.8055 41.3612C22.2897 40.8454 22 40.146 22 39.4166V32.0833ZM40.3333 32.9999C39.8471 32.9999 39.3808 32.8068 39.037 32.463C38.6932 32.1192 38.5 31.6528 38.5 31.1666H36.6667C36.6667 32.1391 37.053 33.0717 37.7406 33.7593C38.4282 34.447 39.3609 34.8333 40.3333 34.8333V32.9999ZM40.3333 36.6666C39.3609 36.6666 38.4282 37.0529 37.7406 37.7406C37.053 38.4282 36.6667 39.3608 36.6667 40.3333H38.5C38.5 39.847 38.6932 39.3807 39.037 39.0369C39.3808 38.6931 39.8471 38.4999 40.3333 38.4999V36.6666ZM25.6667 31.1666C25.6667 31.6528 25.4735 32.1192 25.1297 32.463C24.7859 32.8068 24.3196 32.9999 23.8333 32.9999V34.8333C24.8058 34.8333 25.7384 34.447 26.4261 33.7593C27.1137 33.0717 27.5 32.1391 27.5 31.1666H25.6667ZM27.5 40.3333C27.5 39.3608 27.1137 38.4282 26.4261 37.7406C25.7384 37.0529 24.8058 36.6666 23.8333 36.6666V38.4999C24.3196 38.4999 24.7859 38.6931 25.1297 39.0369C25.4735 39.3807 25.6667 39.847 25.6667 40.3333H27.5ZM35.2917 35.7499C35.2917 34.899 34.9536 34.083 34.352 33.4813C33.7503 32.8796 32.9342 32.5416 32.0833 32.5416C31.2324 32.5416 30.4164 32.8796 29.8147 33.4813C29.213 34.083 28.875 34.899 28.875 35.7499C28.875 36.6008 29.213 37.4169 29.8147 38.0186C30.4164 38.6203 31.2324 38.9583 32.0833 38.9583C32.9342 38.9583 33.7503 38.6203 34.352 38.0186C34.9536 37.4169 35.2917 36.6008 35.2917 35.7499Z" fill="#008080"/>
</svg>
