<svg width="187" height="161" viewBox="0 0 187 161" fill="none" xmlns="http://www.w3.org/2000/svg">
<path d="M187 134.552H0V134.646H187V134.552Z" fill="#EBEBEB"/>
<path d="M168.262 140.585H155.875V140.678H168.262V140.585Z" fill="#EBEBEB"/>
<path d="M123.883 141.604H120.633V141.698H123.883V141.604Z" fill="#EBEBEB"/>
<path d="M155.505 137.105H148.328V137.199H155.505V137.105Z" fill="#EBEBEB"/>
<path d="M35.7702 137.735H19.6172V137.829H35.7702V137.735Z" fill="#EBEBEB"/>
<path d="M41.469 137.735H39.1016V137.829H41.469V137.735Z" fill="#EBEBEB"/>
<path d="M84.2082 139.317H49.1719V139.411H84.2082V139.317Z" fill="#EBEBEB"/>
<path d="M88.6365 117.83H16.4209C15.8551 117.829 15.3129 117.603 14.9132 117.202C14.5135 116.8 14.2891 116.256 14.2891 115.689V13.9214C14.294 13.3575 14.5206 12.8184 14.9198 12.421C15.3189 12.0237 15.8584 11.8003 16.4209 11.7993H88.6365C89.2029 11.7993 89.7461 12.0249 90.1466 12.4264C90.5471 12.8278 90.7721 13.3724 90.7721 13.9402V115.689C90.7721 116.257 90.5471 116.801 90.1466 117.203C89.7461 117.604 89.2029 117.83 88.6365 117.83ZM16.4209 11.8743C15.8799 11.8753 15.3615 12.0914 14.9793 12.4752C14.5972 12.859 14.3826 13.3791 14.3826 13.9214V115.689C14.3826 116.231 14.5972 116.751 14.9793 117.135C15.3615 117.519 15.8799 117.735 16.4209 117.736H88.6365C89.1778 117.735 89.6966 117.519 90.0794 117.136C90.4621 116.752 90.6776 116.232 90.6786 115.689V13.9214C90.6776 13.3788 90.4621 12.8587 90.0794 12.475C89.6966 12.0913 89.1778 11.8753 88.6365 11.8743H16.4209Z" fill="#EBEBEB"/>
<path d="M169.542 117.83H97.323C96.757 117.829 96.2144 117.603 95.8141 117.202C95.4138 116.801 95.1885 116.257 95.1875 115.689V13.9214C95.1934 13.3572 95.4209 12.818 95.8206 12.4208C96.2204 12.0236 96.7602 11.8003 97.323 11.7993H169.542C170.104 11.8013 170.643 12.0251 171.041 12.4224C171.439 12.8196 171.666 13.3582 171.671 13.9214V115.689C171.671 116.256 171.447 116.799 171.048 117.2C170.649 117.602 170.108 117.828 169.542 117.83ZM97.323 11.8743C96.7818 11.8753 96.2629 12.0913 95.8802 12.475C95.4974 12.8587 95.282 13.3788 95.281 13.9214V115.689C95.282 116.232 95.4974 116.752 95.8802 117.136C96.2629 117.519 96.7818 117.735 97.323 117.736H169.542C170.084 117.735 170.603 117.519 170.985 117.136C171.368 116.752 171.583 116.232 171.584 115.689V13.9214C171.583 13.3788 171.368 12.8587 170.985 12.475C170.603 12.0913 170.084 11.8753 169.542 11.8743H97.323Z" fill="#EBEBEB"/>
<path d="M61.5225 15.8299H34.875V106.455H61.5225V15.8299Z" fill="#FAFAFA"/>
<path d="M57.5451 15.8299H55.9892L46.6953 106.455H48.2512L57.5451 15.8299Z" fill="#F5F5F5"/>
<path d="M61.0514 16.1785H34.7031V16.9771H61.0514V16.1785Z" fill="#E0E0E0"/>
<path d="M61.0514 105.66H34.7031V107.369H61.0514V105.66Z" fill="#EBEBEB"/>
<path d="M60.6159 107.294H35.7188V107.369H60.6159V107.294Z" fill="#EBEBEB"/>
<path d="M35.711 16.1785H60.6082V107.294H62.1005V15.0575H34.2188V107.294H35.711V16.1785Z" fill="#EBEBEB"/>
<path d="M91.1788 15.8299H64.5312V106.455H91.1788V15.8299Z" fill="#FAFAFA"/>
<path d="M83.7796 15.8299H75.2861L65.9922 106.455H74.4857L83.7796 15.8299Z" fill="#F5F5F5"/>
<path d="M91.4479 16.1785H64.3516V16.9771H91.4479V16.1785Z" fill="#E0E0E0"/>
<path d="M91.4479 105.66H64.3516V107.369H91.4479V105.66Z" fill="#EBEBEB"/>
<path d="M90.2644 107.294H65.3672V107.369H90.2644V107.294Z" fill="#EBEBEB"/>
<path d="M65.3673 16.1785H90.2644V107.294H91.753V15.0575H63.875V107.294H65.3673V16.1785Z" fill="#EBEBEB"/>
<path d="M120.079 15.8299H94.1797V106.455H120.079V15.8299Z" fill="#FAFAFA"/>
<path d="M108.85 15.8298H107.294L98 106.455H99.5558L108.85 15.8298Z" fill="#F5F5F5"/>
<path d="M120.356 16.1785H94.0078V16.9771H120.356V16.1785Z" fill="#E0E0E0"/>
<path d="M120.356 105.66H94.0078V107.369H120.356V105.66Z" fill="#EBEBEB"/>
<path d="M119.921 107.294H95.0234V107.369H119.921V107.294Z" fill="#EBEBEB"/>
<path d="M95.0157 16.1785H119.909V107.294H121.401V15.0575H93.5234V107.294H95.0157V16.1785Z" fill="#EBEBEB"/>
<path d="M150.476 15.8299H123.828V106.455H150.476V15.8299Z" fill="#FAFAFA"/>
<path d="M147.877 15.8299H139.384L130.086 106.455H138.583L147.877 15.8299Z" fill="#F5F5F5"/>
<path d="M150.005 16.1785H123.656V16.9771H150.005V16.1785Z" fill="#E0E0E0"/>
<path d="M150.005 105.66H123.656V107.369H150.005V105.66Z" fill="#EBEBEB"/>
<path d="M124.668 16.1785H149.565V107.294H151.058V15.0575H123.18V107.294H124.668V16.1785Z" fill="#EBEBEB"/>
<path d="M149.569 107.294H124.672V107.369H149.569V107.294Z" fill="#EBEBEB"/>
<path d="M55.1459 85.6083H43.5781V105.663H55.1459V85.6083Z" fill="#EBEBEB"/>
<path d="M52.9216 82.8038V87.8354H52.0128H46.7094H45.7969V82.8038H52.9216Z" fill="#EBEBEB"/>
<path d="M52.9174 87.8354H54.3984V86.3507H52.9174V87.8354Z" fill="#FAFAFA"/>
<path d="M50.058 87.8354H51.5391V86.3507H50.058V87.8354Z" fill="#FAFAFA"/>
<path d="M47.183 87.8354H48.6641V86.3507H47.183V87.8354Z" fill="#FAFAFA"/>
<path d="M44.3158 87.8354H45.7969V86.3507H44.3158V87.8354Z" fill="#F0F0F0"/>
<path d="M52.9174 90.5312H54.3984V89.0465H52.9174V90.5312Z" fill="#F0F0F0"/>
<path d="M50.058 90.5312H51.5391V89.0465H50.058V90.5312Z" fill="#F0F0F0"/>
<path d="M47.183 90.5312H48.6641V89.0465H47.183V90.5312Z" fill="#FAFAFA"/>
<path d="M44.3158 90.5312H45.7969V89.0465H44.3158V90.5312Z" fill="#FAFAFA"/>
<path d="M52.9174 93.2307H54.3984V91.746H52.9174V93.2307Z" fill="#F0F0F0"/>
<path d="M50.058 93.2307H51.5391V91.746H50.058V93.2307Z" fill="#FAFAFA"/>
<path d="M47.183 93.2307H48.6641V91.746H47.183V93.2307Z" fill="#FAFAFA"/>
<path d="M50.058 85.5034H51.5391V84.0186H50.058V85.5034Z" fill="#FAFAFA"/>
<path d="M47.183 85.5034H48.6641V84.0186H47.183V85.5034Z" fill="#F0F0F0"/>
<path d="M44.3158 93.2307H45.7969V91.746H44.3158V93.2307Z" fill="#F0F0F0"/>
<path d="M52.9174 95.9302H54.3984V94.4454H52.9174V95.9302Z" fill="#FAFAFA"/>
<path d="M50.058 95.9302H51.5391V94.4454H50.058V95.9302Z" fill="#F0F0F0"/>
<path d="M47.183 95.9302H48.6641V94.4454H47.183V95.9302Z" fill="#F0F0F0"/>
<path d="M44.3158 95.9302H45.7969V94.4454H44.3158V95.9302Z" fill="#FAFAFA"/>
<path d="M52.9174 98.6297H54.3984V97.145H52.9174V98.6297Z" fill="#F0F0F0"/>
<path d="M50.058 98.6297H51.5391V97.145H50.058V98.6297Z" fill="#FAFAFA"/>
<path d="M47.183 98.6297H48.6641V97.145H47.183V98.6297Z" fill="#FAFAFA"/>
<path d="M44.3158 98.6297H45.7969V97.145H44.3158V98.6297Z" fill="#F0F0F0"/>
<path d="M52.9174 101.325H54.3984V99.8407H52.9174V101.325Z" fill="#F0F0F0"/>
<path d="M50.058 101.325H51.5391V99.8407H50.058V101.325Z" fill="#FAFAFA"/>
<path d="M47.183 101.325H48.6641V99.8407H47.183V101.325Z" fill="#F0F0F0"/>
<path d="M44.3158 101.325H45.7969V99.8407H44.3158V101.325Z" fill="#FAFAFA"/>
<path d="M52.9174 104.025H54.3984V102.54H52.9174V104.025Z" fill="#FAFAFA"/>
<path d="M50.058 104.025H51.5391V102.54H50.058V104.025Z" fill="#FAFAFA"/>
<path d="M47.183 104.025H48.6641V102.54H47.183V104.025Z" fill="#F0F0F0"/>
<path d="M44.3158 104.025H45.7969V102.54H44.3158V104.025Z" fill="#F0F0F0"/>
<path d="M136.637 92.912H126.273V105.66H136.637V92.912Z" fill="#F0F0F0"/>
<path d="M127.18 94.3293H129.588H130.254H130.916V95.6565H130.254H129.588H127.18V94.3293Z" fill="#E6E6E6"/>
<path d="M127.18 96.905H129.588H130.254H130.916V98.236H130.254H129.588H127.18V96.905Z" fill="#FAFAFA"/>
<path d="M127.18 99.4808H129.588H130.254H130.916V100.812H130.254H129.588H127.18V99.4808Z" fill="#E6E6E6"/>
<path d="M127.18 102.057H129.588H130.613H130.916V103.388H130.613H129.588H127.18V102.057Z" fill="#FAFAFA"/>
<path d="M132 94.3293H134.412H135.074H135.736V95.6565H135.074H134.412H132V94.3293Z" fill="#FAFAFA"/>
<path d="M132 96.905H134.412H135.347H135.736V98.236H135.347H134.412H132V96.905Z" fill="#FAFAFA"/>
<path d="M132 99.4808H134.412H135.074H135.736V100.812H135.074H134.412H132V99.4808Z" fill="#E6E6E6"/>
<path d="M132 102.057H134.412H135.074H135.736V103.388H135.074H134.412H132V102.057Z" fill="#FAFAFA"/>
<path d="M86.6986 97.7411H77.2812V105.663H86.6986V97.7411Z" fill="#F0F0F0"/>
<path d="M84.8895 99.9382H86.0938V98.731H84.8895V99.9382Z" fill="#FAFAFA"/>
<path d="M82.5613 99.9382H83.7656V98.731H82.5613V99.9382Z" fill="#FAFAFA"/>
<path d="M80.2176 99.9382H81.4219V98.731H80.2176V99.9382Z" fill="#FAFAFA"/>
<path d="M77.8817 99.9382H79.0859V98.731H77.8817V99.9382Z" fill="#FAFAFA"/>
<path d="M84.8895 102.132H86.0938V100.924H84.8895V102.132Z" fill="#FAFAFA"/>
<path d="M82.5613 102.132H83.7656V100.924H82.5613V102.132Z" fill="#FAFAFA"/>
<path d="M80.2176 102.132H81.4219V100.924H80.2176V102.132Z" fill="#FAFAFA"/>
<path d="M77.8817 102.132H79.0859V100.924H77.8817V102.132Z" fill="#E6E6E6"/>
<path d="M84.8895 104.329H86.0938V103.121H84.8895V104.329Z" fill="#E6E6E6"/>
<path d="M82.5613 104.329H83.7656V103.121H82.5613V104.329Z" fill="#E6E6E6"/>
<path d="M80.2176 104.329H81.4219V103.121H80.2176V104.329Z" fill="#FAFAFA"/>
<path d="M77.8817 104.329H79.0859V103.121H77.8817V104.329Z" fill="#E6E6E6"/>
<path d="M76.0033 91.8847H66.5859V105.663H76.0033V91.8847Z" fill="#F0F0F0"/>
<path d="M75.4012 92.4883H71.8594V95.8927H75.4012V92.4883Z" fill="#FAFAFA"/>
<path d="M70.7293 92.4883H67.1875V95.8927H70.7293V92.4883Z" fill="#FAFAFA"/>
<path d="M75.4012 96.8787H71.8594V100.283H75.4012V96.8787Z" fill="#FAFAFA"/>
<path d="M70.7293 96.8787H67.1875V100.283H70.7293V96.8787Z" fill="#FAFAFA"/>
<path d="M75.4012 101.269H71.8594V104.674H75.4012V101.269Z" fill="#FAFAFA"/>
<path d="M70.7293 101.269H67.1875V104.674H70.7293V101.269Z" fill="#FAFAFA"/>
<path d="M93.4992 151.484C133.548 151.484 166.014 149.584 166.014 147.24C166.014 144.896 133.548 142.995 93.4992 142.995C53.4504 142.995 20.9844 144.896 20.9844 147.24C20.9844 149.584 53.4504 151.484 93.4992 151.484Z" fill="#F5F5F5"/>
<path d="M166.271 21.0264V103.601L156.36 113.537H98.9844V21.0264H166.271Z" fill="#008080"/>
<path opacity="0.8" d="M166.271 21.0264V103.601L156.36 113.537H98.9844V21.0264H166.271Z" fill="white"/>
<path opacity="0.2" d="M156.359 113.537V103.894H166.27L156.554 113.634" fill="black"/>
<path opacity="0.1" d="M124.448 29.0461H105.89C105.629 29.0461 105.379 28.9423 105.194 28.7573C105.01 28.5724 104.906 28.3216 104.906 28.0601C104.906 27.9303 104.931 27.8016 104.98 27.6816C105.029 27.5615 105.102 27.4523 105.193 27.3604C105.284 27.2684 105.393 27.1955 105.513 27.1457C105.632 27.0959 105.76 27.0703 105.89 27.0703H124.448C124.709 27.0712 124.959 27.176 125.144 27.3615C125.328 27.547 125.431 27.7982 125.431 28.0601C125.431 28.3216 125.328 28.5724 125.143 28.7573C124.959 28.9423 124.709 29.0461 124.448 29.0461Z" fill="black"/>
<path opacity="0.1" d="M158.104 37.0472H113.366C113.237 37.0472 113.109 37.0215 112.989 36.9718C112.87 36.922 112.761 36.849 112.67 36.757C112.578 36.6651 112.506 36.5559 112.457 36.4359C112.407 36.3158 112.382 36.1872 112.383 36.0574C112.383 35.7958 112.486 35.545 112.671 35.3601C112.855 35.1752 113.106 35.0713 113.366 35.0713H158.104C158.365 35.0713 158.615 35.1752 158.8 35.3601C158.984 35.545 159.088 35.7958 159.088 36.0574C159.088 36.3192 158.984 36.5704 158.8 36.7559C158.616 36.9415 158.366 37.0462 158.104 37.0472Z" fill="black"/>
<path opacity="0.1" d="M158.108 40.9352H105.89C105.629 40.9352 105.379 40.8314 105.194 40.6464C105.01 40.4615 104.906 40.2107 104.906 39.9492C104.906 39.8194 104.931 39.6907 104.98 39.5707C105.029 39.4506 105.102 39.3414 105.193 39.2495C105.284 39.1575 105.393 39.0846 105.513 39.0348C105.632 38.985 105.76 38.9593 105.89 38.9594H158.108C158.369 38.9603 158.619 39.0651 158.804 39.2506C158.988 39.4361 159.091 39.6873 159.091 39.9492C159.091 40.2107 158.988 40.4615 158.803 40.6464C158.619 40.8314 158.369 40.9352 158.108 40.9352Z" fill="black"/>
<path opacity="0.1" d="M158.108 45.3295H105.89C105.76 45.3295 105.632 45.3038 105.513 45.254C105.393 45.2043 105.284 45.1313 105.193 45.0393C105.102 44.9474 105.029 44.8382 104.98 44.7181C104.931 44.5981 104.906 44.4695 104.906 44.3396C104.906 44.0781 105.01 43.8273 105.194 43.6424C105.379 43.4575 105.629 43.3536 105.89 43.3536H158.108C158.369 43.3536 158.619 43.4575 158.803 43.6424C158.988 43.8273 159.091 44.0781 159.091 44.3396C159.091 44.6015 158.988 44.8527 158.804 45.0382C158.619 45.2237 158.369 45.3285 158.108 45.3295Z" fill="black"/>
<path opacity="0.1" d="M158.108 49.7199H105.89C105.629 49.7199 105.379 49.616 105.194 49.4311C105.01 49.2461 104.906 48.9953 104.906 48.7338C104.906 48.4723 105.01 48.2215 105.194 48.0366C105.379 47.8516 105.629 47.7477 105.89 47.7477H158.108C158.369 47.7477 158.619 47.8516 158.803 48.0366C158.988 48.2215 159.091 48.4723 159.091 48.7338C159.091 48.9953 158.988 49.2461 158.803 49.4311C158.619 49.616 158.369 49.7199 158.108 49.7199Z" fill="black"/>
<path opacity="0.1" d="M158.108 54.1141H105.89C105.629 54.1141 105.379 54.0102 105.194 53.8253C105.01 53.6404 104.906 53.3896 104.906 53.128C104.906 52.9984 104.931 52.87 104.98 52.7501C105.029 52.6302 105.102 52.5213 105.193 52.4297C105.285 52.338 105.393 52.2654 105.513 52.216C105.632 52.1666 105.761 52.1415 105.89 52.142H158.108C158.369 52.142 158.619 52.2459 158.803 52.4308C158.988 52.6157 159.091 52.8665 159.091 53.128C159.091 53.3896 158.988 53.6404 158.803 53.8253C158.619 54.0102 158.369 54.1141 158.108 54.1141Z" fill="black"/>
<path opacity="0.1" d="M158.108 58.5082H105.89C105.629 58.5082 105.379 58.4044 105.194 58.2194C105.01 58.0345 104.906 57.7837 104.906 57.5222C104.906 57.3924 104.931 57.2637 104.98 57.1437C105.029 57.0236 105.102 56.9145 105.193 56.8225C105.284 56.7305 105.393 56.6576 105.513 56.6078C105.632 56.558 105.76 56.5323 105.89 56.5323H158.108C158.369 56.5333 158.619 56.6381 158.804 56.8236C158.988 57.0091 159.091 57.2603 159.091 57.5222C159.091 57.7837 158.988 58.0345 158.803 58.2194C158.619 58.4044 158.369 58.5082 158.108 58.5082Z" fill="black"/>
<path opacity="0.1" d="M158.111 60.9266H105.89C105.347 60.9266 104.906 61.3681 104.906 61.9126V61.9164C104.906 62.461 105.347 62.9025 105.89 62.9025H158.111C158.655 62.9025 159.095 62.461 159.095 61.9164V61.9126C159.095 61.3681 158.655 60.9266 158.111 60.9266Z" fill="black"/>
<path opacity="0.1" d="M158.108 67.2892H105.89C105.629 67.2892 105.379 67.1853 105.194 67.0003C105.01 66.8154 104.906 66.5646 104.906 66.3031C104.906 66.0416 105.01 65.7908 105.194 65.6058C105.379 65.4209 105.629 65.317 105.89 65.317H158.108C158.369 65.317 158.619 65.4209 158.803 65.6058C158.988 65.7908 159.091 66.0416 159.091 66.3031C159.091 66.5646 158.988 66.8154 158.803 67.0003C158.619 67.1853 158.369 67.2892 158.108 67.2892Z" fill="black"/>
<path opacity="0.1" d="M158.108 71.6871H105.89C105.629 71.6871 105.379 71.5832 105.194 71.3983C105.01 71.2134 104.906 70.9626 104.906 70.701C104.906 70.5714 104.931 70.443 104.98 70.3231C105.029 70.2032 105.102 70.0943 105.193 70.0027C105.285 69.911 105.393 69.8384 105.513 69.789C105.632 69.7396 105.761 69.7145 105.89 69.715H158.108C158.369 69.715 158.619 69.8189 158.803 70.0038C158.988 70.1887 159.091 70.4395 159.091 70.701C159.091 70.9626 158.988 71.2134 158.803 71.3983C158.619 71.5832 158.369 71.6871 158.108 71.6871Z" fill="black"/>
<path opacity="0.1" d="M158.108 76.0813H105.89C105.629 76.0813 105.379 75.9774 105.194 75.7925C105.01 75.6076 104.906 75.3568 104.906 75.0952C104.906 74.9654 104.931 74.8368 104.98 74.7167C105.029 74.5967 105.102 74.4875 105.193 74.3955C105.284 74.3036 105.393 74.2306 105.513 74.1808C105.632 74.131 105.76 74.1054 105.89 74.1054H158.108C158.369 74.1064 158.619 74.2111 158.804 74.3966C158.988 74.5822 159.091 74.8334 159.091 75.0952C159.091 75.3568 158.988 75.6076 158.803 75.7925C158.619 75.9774 158.369 76.0813 158.108 76.0813Z" fill="black"/>
<path opacity="0.1" d="M158.108 80.4755H105.89C105.76 80.4755 105.632 80.4499 105.513 80.4001C105.393 80.3503 105.284 80.2774 105.193 80.1854C105.102 80.0934 105.029 79.9843 104.98 79.8642C104.931 79.7441 104.906 79.6155 104.906 79.4857C104.906 79.2242 105.01 78.9734 105.194 78.7884C105.379 78.6035 105.629 78.4996 105.89 78.4996H158.108C158.369 78.4996 158.619 78.6035 158.803 78.7884C158.988 78.9734 159.091 79.2242 159.091 79.4857C159.091 79.7476 158.988 79.9988 158.804 80.1843C158.619 80.3698 158.369 80.4745 158.108 80.4755Z" fill="black"/>
<path opacity="0.1" d="M128.188 84.8659H105.89C105.629 84.8659 105.379 84.7621 105.194 84.5771C105.01 84.3922 104.906 84.1414 104.906 83.8799C104.906 83.6183 105.01 83.3675 105.194 83.1826C105.379 82.9977 105.629 82.8938 105.89 82.8938H128.188C128.449 82.8938 128.699 82.9977 128.883 83.1826C129.068 83.3675 129.171 83.6183 129.171 83.8799C129.171 84.1414 129.068 84.3922 128.883 84.5771C128.699 84.7621 128.449 84.8659 128.188 84.8659Z" fill="black"/>
<path d="M154.093 41.2615L154.022 41.2015C153.82 41.0477 153.704 41.1002 153.61 40.804C153.543 40.5903 153.61 40.3504 153.532 40.1292C153.354 39.7484 153.15 39.3801 152.922 39.0269L152.002 37.3659C151.797 36.9981 151.454 36.7269 151.05 36.6117C150.645 36.4964 150.212 36.5465 149.844 36.751L141.373 41.4827C141.339 41.7676 141.104 41.9626 141.055 42.2325C141.038 42.3123 141.043 42.3951 141.068 42.4726C141.093 42.5502 141.137 42.62 141.197 42.6749C141.102 42.6731 141.01 42.6402 140.935 42.5812C140.431 42.3 140.296 42.0751 139.776 42.36C139.552 42.48 139.331 42.6075 139.11 42.7349L136.866 43.991L129.835 47.9165L121.607 52.5206L114.752 56.3487C113.817 56.8699 112.683 57.3273 111.849 57.9909C112.081 58.1109 112.122 58.2946 111.917 58.4746L111.543 58.8157C111.543 58.9095 111.677 58.9095 111.763 58.872L112.227 58.6733C111.905 59.0834 111.517 59.4369 111.079 59.7193C110.344 60.1473 109.553 60.4728 108.73 60.6867L109.127 60.188C109.157 60.1468 109.194 60.0943 109.168 60.0455C109.142 59.9968 109.093 59.993 109.048 59.9893C108.85 59.9668 108.652 59.9893 108.506 59.8431C107.227 60.5929 105.888 61.3053 104.586 62.0327C104.219 62.2386 103.949 62.5819 103.834 62.9873C103.719 63.3928 103.769 63.8274 103.973 64.196L112.515 79.5682C112.616 79.7506 112.752 79.9111 112.915 80.0408C113.078 80.1704 113.265 80.2665 113.465 80.3236C113.665 80.3808 113.875 80.3977 114.081 80.3736C114.288 80.3495 114.488 80.2848 114.669 80.1831L116.917 78.9121C116.917 78.6459 117.127 78.3497 116.97 78.106C116.947 78.0764 116.933 78.0415 116.928 78.0047C116.928 77.956 116.973 77.9185 117.014 77.8923C117.245 77.7456 117.509 77.6604 117.781 77.6448C117.875 77.6448 117.998 77.6861 117.983 77.776C117.983 77.6936 118.466 77.5211 118.544 77.4948C118.581 77.6973 118.443 77.9148 118.679 77.956C118.914 77.9972 119.273 77.5811 119.427 77.5061L121.671 76.2501L128.777 72.287L136.571 67.9341L141.751 65.0396C141.938 64.9309 142.158 64.8034 142.338 64.7134C142.403 64.3696 142.57 64.0534 142.817 63.8061C143.191 63.5474 143.782 63.8323 144.092 63.4649C144.152 63.3937 144.189 63.3074 144.242 63.2324C144.346 63.1105 144.473 63.0099 144.616 62.9362C144.706 62.8651 144.815 62.822 144.93 62.8125C145.042 62.8125 145.162 62.9063 145.147 63.0187C145.917 62.8388 146.613 62.3176 147.293 61.9314C147.54 61.7927 149.706 60.7729 149.698 60.6117C149.668 60.113 149.971 59.6856 149.956 59.1719C149.956 59.0745 149.766 58.4221 149.852 58.3733C147.907 59.5356 145.887 60.5929 143.905 61.6952C143.838 61.7365 143.583 61.8227 143.531 61.8977C143.531 61.8977 143.512 61.9314 143.505 61.9502L143.449 62.0739V62.1039C143.368 62.3591 143.273 62.6094 143.164 62.8538C143.164 62.8875 142.742 63.4124 142.708 63.2887C142.544 62.685 142.334 62.5913 141.874 62.8388L141.216 63.2137L139.125 64.3797L132.083 68.3165L123.784 72.9507L116.869 76.8125L113.97 78.4284C113.392 77.3786 112.809 76.3301 112.223 75.2827L111.101 73.2619C110.988 72.9817 110.82 72.7268 110.608 72.512C110.447 72.392 110.174 72.422 110.032 72.3133C109.684 72.0471 109.433 71.5634 109.104 71.2522C108.88 71.0423 108.54 70.4124 108.633 70.0637C108.745 70.1087 108.857 70.1574 108.97 70.1912C108.911 69.9603 108.924 69.717 109.007 69.4938C107.885 67.6004 106.853 65.6208 105.779 63.6861L105.708 63.5624L108.326 62.1002L110.238 61.0316C110.631 60.8622 111.006 60.655 111.36 60.413C111.603 60.203 111.849 59.9405 112.108 59.7156C112.281 59.5835 112.469 59.4728 112.669 59.3856L113.375 59.0407C113.412 59.0188 113.453 59.006 113.495 59.0032C113.537 59.0078 113.579 59.0179 113.618 59.0332C113.992 59.1119 114.92 58.4183 115.257 58.2309L117.433 57.0161L124.001 53.3455L132.184 48.7788L140.374 44.2009L146.964 40.5228L150.33 38.6482L150.487 38.5619L154.126 45.112C154.352 45.5535 154.712 45.911 155.155 46.1318C155.305 46.1806 155.473 46.2855 155.454 46.4393C155.435 46.593 155.211 46.7205 155.263 46.8779C155.316 47.0354 155.604 46.9754 155.671 47.1179C155.738 47.2604 155.555 47.4928 155.578 47.6878C155.655 47.9212 155.77 48.1403 155.918 48.3364L156.976 50.2448C157.567 51.3021 158.154 52.3632 158.749 53.4317L152.279 57.0461C152.311 57.0719 152.337 57.1038 152.357 57.1398L152.391 57.226C152.52 57.2717 152.645 57.3268 152.765 57.391C152.817 57.4199 152.859 57.4625 152.888 57.5141C152.917 57.5657 152.932 57.6243 152.93 57.6835C152.929 57.742 152.912 57.7992 152.882 57.8493C152.852 57.8994 152.809 57.9405 152.758 57.9684L152.361 58.1934C152.347 58.2803 152.307 58.3609 152.246 58.4245C152.185 58.4881 152.107 58.5317 152.021 58.5495C151.975 58.5534 151.928 58.5534 151.882 58.5495C151.843 58.5785 151.798 58.5985 151.75 58.6082C151.702 58.6179 151.653 58.6171 151.606 58.6058C151.521 58.5797 151.45 58.5218 151.406 58.4443C151.363 58.3668 151.352 58.2756 151.374 58.1896C151.389 58.151 151.409 58.1145 151.434 58.0809C151.405 58.0262 151.392 57.9649 151.396 57.9034C151.4 57.8419 151.421 57.7827 151.456 57.7322H151.336C151.269 57.7322 151.209 57.6947 151.146 57.676C150.809 57.8842 150.547 58.194 150.398 58.5608C150.381 58.5808 150.373 58.6063 150.375 58.632C150.375 58.6845 150.457 58.6883 150.506 58.7108C150.618 58.7633 150.592 58.9282 150.536 59.037C150.48 59.1457 150.413 59.2844 150.487 59.3819C150.516 59.4147 150.547 59.4448 150.581 59.4719C150.742 59.6556 150.495 60.188 150.888 59.9705C150.86 59.8547 150.877 59.7328 150.936 59.6294C151.003 59.525 151.105 59.4489 151.224 59.4156C151.515 59.3449 151.812 59.3022 152.111 59.2882L159.908 54.9165C160.275 54.7105 160.546 54.3672 160.661 53.9618C160.776 53.5563 160.726 53.1217 160.522 52.7531L160.477 52.6744L156.954 46.3343L154.919 42.6674C154.721 42.3188 154.545 41.9551 154.328 41.6101C154.269 41.4821 154.189 41.3645 154.093 41.2615Z" fill="#008080"/>
<path d="M118.056 61.9764C117.798 61.6614 117.877 61.6539 117.828 61.3165C117.828 61.3165 117.828 61.3165 117.828 61.294L117.798 61.2602L117.753 61.2077C117.577 61.2865 117.402 61.3727 117.226 61.4702L113.781 63.3936L115.169 65.8869C114.974 65.542 115.662 65.6432 115.689 65.6394C115.762 65.6179 115.837 65.6053 115.913 65.6019C115.988 65.6179 116.053 65.6622 116.096 65.7257C116.24 65.9778 116.283 66.2754 116.216 66.558C116.175 66.933 116.373 67.3079 116.16 67.6828C116.343 67.9828 118 71.0047 118.007 71.001L121.452 69.0776C121.65 68.9651 122.121 68.7664 122.237 68.5677C122.353 68.3689 122.17 68.0577 122.376 67.964C122.453 67.9355 122.536 67.9248 122.618 67.9326C122.701 67.9404 122.78 67.9665 122.851 68.009C123.507 67.3578 123.929 66.5067 124.05 65.5892C124.171 64.6717 123.985 63.7398 123.52 62.9399C122.552 61.1965 120.352 60.1579 118.426 60.9678C118.292 61.024 118.471 61.6277 118.15 61.6952C118.211 61.5743 118.299 61.4691 118.408 61.3877M120.554 67.6641L118.95 68.5602C118.819 68.3239 118.692 68.0877 118.557 67.859C118.726 68.144 118.262 68.054 118.165 67.9903C117.929 67.8328 117.865 67.3791 117.858 67.1242C117.852 66.687 117.722 66.2604 117.484 65.8944C117.107 65.212 116.733 64.5296 116.362 63.8473L117.966 62.9512C119.462 62.1113 120.958 62.46 121.766 63.9148C122.574 65.3695 122.062 66.8355 120.554 67.6641Z" fill="#008080"/>
<path d="M129.448 55.5913C129.53 55.7694 129.553 55.9689 129.515 56.1612C129.496 56.2662 129.328 56.5361 129.351 56.6036C129.41 56.7536 129.47 56.9035 129.526 57.0535C129.536 57.0781 129.55 57.1008 129.567 57.121C129.596 57.1404 129.63 57.1508 129.665 57.151C130.259 57.2035 130.233 57.2635 130.271 57.7659C130.304 58.1971 130.675 58.4445 130.884 58.8195C131.165 59.3121 131.287 59.8799 131.234 60.445C131.18 61.01 130.953 61.5446 130.584 61.9752C130.216 62.4058 129.723 62.7114 129.174 62.8499C128.625 62.9884 128.046 62.953 127.518 62.7487C127.504 62.7623 127.489 62.7749 127.473 62.7862C127.394 62.8259 127.304 62.8365 127.219 62.8162C127.024 62.761 126.848 62.6542 126.709 62.507C126.571 62.3599 126.474 62.1778 126.43 61.9801C126.424 61.9504 126.424 61.9199 126.43 61.8901C126.324 61.7588 126.23 61.6183 126.149 61.4702C125.957 61.1604 125.831 60.8142 125.778 60.4532C125.725 60.0922 125.748 59.7242 125.844 59.3722C125.94 59.0203 126.107 58.692 126.335 58.4078C126.563 58.1237 126.848 57.8898 127.17 57.7209C127.638 57.4535 128.174 57.3309 128.711 57.3685L128.681 57.3235C128.359 56.8961 129.519 56.7236 128.995 56.4349C128.775 56.3149 128.812 55.7713 128.756 55.55C127.906 55.5693 127.075 55.7999 126.336 56.2212C123.943 57.5597 123.116 60.2104 124.373 62.4713C124.901 63.4439 125.776 64.1815 126.822 64.5372C127.068 64.6446 127.332 64.7056 127.6 64.7171C127.907 64.6909 127.757 64.7171 127.888 64.5334C128.019 64.3497 127.941 64.271 128.139 64.076C128.337 63.881 128.569 63.7648 128.61 63.4649C128.61 63.5998 128.76 63.6973 128.76 63.8398C128.76 63.881 128.76 63.9223 128.76 63.9598C128.768 64.0088 128.79 64.0544 128.823 64.091C128.95 64.2635 129.164 64.4659 129.167 64.6646C129.714 64.5736 130.24 64.3803 130.716 64.0947C133.098 62.7637 133.943 60.1167 132.679 57.8484C132.025 56.6898 130.794 55.6663 129.448 55.5913Z" fill="#008080"/>
<path d="M137.096 50.3723L139.662 54.9877L133.326 52.4756L131.875 53.2892C132.855 55.0514 133.895 56.7949 134.815 58.5908C134.878 58.3958 135.028 58.3583 135.207 58.3321C135.544 58.2871 135.533 58.4558 135.716 58.7895C135.738 58.8307 135.765 58.872 135.806 58.8795C135.847 58.887 135.929 58.8195 135.996 58.827C136.064 58.8345 136.09 58.917 136.071 58.9807C136.048 59.0431 136.016 59.1024 135.978 59.1569C135.869 59.3631 136.049 59.4944 136.026 59.6818C136.026 59.7793 135.701 60.1767 135.738 60.2442L136.112 60.8891L137.848 59.9218L137.384 59.0894H137.298C136.793 59.1569 137.017 58.4933 136.905 58.2196C136.724 57.8319 136.518 57.4562 136.288 57.0948L135.267 55.2914L140.417 57.3235C140.404 57.1752 140.422 57.0258 140.47 56.8848C140.511 56.8061 140.844 56.6599 140.844 56.5849C140.863 56.8267 140.976 57.0514 141.158 57.211C141.356 57.3872 141.356 57.361 141.318 57.6722L141.625 57.7959L143.069 56.9898L138.843 49.39L137.096 50.3723Z" fill="#008080"/>
<path d="M145.81 53.6154L144.83 51.857L148.354 49.8886L147.606 48.5201L144.086 50.4885L143.17 48.835L145.549 47.5078C145.649 47.3779 145.777 47.2717 145.923 47.1966C145.996 47.1585 146.082 47.1492 146.162 47.1703L147.168 46.6117C147.168 46.6117 146.454 45.3332 146.386 45.1982C146.042 45.3557 146.386 45.7906 146.038 46.0005C146.11 46.0755 146.214 46.3417 146.038 46.3755C145.937 46.3755 145.863 46.248 145.762 46.2592C145.661 46.2705 145.657 46.3192 145.605 46.3042C145.589 46.2997 145.574 46.2917 145.562 46.2806C145.549 46.2696 145.54 46.2558 145.534 46.2405C145.485 46.1274 145.424 46.0204 145.35 45.9218C145.115 45.6931 142.964 47.1291 142.665 47.2978L140.664 48.4226L144.887 56.0225L146.573 55.0814L146.607 55.0364C146.73 54.8789 146.85 54.7177 146.981 54.5715C147.034 54.5208 147.102 54.4887 147.175 54.4799C147.248 54.4712 147.321 54.4862 147.385 54.5227C147.415 54.5385 147.442 54.5602 147.463 54.5865L150.758 52.7456L149.973 51.3321L145.81 53.6154Z" fill="#008080"/>
<path d="M150.314 134.481C150.314 134.481 147.853 129.104 150.662 123.799C153.471 118.494 154.29 117.245 152.498 116.162C150.707 115.078 149.88 120.402 149.88 120.402C149.88 120.402 148.384 116.735 149.615 112.903C150.845 109.072 151.646 102.818 149.944 102.147C148.242 101.475 149.619 109.941 148.141 112.828C147.388 110.802 146.901 108.686 146.694 106.533C146.492 103.451 146.81 98.5322 145.463 97.2687C144.117 96.0052 143.261 96.8938 144.581 103.68C145.374 107.745 145.814 111.871 145.894 116.012C145.894 116.012 142.973 107.088 141.032 106.829C139.09 106.571 139.075 109.454 140.755 111.962C142.434 114.471 145.65 118.955 146.178 121.279C146.178 121.279 142.976 114.568 140.093 116.623C137.209 118.677 142.602 122.738 145.003 124.204C147.404 125.67 149.076 134.852 149.076 134.852L150.314 134.481Z" fill="#008080"/>
<path opacity="0.2" d="M150.314 134.481C150.314 134.481 147.853 129.104 150.662 123.799C153.471 118.494 154.29 117.245 152.498 116.162C150.707 115.078 149.88 120.402 149.88 120.402C149.88 120.402 148.384 116.735 149.615 112.903C150.845 109.072 151.646 102.818 149.944 102.147C148.242 101.475 149.619 109.941 148.141 112.828C147.388 110.802 146.901 108.686 146.694 106.533C146.492 103.451 146.81 98.5322 145.463 97.2687C144.117 96.0052 143.261 96.8938 144.581 103.68C145.374 107.745 145.814 111.871 145.894 116.012C145.894 116.012 142.973 107.088 141.032 106.829C139.09 106.571 139.075 109.454 140.755 111.962C142.434 114.471 145.65 118.955 146.178 121.279C146.178 121.279 142.976 114.568 140.093 116.623C137.209 118.677 142.602 122.738 145.003 124.204C147.404 125.67 149.076 134.852 149.076 134.852L150.314 134.481Z" fill="black"/>
<path d="M148.366 136.689C148.366 136.689 150.763 131.271 147.891 126.011C145.018 120.751 144.184 119.513 145.965 118.4C147.745 117.286 148.627 122.603 148.627 122.603C148.627 122.603 150.094 118.917 148.803 115.104C147.513 111.291 146.653 105.049 148.347 104.355C150.041 103.661 148.766 112.146 150.277 115.007C151.006 112.971 151.467 110.848 151.646 108.693C151.814 105.607 151.436 100.692 152.768 99.4096C154.099 98.1273 154.971 98.9896 153.729 105.81C152.985 109.884 152.595 114.015 152.566 118.156C152.566 118.156 155.378 109.192 157.334 108.903C159.29 108.614 159.32 111.501 157.675 114.032C156.029 116.563 152.85 121.099 152.345 123.405C152.345 123.405 155.468 116.656 158.374 118.662C161.28 120.668 155.939 124.811 153.557 126.311C151.174 127.811 149.6 137.026 149.6 137.026L148.366 136.689Z" fill="#008080"/>
<path d="M159.417 132.827H139.633L141.234 147.022H157.817L159.417 132.827Z" fill="#263238"/>
<path d="M58.2025 43.5748H45.1462C44.6433 43.5748 44.161 43.775 43.8054 44.1315C43.4498 44.488 43.25 44.9715 43.25 45.4757V58.2008C43.25 58.705 43.4498 59.1885 43.8054 59.545C44.161 59.9015 44.6433 60.1018 45.1462 60.1018H49.3238L46.5113 63.9336L51.3733 60.1018H58.1988C58.7017 60.1018 59.184 59.9015 59.5396 59.545C59.8952 59.1885 60.095 58.705 60.095 58.2008V45.4757C60.095 44.9722 59.8957 44.4892 59.5409 44.1329C59.1861 43.7765 58.7048 43.5758 58.2025 43.5748Z" fill="#008080"/>
<path opacity="0.6" d="M58.2025 43.5748H45.1462C44.6433 43.5748 44.161 43.775 43.8054 44.1315C43.4498 44.488 43.25 44.9715 43.25 45.4757V58.2008C43.25 58.705 43.4498 59.1885 43.8054 59.545C44.161 59.9015 44.6433 60.1018 45.1462 60.1018H49.3238L46.5113 63.9336L51.3733 60.1018H58.1988C58.7017 60.1018 59.184 59.9015 59.5396 59.545C59.8952 59.1885 60.095 58.705 60.095 58.2008V45.4757C60.095 44.9722 59.8957 44.4892 59.5409 44.1329C59.1861 43.7765 58.7048 43.5758 58.2025 43.5748Z" fill="white"/>
<path d="M51.6779 57.781C54.9518 57.781 57.6058 55.1203 57.6058 51.8383C57.6058 48.5562 54.9518 45.8956 51.6779 45.8956C48.404 45.8956 45.75 48.5562 45.75 51.8383C45.75 55.1203 48.404 57.781 51.6779 57.781Z" fill="#008080"/>
<path opacity="0.2" d="M56.6235 53.0049C57.2683 50.2661 55.5763 47.5218 52.8443 46.8754C50.1123 46.2289 47.3749 47.9252 46.73 50.664C46.0852 53.4028 47.7772 56.1471 50.5092 56.7935C53.2413 57.4399 55.9787 55.7437 56.6235 53.0049Z" fill="black"/>
<path d="M51.0418 54.2716C50.9729 54.273 50.9045 54.2609 50.8403 54.2358C50.7761 54.2107 50.7175 54.1732 50.6678 54.1253L48.5098 52.007C48.4106 51.9105 48.3537 51.7785 48.3516 51.64C48.3495 51.5015 48.4024 51.3678 48.4986 51.2684C48.5948 51.1689 48.7265 51.1119 48.8647 51.1098C49.0028 51.1077 49.1362 51.1607 49.2354 51.2571L51.0044 52.993L54.0637 49.5699C54.1575 49.4751 54.284 49.4201 54.4172 49.4161C54.5503 49.4121 54.6799 49.4594 54.7792 49.5484C54.8785 49.6374 54.9399 49.7612 54.9509 49.8942C54.9618 50.0273 54.9214 50.1595 54.8379 50.2635L51.4158 54.0916C51.3686 54.1445 51.311 54.1872 51.2467 54.2168C51.1824 54.2465 51.1126 54.2626 51.0418 54.2641V54.2716Z" fill="white"/>
<path d="M34.744 138.496L45.5189 137.431V125.25H49.79V137.428L60.6098 138.496C61.1283 138.547 61.6095 138.789 61.9594 139.176C62.3093 139.562 62.5028 140.066 62.5023 140.588V142.212H32.8516V140.588C32.851 140.066 33.0446 139.562 33.3945 139.176C33.7444 138.789 34.2255 138.547 34.744 138.496Z" fill="#263238"/>
<path opacity="0.1" d="M34.744 138.496L45.5189 137.431V125.25H49.79V137.428L60.6098 138.496C61.1283 138.547 61.6095 138.789 61.9594 139.176C62.3093 139.562 62.5028 140.066 62.5023 140.588V142.212H32.8516V140.588C32.851 140.066 33.0446 139.562 33.3945 139.176C33.7444 138.789 34.2255 138.547 34.744 138.496Z" fill="white"/>
<path d="M61.3641 147.022C62.9071 147.022 64.1579 145.768 64.1579 144.221C64.1579 142.675 62.9071 141.421 61.3641 141.421C59.8211 141.421 58.5703 142.675 58.5703 144.221C58.5703 145.768 59.8211 147.022 61.3641 147.022Z" fill="#263238"/>
<path d="M33.9969 147.022C35.5399 147.022 36.7907 145.768 36.7907 144.221C36.7907 142.675 35.5399 141.421 33.9969 141.421C32.4539 141.421 31.2031 142.675 31.2031 144.221C31.2031 145.768 32.4539 147.022 33.9969 147.022Z" fill="#263238"/>
<path d="M48.9788 128.512H46.3159C45.9063 128.512 45.5134 128.349 45.2237 128.058C44.9341 127.768 44.7713 127.374 44.7713 126.963V114.988H50.5234V126.963C50.5234 127.374 50.3607 127.768 50.071 128.058C49.7814 128.349 49.3885 128.512 48.9788 128.512Z" fill="#263238"/>
<path opacity="0.2" d="M48.9788 128.512H46.3159C45.9063 128.512 45.5134 128.349 45.2237 128.058C44.9341 127.768 44.7713 127.374 44.7713 126.963V114.988H50.5234V126.963C50.5234 127.374 50.3607 127.768 50.071 128.058C49.7814 128.349 49.3885 128.512 48.9788 128.512Z" fill="white"/>
<path d="M32.7387 91.5172C32.7387 91.5172 35.9401 111.531 42.2607 114.992H35.8354C35.8354 114.992 29.4774 108.168 27.5625 91.5172H32.7387Z" fill="#263238"/>
<path opacity="0.1" d="M32.7387 91.5172C32.7387 91.5172 35.9401 111.531 42.2607 114.992H35.8354C35.8354 114.992 29.4774 108.168 27.5625 91.5172H32.7387Z" fill="white"/>
<path d="M35.5263 112.161H60.5543C61.0503 112.161 61.5259 112.358 61.8766 112.71C62.2273 113.062 62.4243 113.538 62.4243 114.036V116.544H33.6562V114.036C33.6562 113.538 33.8533 113.062 34.204 112.71C34.5547 112.358 35.0303 112.161 35.5263 112.161Z" fill="#008080"/>
<path d="M62.859 114.351H33.1971C32.7819 114.351 32.4453 114.688 32.4453 115.104V115.787C32.4453 116.203 32.7819 116.54 33.1971 116.54H62.859C63.2742 116.54 63.6107 116.203 63.6107 115.787V115.104C63.6107 114.688 63.2742 114.351 62.859 114.351Z" fill="#263238"/>
<path opacity="0.6" d="M62.859 114.351H33.1971C32.7819 114.351 32.4453 114.688 32.4453 115.104V115.787C32.4453 116.203 32.7819 116.54 33.1971 116.54H62.859C63.2742 116.54 63.6107 116.203 63.6107 115.787V115.104C63.6107 114.688 63.2742 114.351 62.859 114.351Z" fill="white"/>
<path d="M26.8049 95.589H37.0862C40.1006 95.589 42.0566 93.1669 41.4582 90.1787L40.6579 86.1895C40.0595 83.19 37.1311 80.783 34.1204 80.783H23.8391C20.8247 80.783 18.8686 83.205 19.467 86.1895L20.2674 90.1787C20.8658 93.1594 23.7905 95.589 26.8049 95.589Z" fill="#008080"/>
<path d="M81.3569 129.112L79.0007 130.038L77.3065 126.836L75.7656 123.923L78.3761 122.355L79.9544 125.928L81.3569 129.112Z" fill="#E4897B"/>
<path opacity="0.2" d="M79.9544 125.928L77.3065 126.836L75.7656 123.923L78.3761 122.355L79.9544 125.928Z" fill="black"/>
<path d="M79.4683 124.181L76.2631 125.906C76.2631 125.906 64.1492 104.554 62.2867 104.734C60.4242 104.914 42.7527 116.199 37.3634 112.03C31.974 107.86 37.2175 95.3078 37.2175 95.3078C37.2175 95.3078 48.3664 92.1134 49.5595 94.5579C49.8739 95.2899 50.1413 96.0413 50.3599 96.8075C50.5955 97.5761 50.775 98.2248 50.775 98.2248C51.1153 98.086 62.1259 93.5606 67.0403 95.9752C72.0556 98.4572 79.4683 124.181 79.4683 124.181Z" fill="#263238"/>
<path opacity="0.3" d="M79.4683 124.181L76.2631 125.906C76.2631 125.906 64.1492 104.554 62.2867 104.734C60.4242 104.914 42.7527 116.199 37.3634 112.03C31.974 107.86 37.2175 95.3078 37.2175 95.3078C37.2175 95.3078 48.3664 92.1134 49.5595 94.5579C49.8739 95.2899 50.1413 96.0413 50.3599 96.8075C50.5955 97.5761 50.775 98.2248 50.775 98.2248C51.1153 98.086 62.1259 93.5606 67.0403 95.9752C72.0556 98.4572 79.4683 124.181 79.4683 124.181Z" fill="white"/>
<path d="M62.0554 141.593L59.5421 141.304L59.5272 137.75L59.5234 134.488L62.5641 134.346L62.2948 138.181L62.0554 141.593Z" fill="#E4897B"/>
<path opacity="0.2" d="M62.2832 138.26L59.5156 137.818V134.522L62.5562 134.361L62.2832 138.26Z" fill="black"/>
<path d="M74.6953 124.845L79.3853 122.49L79.8752 124.485L76.3222 126.322L74.6953 124.845Z" fill="#008080"/>
<path d="M45.6875 112.064C45.6875 112.064 46.4579 111.977 58.31 109.776C58.31 109.776 58.5793 124.969 59.1403 136.295L62.7905 136.412C62.7905 136.412 68.0265 111.291 67.4094 107.482C66.7923 103.673 62.2894 103.174 62.2894 103.174C62.2894 103.174 54.469 109.282 45.6875 112.064Z" fill="#263238"/>
<path opacity="0.4" d="M45.6875 112.064C45.6875 112.064 46.4579 111.977 58.31 109.776C58.31 109.776 58.5793 124.969 59.1403 136.295L62.7905 136.412C62.7905 136.412 68.0265 111.291 67.4094 107.482C66.7923 103.673 62.2894 103.174 62.2894 103.174C62.2894 103.174 54.469 109.282 45.6875 112.064Z" fill="white"/>
<path opacity="0.3" d="M45.6875 112.064C45.6875 112.064 46.4579 111.977 58.31 109.776C58.31 109.776 58.5793 124.969 59.1403 136.295L62.7905 136.412C62.7905 136.412 68.0265 111.291 67.4094 107.482C66.7923 103.673 62.2894 103.174 62.2894 103.174C62.2894 103.174 54.469 109.282 45.6875 112.064Z" fill="black"/>
<path d="M58.4688 135.283L63.4467 135.167L62.766 137.221L58.7268 137.259L58.4688 135.283Z" fill="#008080"/>
<path opacity="0.3" d="M50.7949 98.2322L44.3359 100.538C44.3359 100.538 47.7319 97.996 50.3798 96.815C50.6154 97.5836 50.7949 98.2322 50.7949 98.2322Z" fill="black"/>
<path d="M36.4688 94.5355L36.7081 96.3314L48.8145 93.7556L48.534 91.6335L36.4688 94.5355Z" fill="#263238"/>
<path opacity="0.2" d="M36.4688 94.5355L36.7081 96.3314L48.8145 93.7556L48.534 91.6335L36.4688 94.5355Z" fill="black"/>
<path d="M40.4859 93.2306L39.8828 93.3428L40.4525 96.4209L41.0555 96.3088L40.4859 93.2306Z" fill="#263238"/>
<path d="M45.7665 92.4516L43.125 93.0483L43.5764 95.0564L46.2179 94.4596L45.7665 92.4516Z" fill="white"/>
<path d="M47.4605 91.1975L46.8594 91.3082L47.4215 94.3763L48.0226 94.2656L47.4605 91.1975Z" fill="#263238"/>
<path opacity="0.3" d="M40.4859 93.2306L39.8828 93.3428L40.4525 96.4209L41.0555 96.3088L40.4859 93.2306Z" fill="white"/>
<path opacity="0.3" d="M47.4605 91.1975L46.8594 91.3082L47.4215 94.3763L48.0226 94.2656L47.4605 91.1975Z" fill="white"/>
<path d="M86.0422 133.303C85.6491 133.182 85.237 133.135 84.8267 133.165C84.8267 133.165 83.3046 132.527 81.4607 129.494L79.8899 129.7C79.6256 129.74 79.3798 129.86 79.1858 130.045C78.9919 130.229 78.859 130.469 78.8053 130.731C78.7941 130.806 78.7941 130.882 78.8053 130.956C78.873 131.337 78.9654 131.713 79.0821 132.081C79.4848 133.3 79.9607 134.493 80.507 135.654L80.7614 135.549L79.9498 133.277C79.6805 132.501 80.6192 133.157 81.1167 133.907C81.6141 134.657 82.3209 135.384 84.0002 134.747C85.9525 133.982 86.7267 133.577 86.0422 133.303Z" fill="#263238"/>
<path d="M81.0751 128.688C81.0751 128.688 83.5958 132.527 84.8338 133.165C84.8338 133.165 83.4462 134.289 81.5949 132.482C79.2051 130.161 78.8049 130.956 78.8049 130.956C78.7836 130.502 78.8049 130.046 78.8685 129.595C79.0592 128.714 81.0751 128.688 81.0751 128.688Z" fill="#E4897B"/>
<path d="M65.8248 146.062C65.4665 145.855 65.0736 145.716 64.6654 145.65C64.6654 145.65 63.3377 144.671 62.2718 141.289L60.6972 141.117C60.4301 141.092 60.1616 141.15 59.9291 141.285C59.6966 141.419 59.5115 141.622 59.3995 141.867C59.3659 141.934 59.3432 142.006 59.3321 142.081C59.306 142.464 59.306 142.848 59.3321 143.232C59.4336 144.511 59.6135 145.783 59.8707 147.041L60.1437 147L59.9006 144.593C59.8221 143.775 60.5813 144.638 60.888 145.485C61.1947 146.332 61.707 147.206 63.4873 146.985C65.5667 146.703 66.412 146.493 65.8248 146.062Z" fill="#263238"/>
<path d="M62.0848 140.401C62.0848 140.401 63.6257 144.731 64.6767 145.65C64.6767 145.65 63.0647 146.4 61.6847 144.218C59.9082 141.394 59.3359 142.073 59.3359 142.073C59.4196 141.627 59.5448 141.19 59.7099 140.768C60.1064 139.943 62.0848 140.401 62.0848 140.401Z" fill="#E4897B"/>
<path d="M33.8335 63.9148L30.6695 64.5522C30.5459 64.6565 30.3998 64.7308 30.2428 64.7692C30.0858 64.8076 29.9221 64.809 29.7644 64.7734C28.8219 64.3984 27.4643 63.2999 27.2923 62.8987C27.0379 62.3326 27.2923 60.6716 27.958 60.3717C28.6237 60.0717 30.9163 62.8462 30.9163 62.8462L34.316 62.0776L33.8335 63.9148Z" fill="#E4897B"/>
<path d="M43.8041 74.4578C43.8041 74.4578 43.5161 64.181 42.3305 63.7423C41.145 63.3036 32.2325 64.5297 32.2325 64.5297L32.0156 62.1826C32.0156 62.1826 42.3866 60.5816 44.395 61.5302C46.4034 62.4788 47.0654 77.7947 46.6989 80.7455L43.8041 74.4578Z" fill="#008080"/>
<path opacity="0.6" d="M43.8041 74.4578C43.8041 74.4578 43.5161 64.181 42.3305 63.7423C41.145 63.3036 32.2325 64.5297 32.2325 64.5297L32.0156 62.1826C32.0156 62.1826 42.3866 60.5816 44.395 61.5302C46.4034 62.4788 47.0654 77.7947 46.6989 80.7455L43.8041 74.4578Z" fill="white"/>
<path d="M32.3865 64.7546L31.7656 62.1751L32.6557 61.8527L33.2205 64.8334L32.3865 64.7546Z" fill="#008080"/>
<path opacity="0.7" d="M32.3865 64.7546L31.7656 62.1751L32.6557 61.8527L33.2205 64.8334L32.3865 64.7546Z" fill="white"/>
<path d="M43.7551 73.1756C43.7551 73.1756 42.9584 76.3025 39.1212 77.2998C35.284 78.2972 31.0391 75.6914 31.0391 75.6914L31.8843 83.1525L36.5817 94.9066L48.5871 91.7685C48.5871 91.7685 47.8691 78.0947 43.7551 73.1756Z" fill="#008080"/>
<path opacity="0.7" d="M43.7551 73.1756C43.7551 73.1756 42.9584 76.3025 39.1212 77.2998C35.284 78.2972 31.0391 75.6914 31.0391 75.6914L31.8843 83.1525L36.5817 94.9066L48.5871 91.7685C48.5871 91.7685 47.8691 78.0947 43.7551 73.1756Z" fill="white"/>
<path opacity="0.6" d="M45.8442 85.5743L47.2495 85.1299C47.4051 85.0807 47.4915 84.9143 47.4424 84.7583L46.6052 82.0981C46.5561 81.9421 46.3901 81.8555 46.2345 81.9047L44.8292 82.3492C44.6736 82.3984 44.5872 82.5648 44.6363 82.7208L45.4735 85.381C45.5226 85.537 45.6886 85.6236 45.8442 85.5743Z" fill="#008080"/>
<path opacity="0.2" d="M45.5584 84.7635L47.1562 84.2581L46.4665 82.0663L44.8686 82.5717L45.5584 84.7635Z" fill="black"/>
<path d="M45.5015 81.2739L45.1484 81.3856L45.5547 82.6763L45.9078 82.5647L45.5015 81.2739Z" fill="#263238"/>
<path d="M35.5928 61.4965C32.6345 61.4965 30.6822 64.6384 31.3741 69.6212C32.066 74.6041 34.8373 76.0401 34.8373 76.0401L34.6615 74.8365C37.7381 75.5365 40.91 75.7139 44.0452 75.3614C44.0452 75.3614 42.6165 71.2972 43.0803 67.1467C43.0803 67.1467 44.019 61.489 35.5928 61.4965Z" fill="#263238"/>
<path opacity="0.2" d="M41.4726 76.2875L42.6806 80.7867L40.5563 79.1632C40.5563 79.1632 42.6245 83.9024 43.1743 86.6618C43.1743 86.6618 41.3866 81.964 39.8457 79.3882L38.9444 81.9677L35.3203 78.2671C35.3203 78.2671 38.5218 75.8076 41.4726 76.2875Z" fill="black"/>
<path d="M39.711 77.7385L36.0233 77.851C37.6577 75.7551 34.7031 72.1033 34.7031 72.1033L38.3459 72.8944C39.2136 76.5087 40.7133 76.6175 40.7133 76.6175L39.711 77.7385Z" fill="#E4897B"/>
<path opacity="0.2" d="M39.3632 75.4889C37.956 75.371 36.6473 74.7176 35.7054 73.663C35.4145 73.1212 35.0792 72.6046 34.7031 72.1183L38.3459 72.9131C38.5388 73.8228 38.8827 74.6934 39.3632 75.4889Z" fill="black"/>
<path d="M38.3362 63.0224C41.5115 63.2886 42.3941 65.077 42.353 68.3802C42.3044 72.5044 41.1524 75.3427 37.2554 74.1354C31.9595 72.4969 33.0591 62.58 38.3362 63.0224Z" fill="#E4897B"/>
<path d="M40.318 68.0391C40.533 68.5362 40.8067 69.0058 41.1333 69.4376C41.0287 69.5605 40.8926 69.6524 40.7397 69.7033C40.5867 69.7542 40.4228 69.7621 40.2656 69.7263L40.318 68.0391Z" fill="#DE5753"/>
<path d="M38.1719 67.5066L38.86 67.2817C38.86 67.2817 38.4935 67.8291 38.1719 67.5066Z" fill="#263238"/>
<path d="M38.4043 67.4279C38.2763 67.3649 38.1298 67.3507 37.9922 67.3879C37.8546 67.4252 37.7352 67.5113 37.6562 67.6304C37.7737 67.5767 37.9012 67.5489 38.0303 67.5489C38.1593 67.5489 38.2868 67.5767 38.4043 67.6304V67.4279Z" fill="#263238"/>
<path d="M37.1269 65.9095C37.0916 65.9086 37.058 65.8937 37.0334 65.8682C37.0204 65.8559 37.01 65.8411 37.0029 65.8247C36.9958 65.8082 36.9922 65.7905 36.9922 65.7726C36.9922 65.7547 36.9958 65.737 37.0029 65.7205C37.01 65.7041 37.0204 65.6893 37.0334 65.677C37.242 65.4941 37.4901 65.3623 37.7581 65.2921C38.0262 65.2218 38.3069 65.2149 38.578 65.2721C38.6133 65.2795 38.6441 65.3007 38.6637 65.3309C38.6834 65.3612 38.6902 65.398 38.6828 65.4333C38.6753 65.4686 38.6542 65.4995 38.624 65.5192C38.5939 65.5389 38.5572 65.5457 38.5219 65.5383C38.2957 65.4919 38.0619 65.4972 37.8379 65.5537C37.6139 65.6101 37.4054 65.7163 37.2279 65.8645C37.2154 65.8789 37.1998 65.8904 37.1824 65.8982C37.1649 65.9059 37.146 65.9098 37.1269 65.9095Z" fill="#263238"/>
<path d="M42.1098 65.9656C42.0802 65.9668 42.0511 65.9575 42.0275 65.9394C41.8779 65.8019 41.6995 65.6995 41.5054 65.6399C41.3113 65.5802 41.1064 65.5647 40.9055 65.5944C40.8884 65.5991 40.8704 65.6004 40.8527 65.5981C40.8351 65.5958 40.818 65.5901 40.8026 65.5812C40.7871 65.5723 40.7736 65.5605 40.7627 65.5464C40.7518 65.5322 40.7438 65.5161 40.7391 65.4988C40.7344 65.4816 40.7332 65.4636 40.7355 65.4459C40.7377 65.4282 40.7435 65.4111 40.7523 65.3956C40.7612 65.3801 40.773 65.3665 40.7871 65.3556C40.8012 65.3447 40.8173 65.3367 40.8345 65.332C41.0769 65.289 41.3259 65.3022 41.5625 65.3704C41.7991 65.4386 42.017 65.5601 42.1996 65.7257C42.2273 65.7484 42.2451 65.7811 42.2493 65.8167C42.2535 65.8524 42.2437 65.8883 42.222 65.9169C42.2085 65.9333 42.1913 65.9463 42.1718 65.9548C42.1523 65.9632 42.131 65.967 42.1098 65.9656Z" fill="#263238"/>
<path d="M34.4058 68.099C34.4058 68.099 36.1075 65.6095 36.0514 63.5699C36.0514 63.5699 42.5628 61.5152 42.3421 67.9491C42.3421 67.9491 43.4267 62.3251 37.9775 61.7289C32.5284 61.1328 31.8963 69.1638 34.518 71.7884C34.518 71.7884 33.3624 69.6588 34.4058 68.099Z" fill="#263238"/>
<path d="M34.8845 68.8151C34.8845 68.4439 34.7376 68.0878 34.4761 67.8249C34.2146 67.5621 33.8598 67.4139 33.4894 67.4129C32.4946 67.4391 31.8588 69.4263 34.2674 70.1199C34.6114 70.2174 34.8396 69.8912 34.8845 68.8151Z" fill="#E4897B"/>
<path d="M40.2887 70.6636C40.0558 70.9772 39.847 71.3081 39.6641 71.6534C39.6006 71.6309 39.5332 71.6121 39.4697 71.5859C38.5908 71.2747 38.2841 70.836 38.213 70.4611C38.1795 70.2706 38.1937 70.0748 38.2542 69.8912C38.2853 69.7856 38.3306 69.6847 38.3888 69.5912C38.8458 70.0266 39.3921 70.3568 39.9895 70.5586C40.169 70.6261 40.2887 70.6636 40.2887 70.6636Z" fill="#263238"/>
<path d="M39.9932 70.5511L39.8024 70.8398C38.9722 70.5436 38.4299 70.2249 38.2578 69.8837C38.289 69.7781 38.3343 69.6772 38.3925 69.5837C38.8494 70.0191 39.3957 70.3493 39.9932 70.5511Z" fill="white"/>
<path d="M39.4676 71.5859C38.5887 71.2747 38.282 70.836 38.2109 70.4611C38.5434 70.5838 38.8512 70.7654 39.1198 70.9972C39.2939 71.1525 39.4154 71.3582 39.4676 71.5859Z" fill="#DE5753"/>
<path d="M38.2555 63.2587C38.2555 63.2587 36.5389 68.3915 33.2551 68.0391C29.9714 67.6866 35.6001 61.4853 35.6001 61.4853C35.6001 61.4853 41.1391 59.8993 43.5514 62.985C45.9637 66.0707 42.3583 67.9416 42.3583 67.9416C42.3583 67.9416 42.8969 63.9148 38.2555 63.2587Z" fill="#263238"/>
<path d="M35.6345 67.6266C35.6156 67.6257 35.5972 67.6196 35.5814 67.6091C35.5656 67.5985 35.5529 67.5838 35.5448 67.5666C35.5362 67.5427 35.5373 67.5164 35.5478 67.4933C35.5583 67.4702 35.5773 67.4521 35.6009 67.4429C38.2189 66.4418 38.159 62.9212 38.159 62.8837C38.158 62.8714 38.1595 62.8591 38.1636 62.8475C38.1677 62.8358 38.1742 62.8253 38.1827 62.8164C38.1912 62.8075 38.2015 62.8005 38.2129 62.796C38.2243 62.7914 38.2365 62.7894 38.2488 62.79C38.2731 62.7907 38.2963 62.8002 38.3142 62.8167C38.332 62.8333 38.3434 62.8557 38.346 62.8799C38.346 62.9174 38.4059 66.5693 35.6682 67.6191L35.6345 67.6266Z" fill="#263238"/>
<path d="M41.3906 67.8178L42.0788 67.5966C42.0788 67.5966 41.7085 68.1402 41.3906 67.8178Z" fill="#263238"/>
<path d="M41.623 67.7391C41.4948 67.6756 41.3478 67.6615 41.2099 67.6995C41.072 67.7375 40.9528 67.825 40.875 67.9453C40.9907 67.8876 41.1174 67.8557 41.2465 67.8518C41.3757 67.8479 41.5041 67.8722 41.623 67.9228V67.7391Z" fill="#263238"/>
<path d="M36.5348 76.3362L39.3136 77.7535L39.2688 80.5767L35.2969 78.2559L36.5348 76.3362Z" fill="#008080"/>
<path d="M39.7422 75.8039L39.9067 77.5173L41.7206 79.4407L41.4738 76.2763L39.7422 75.8039Z" fill="#008080"/>
<path d="M26.8987 56.4161L25.7393 53.4167C25.7604 53.2563 25.7441 53.0932 25.6915 52.9403C25.6389 52.7874 25.5515 52.6488 25.4363 52.5356C24.6285 51.932 22.9604 51.3846 22.5416 51.4483C21.9319 51.5383 20.6716 52.6443 20.78 53.368C20.8885 54.0916 24.449 54.5377 24.449 54.5377L25.6308 57.8259L26.8987 56.4161Z" fill="#E4897B"/>
<path d="M31.8972 83.1525C31.8972 83.1525 34.1412 81.3641 33.2474 77.4123L30.8351 66.4793L26.6911 55.1864L24.6641 56.2137C24.6641 56.2137 28.0675 67.2479 28.3816 67.9941C28.5424 68.369 29.182 74.0942 30.0534 77.9297C30.8538 81.4616 31.8972 83.1525 31.8972 83.1525Z" fill="#008080"/>
<path opacity="0.6" d="M31.8972 83.1525C31.8972 83.1525 34.1412 81.3641 33.2474 77.4123L30.8351 66.4793L26.6911 55.1864L24.6641 56.2137C24.6641 56.2137 28.0675 67.2479 28.3816 67.9941C28.5424 68.369 29.182 74.0942 30.0534 77.9297C30.8538 81.4616 31.8972 83.1525 31.8972 83.1525Z" fill="white"/>
<path d="M24.3125 55.8913L26.6799 54.7028L27.196 55.4939L24.4284 56.7236L24.3125 55.8913Z" fill="#008080"/>
<path opacity="0.7" d="M24.3125 55.8913L26.6799 54.7028L27.196 55.4939L24.4284 56.7236L24.3125 55.8913Z" fill="white"/>
<path opacity="0.6" d="M36.5348 76.3362L39.3136 77.7535L39.2688 80.5767L35.2969 78.2559L36.5348 76.3362Z" fill="white"/>
<path opacity="0.6" d="M39.7422 75.8039L39.9067 77.5173L41.7206 79.4407L41.4738 76.2763L39.7422 75.8039Z" fill="white"/>
<path d="M118.658 70.4424H107.453V79.1708H118.658V70.4424Z" fill="white"/>
<path opacity="0.1" d="M118.654 70.4424H115.781V79.1708H118.654V70.4424Z" fill="black"/>
<path d="M106.812 86.8794H119.48V71.0386H115.4L106.812 75.1591V86.8794Z" fill="#008080"/>
<path opacity="0.2" d="M119.471 71.0386H115.391V86.8794H119.471V71.0386Z" fill="black"/>
<path opacity="0.7" d="M114.049 78.2822H108.117V81.1317H114.049V78.2822Z" fill="white"/>
<path opacity="0.7" d="M114.049 82.084H108.117V82.4927H114.049V82.084Z" fill="white"/>
<path opacity="0.7" d="M119.076 83.2801H115.781V85.6984H119.076V83.2801Z" fill="white"/>
<path d="M113.9 69.9662H102.695V79.1708H113.9V69.9662Z" fill="white"/>
<path opacity="0.1" d="M113.888 69.9662H111.016V79.1708H113.888V69.9662Z" fill="black"/>
<path d="M102.047 86.8794H114.714V71.0386H110.634L102.047 75.1591V86.8794Z" fill="#008080"/>
<path opacity="0.2" d="M114.713 71.0386H110.633V86.8794H114.713V71.0386Z" fill="black"/>
<path opacity="0.7" d="M109.283 78.2822H103.352V81.1317H109.283V78.2822Z" fill="white"/>
<path opacity="0.7" d="M109.283 82.084H103.352V82.4927H109.283V82.084Z" fill="white"/>
<path opacity="0.7" d="M114.311 83.2801H111.016V85.6984H114.311V83.2801Z" fill="white"/>
<path d="M94.1719 147.022H96.4645L100.578 89.5639H97.5379L94.1719 147.022Z" fill="#263238"/>
<path opacity="0.1" d="M94.1719 147.022H96.4645L100.377 92.4171L100.578 89.6577H97.5379L97.3771 92.4171L94.1719 147.022Z" fill="white"/>
<path opacity="0.2" d="M97.3828 92.2822H100.382L100.584 89.6577H97.5436L97.3828 92.2822Z" fill="black"/>
<path d="M77.3584 147.022H79.651L80.025 89.5639H76.9844L77.3584 147.022Z" fill="#263238"/>
<path opacity="0.1" d="M76.9844 89.6577L77.048 98.926L77.3584 147.022H79.651L79.9652 98.926L80.025 89.6577H76.9844Z" fill="white"/>
<path opacity="0.2" d="M76.9844 89.6577L77.048 99.0309H79.9652L80.025 89.6577H76.9844Z" fill="black"/>
<path d="M53.0391 147.022H55.3317L59.4457 89.5639H56.4051L53.0391 147.022Z" fill="#263238"/>
<path opacity="0.1" d="M53.0391 147.022H55.3317L59.2475 92.4171L59.4457 89.6577H56.4051L56.2442 92.4171L53.0391 147.022Z" fill="white"/>
<path opacity="0.2" d="M56.2422 92.2822H59.2454L59.4436 89.6577H56.403L56.2422 92.2822Z" fill="black"/>
<path d="M120.391 147.022H122.684L119.314 89.5639H116.273L120.391 147.022Z" fill="#263238"/>
<path opacity="0.1" d="M116.273 89.6577L116.479 92.4171L120.391 147.022H122.68L119.479 92.4171L119.314 89.6577H116.273Z" fill="white"/>
<path opacity="0.2" d="M119.314 89.6577H116.273L116.479 92.2822H119.479L119.314 89.6577Z" fill="black"/>
<path d="M120.911 91.0037L54.8027 91.0037C54.6966 91.0037 54.5915 90.9827 54.4935 90.942C54.3955 90.9013 54.3064 90.8417 54.2314 90.7665C54.1564 90.6913 54.0969 90.602 54.0563 90.5037C54.0157 90.4055 53.9948 90.3002 53.9948 90.1938V88.1279L121.719 88.1279V90.1938C121.719 90.3002 121.698 90.4055 121.657 90.5037C121.617 90.602 121.557 90.6913 121.482 90.7665C121.407 90.8417 121.318 90.9013 121.22 90.942C121.122 90.9827 121.017 91.0037 120.911 91.0037Z" fill="#008080"/>
<path opacity="0.4" d="M120.911 91.0037L54.8027 91.0037C54.6966 91.0037 54.5915 90.9827 54.4935 90.942C54.3955 90.9013 54.3064 90.8417 54.2314 90.7665C54.1564 90.6913 54.0969 90.602 54.0563 90.5037C54.0157 90.4055 53.9948 90.3002 53.9948 90.1938V88.1279L121.719 88.1279V90.1938C121.719 90.3002 121.698 90.4055 121.657 90.5037C121.617 90.602 121.557 90.6913 121.482 90.7665C121.407 90.8417 121.318 90.9013 121.22 90.942C121.122 90.9827 121.017 91.0037 120.911 91.0037Z" fill="white"/>
<path opacity="0.2" d="M53.9948 89.5639L121.719 89.5639V88.1242L53.9948 88.1242V89.5639Z" fill="black"/>
<path d="M52.5772 88.4991H123.14C123.246 88.4996 123.351 88.479 123.45 88.4385C123.548 88.3979 123.637 88.3383 123.712 88.263C123.787 88.1877 123.847 88.0982 123.887 87.9997C123.928 87.9013 123.948 87.7957 123.948 87.6892C123.948 87.4745 123.863 87.2685 123.711 87.1166C123.56 86.9647 123.354 86.8794 123.14 86.8794H52.5772C52.3626 86.8794 52.1567 86.9646 52.0046 87.1164C51.8526 87.2681 51.7666 87.4741 51.7656 87.6892C51.7656 87.7959 51.7866 87.9015 51.8275 88C51.8683 88.0985 51.9281 88.188 52.0036 88.2632C52.079 88.3385 52.1685 88.398 52.2669 88.4385C52.3654 88.479 52.4708 88.4996 52.5772 88.4991Z" fill="#008080"/>
<path opacity="0.4" d="M52.5772 88.4991H123.14C123.246 88.4996 123.351 88.479 123.45 88.4385C123.548 88.3979 123.637 88.3383 123.712 88.263C123.787 88.1877 123.847 88.0982 123.887 87.9997C123.928 87.9013 123.948 87.7957 123.948 87.6892C123.948 87.4745 123.863 87.2685 123.711 87.1166C123.56 86.9647 123.354 86.8794 123.14 86.8794H52.5772C52.3626 86.8794 52.1567 86.9646 52.0046 87.1164C51.8526 87.2681 51.7666 87.4741 51.7656 87.6892C51.7656 87.7959 51.7866 87.9015 51.8275 88C51.8683 88.0985 51.9281 88.188 52.0036 88.2632C52.079 88.3385 52.1685 88.398 52.2669 88.4385C52.3654 88.479 52.4708 88.4996 52.5772 88.4991Z" fill="white"/>
<path d="M107.972 86.8719V85.6046H108.821L107.972 85.1097H108.608L107.759 84.5548H106.955V83.9174H107.89L106.955 83.5463V82.1628H107.89V81.2592H108.821L107.89 80.9442V80.2994H108.555L108.009 79.7557L107.538 79.2795H93.0868V79.9282H92.1331L93.1953 80.4081V80.9442H91.2468V81.9416H90.3828L91.2468 82.3765V83.49H91.8601V84.0224H93.0868V85.6046H92.3987L92.9634 86.1708V86.8794L107.972 86.8719Z" fill="#008080"/>
<path opacity="0.7" d="M107.972 86.8719V85.6046H108.821L107.972 85.1097H108.608L107.759 84.5548H106.955V83.9174H107.89L106.955 83.5463V82.1628H107.89V81.2592H108.821L107.89 80.9442V80.2994H108.555L108.009 79.7557L107.538 79.2795H93.0868V79.9282H92.1331L93.1953 80.4081V80.9442H91.2468V81.9416H90.3828L91.2468 82.3765V83.49H91.8601V84.0224H93.0868V85.6046H92.3987L92.9634 86.1708V86.8794L107.972 86.8719Z" fill="white"/>
<path opacity="0.1" d="M107.979 86.8719V85.6046H108.828L107.979 85.1097H108.615L107.766 84.5548H106.962V83.9174H107.897L106.962 83.5463V82.1628H107.897V81.2592H108.828L107.897 80.9442V80.2994H108.563L108.016 79.7557L107.545 79.2795H99.9343V79.9282H98.9806L100.039 80.4081V80.9442H98.0905V81.9416H97.2266L98.0905 82.3765V83.49H98.7039V84.0224H99.9343V85.6046H99.2462L99.8072 86.1708V86.8794L107.979 86.8719Z" fill="black"/>
<path opacity="0.1" d="M93.2031 80.9442H100.04L93.2031 80.6968V80.9442Z" fill="black"/>
<path opacity="0.1" d="M93.0938 84.0224H99.9342L99.9641 84.5023L93.0938 84.0224Z" fill="black"/>
<path opacity="0.1" d="M91.8672 83.49H98.7039L91.8672 83.7299V83.49Z" fill="black"/>
<path opacity="0.1" d="M93.0938 85.6047H99.9342L93.0938 85.3535V85.6047Z" fill="black"/>
<path opacity="0.1" d="M92.9688 86.1708H99.8055V86.4333L92.9688 86.1708Z" fill="black"/>
<path opacity="0.1" d="M91.25 81.9416H98.0867L91.25 81.7241V81.9416Z" fill="black"/>
<path opacity="0.1" d="M93.0938 79.9282H99.9342L93.0938 79.6882V79.9282Z" fill="black"/>
<path opacity="0.1" d="M107.891 80.2994H100.953L107.891 80.5131V80.2994Z" fill="black"/>
<path opacity="0.1" d="M100.039 80.9442H107.897L100.772 81.1767L100.039 80.9442Z" fill="black"/>
<path opacity="0.1" d="M98.0859 81.9416L107.892 82.1628V81.9416H98.0859Z" fill="black"/>
<path opacity="0.1" d="M98.0859 82.3765H102.937L98.0859 82.6127V82.3765Z" fill="black"/>
<path opacity="0.1" d="M106.965 83.5462L99.9375 83.49L106.965 83.3325V83.5462Z" fill="black"/>
<path opacity="0.1" d="M106.959 83.9175H99.8047L106.959 84.1574V83.9175Z" fill="black"/>
<path opacity="0.1" d="M107.979 85.1097H100.039V85.3534L107.979 85.1097Z" fill="black"/>
<path opacity="0.1" d="M107.979 85.6046H102.227L107.979 85.7658V85.6046Z" fill="black"/>
<path d="M89.5773 85.2372V86.4407C89.5773 86.7482 89.2033 86.8756 88.9078 86.8756H64.9269C64.6203 86.8756 64.25 86.7482 64.25 86.4407V85.2372H89.5773Z" fill="#263238"/>
<path opacity="0.4" d="M89.5773 85.2372V86.4407C89.5773 86.7482 89.2033 86.8756 88.9078 86.8756H64.9269C64.6203 86.8756 64.25 86.7482 64.25 86.4407V85.2372H89.5773Z" fill="white"/>
<path opacity="0.2" d="M89.5732 85.2372V86.4407C89.5732 86.7482 89.1992 86.8756 88.9037 86.8756H73.0873C72.7806 86.8756 72.4141 86.7482 72.4141 86.4407V85.2372H89.5732Z" fill="black"/>
<path d="M93.5931 72.7445L90.7357 85.7284C90.6865 85.9391 90.5686 86.1273 90.4005 86.2632C90.2325 86.399 90.024 86.4747 89.8082 86.4782H74.2161C74.1191 86.4761 74.0239 86.4515 73.938 86.4063C73.852 86.3611 73.7777 86.2965 73.7208 86.2177C73.6639 86.1389 73.626 86.048 73.6101 85.952C73.5942 85.856 73.6006 85.7577 73.6289 85.6646L76.4788 72.782C76.5373 72.5853 76.6612 72.4148 76.8301 72.2988C76.9989 72.1828 77.2023 72.1283 77.4063 72.1446H93.0021C93.421 72.1296 93.6828 72.3208 93.5931 72.7445Z" fill="#263238"/>
<path opacity="0.4" d="M93.5891 72.7446L90.7318 85.7284C90.6826 85.9392 90.5647 86.1274 90.3966 86.2632C90.2286 86.3991 90.0201 86.4748 89.8043 86.4783H74.7395C74.6425 86.4762 74.5473 86.4515 74.4614 86.4063C74.3755 86.3611 74.3011 86.2966 74.2443 86.2178C74.1874 86.139 74.1495 86.048 74.1335 85.952C74.1176 85.8561 74.124 85.7577 74.1524 85.6647L77.006 72.782C77.0638 72.585 77.1877 72.414 77.3566 72.2979C77.5256 72.1818 77.7294 72.1277 77.9335 72.1447H92.9982C93.4171 72.1297 93.6789 72.3209 93.5891 72.7446Z" fill="white"/>
<path opacity="0.2" d="M85.9011 79.3433C85.9011 80.468 84.7118 81.3566 83.8403 81.3566C82.9689 81.3566 82.4528 80.453 82.7183 79.3433C82.9839 78.2335 83.8403 77.3674 84.6856 77.3336C84.4387 78.4584 84.9698 79.3433 85.8375 79.3433H85.9011Z" fill="black"/>
</svg>
