<svg width="19" height="18" viewBox="0 0 19 18" fill="none" xmlns="http://www.w3.org/2000/svg">
<path d="M13.4373 3L13.3623 3.00525C13.2274 3.0234 13.1036 3.08988 13.0139 3.19236C12.9243 3.29483 12.8749 3.42635 12.8748 3.5625V13.0815L10.4598 10.668L10.3968 10.614C10.2826 10.5292 10.1406 10.4907 9.99922 10.5064C9.85786 10.5221 9.72768 10.5907 9.6349 10.6985C9.54212 10.8063 9.49362 10.9453 9.49916 11.0874C9.50471 11.2295 9.5639 11.3643 9.6648 11.4645L13.0428 14.8395L13.1058 14.8935C13.2142 14.9735 13.3476 15.012 13.482 15.002C13.6163 14.9919 13.7426 14.934 13.8378 14.8387L17.2106 11.4637L17.2646 11.4008C17.3448 11.2923 17.3834 11.1587 17.3734 11.0242C17.3633 10.8897 17.3053 10.7633 17.2098 10.668L17.1468 10.614C17.0384 10.5338 16.9048 10.4951 16.7703 10.5052C16.6357 10.5152 16.5093 10.5733 16.414 10.6688L13.9998 13.0845V3.5625L13.9953 3.486C13.9768 3.35133 13.9102 3.22792 13.8077 3.13858C13.7053 3.04923 13.5732 3.00001 13.4373 3ZM5.16105 3.165L1.7898 6.53625L1.73505 6.59925C1.65501 6.7076 1.61652 6.84108 1.62657 6.97541C1.63661 7.10974 1.69454 7.23601 1.7898 7.33125L1.8528 7.386C1.96115 7.46603 2.09463 7.50453 2.22896 7.49448C2.36329 7.48443 2.48956 7.42651 2.5848 7.33125L4.99755 4.91775V14.4412L5.00355 14.5177C5.02204 14.6524 5.08866 14.7758 5.1911 14.8652C5.29354 14.9545 5.42487 15.0037 5.5608 15.0037L5.63655 14.9985C5.77135 14.9802 5.89495 14.9136 5.98444 14.8112C6.07394 14.7087 6.12327 14.5773 6.1233 14.4412L6.12255 4.91925L8.5398 7.332L8.6028 7.386C8.71703 7.46979 8.85867 7.50739 8.99942 7.49128C9.14016 7.47518 9.26965 7.40657 9.36201 7.29915C9.45437 7.19173 9.50279 7.05342 9.49761 6.91185C9.49242 6.77028 9.43402 6.63588 9.33405 6.5355L5.95605 3.165L5.8923 3.111C5.78395 3.03096 5.65047 2.99247 5.51614 3.00252C5.38181 3.01257 5.25554 3.07049 5.1603 3.16575" fill="#484848"/>
</svg>
