<svg width="24" height="24" viewBox="0 0 24 24" fill="none" xmlns="http://www.w3.org/2000/svg">
<path d="M8.57143 16.4971L8.57143 7.42857M12 16.5543V12M15.4286 16.5714V9.71429M6.28571 4L17.7143 4C18.3205 4 18.9019 4.24082 19.3305 4.66947C19.7592 5.09812 20 5.67951 20 6.28571L20 17.7143C20 18.3205 19.7592 18.9019 19.3305 19.3305C18.9019 19.7592 18.3205 20 17.7143 20L6.28571 20C5.67951 20 5.09812 19.7592 4.66947 19.3305C4.24082 18.9019 4 18.3205 4 17.7143L4 6.28571C4 5.67951 4.24082 5.09812 4.66947 4.66947C5.09812 4.24082 5.67951 4 6.28571 4Z" stroke="#008080" stroke-width="1.5" stroke-linecap="round" stroke-linejoin="round"/>
</svg>
