<svg width="26" height="26" viewBox="0 0 26 26" fill="none" xmlns="http://www.w3.org/2000/svg">
<rect width="26" height="26" rx="6" fill="#FCCCCF"/>
<path d="M14.1533 19.5C14.0361 19.7021 13.8679 19.8698 13.6655 19.9864C13.4631 20.103 13.2336 20.1643 13 20.1643C12.7664 20.1643 12.5369 20.103 12.3345 19.9864C12.1321 19.8698 11.9639 19.7021 11.8467 19.5M17 10.8334C17 9.77251 16.5786 8.75509 15.8284 8.00495C15.0783 7.2548 14.0609 6.83337 13 6.83337C11.9391 6.83337 10.9217 7.2548 10.1716 8.00495C9.42143 8.75509 9 9.77251 9 10.8334C9 15.5 7 16.8334 7 16.8334H19C19 16.8334 17 15.5 17 10.8334Z" stroke="#F55B64" stroke-width="1.5" stroke-linecap="round" stroke-linejoin="round"/>
</svg>
