<svg width="516" height="344" viewBox="0 0 516 344" fill="none" xmlns="http://www.w3.org/2000/svg">
<path d="M175.755 189.344H63.625L71.9154 109.468H184.995L175.755 189.344Z" fill="#F5F5F5"/>
<path d="M75.9517 175.942C75.8485 175.942 77.0112 163.916 78.5386 149.11C80.0659 134.304 81.3869 122.278 81.4832 122.278C81.5795 122.278 80.4237 134.297 78.8963 149.11C77.369 163.923 76.048 175.949 75.9517 175.942Z" fill="#E0E0E0"/>
<path d="M96.3651 124.996C94.4947 125.173 92.6151 125.233 90.7372 125.175C88.8594 125.233 86.9797 125.173 85.1094 124.996C86.9795 124.815 88.8594 124.755 90.7372 124.817C92.6151 124.755 94.495 124.815 96.3651 124.996Z" fill="#E0E0E0"/>
<path d="M144.259 124.996C144.259 125.092 134.221 125.175 121.844 125.175C109.467 125.175 99.4219 125.092 99.4219 124.996C99.4219 124.899 109.46 124.817 121.844 124.817C134.228 124.817 144.259 124.893 144.259 124.996Z" fill="#E0E0E0"/>
<path d="M95.0369 153.376C93.1668 153.557 91.2869 153.617 89.4091 153.555C87.5313 153.617 85.6514 153.557 83.7812 153.376C85.6516 153.199 87.5313 153.139 89.4091 153.197C91.2869 153.139 93.1666 153.199 95.0369 153.376Z" fill="#E0E0E0"/>
<path d="M142.931 153.376C142.931 153.479 132.893 153.555 120.516 153.555C108.139 153.555 98.0938 153.479 98.0938 153.376C98.0938 153.273 108.132 153.197 120.516 153.197C132.9 153.197 142.931 153.28 142.931 153.376Z" fill="#E0E0E0"/>
<path d="M127.657 166.496C127.657 166.599 117.619 166.675 105.242 166.675C92.8651 166.675 82.8203 166.599 82.8203 166.496C82.8203 166.393 92.8582 166.317 105.242 166.317C117.626 166.317 127.657 166.365 127.657 166.496Z" fill="#E0E0E0"/>
<path d="M101.33 133.011C101.33 133.107 97.7867 133.19 93.4111 133.19C89.0354 133.19 85.4922 133.107 85.4922 133.011C85.4922 132.915 89.0423 132.825 93.4111 132.825C97.7799 132.825 101.33 132.908 101.33 133.011Z" fill="#E0E0E0"/>
<path d="M100.932 144.755C100.932 144.858 97.3814 144.934 93.0126 144.934C88.6438 144.934 85.0938 144.858 85.0938 144.755C85.0938 144.652 88.637 144.576 93.0126 144.576C97.3883 144.576 100.932 144.659 100.932 144.755Z" fill="#E0E0E0"/>
<path d="M114.314 161.549C114.314 161.646 110.764 161.728 106.395 161.728C102.027 161.728 98.4766 161.646 98.4766 161.549C98.4766 161.453 102.02 161.37 106.395 161.37C110.771 161.37 114.314 161.446 114.314 161.549Z" fill="#E0E0E0"/>
<path d="M158.93 133.011C158.93 133.107 149.876 133.19 138.703 133.19C127.53 133.19 118.469 133.107 118.469 133.011C118.469 132.915 127.53 132.825 138.703 132.825C149.876 132.825 158.93 132.908 158.93 133.011Z" fill="#E0E0E0"/>
<path d="M146.454 145.436C146.454 145.539 137.4 145.615 126.227 145.615C115.054 145.615 106 145.539 106 145.436C106 145.333 115.054 145.257 126.227 145.257C137.4 145.257 146.454 145.34 146.454 145.436Z" fill="#E0E0E0"/>
<path d="M160.375 161.549C160.375 161.646 151.314 161.728 140.148 161.728C128.982 161.728 119.914 161.646 119.914 161.549C119.914 161.453 128.975 161.37 140.148 161.37C151.321 161.37 160.375 161.446 160.375 161.549Z" fill="#E0E0E0"/>
<path d="M123.438 175.942C123.438 176.038 114.377 176.121 103.204 176.121C92.0306 176.121 82.9766 176.038 82.9766 175.942C82.9766 175.846 92.0306 175.763 103.204 175.763C114.377 175.763 123.438 175.839 123.438 175.942Z" fill="#E0E0E0"/>
<path d="M168.18 175.942C168.18 176.038 159.119 176.121 147.953 176.121C136.787 176.121 127.719 176.038 127.719 175.942C127.719 175.846 136.773 175.763 147.953 175.763C159.133 175.763 168.18 175.839 168.18 175.942Z" fill="#E0E0E0"/>
<path d="M123.43 180.621C123.43 180.724 114.376 180.799 103.203 180.799C92.0297 180.799 82.9688 180.724 82.9688 180.621C82.9688 180.517 92.0297 180.442 103.203 180.442C114.376 180.442 123.43 180.524 123.43 180.621Z" fill="#E0E0E0"/>
<path d="M125.399 136.382C125.399 136.479 116.345 136.561 105.172 136.561C93.9985 136.561 84.9375 136.479 84.9375 136.382C84.9375 136.286 93.9985 136.203 105.172 136.203C116.345 136.203 125.399 136.279 125.399 136.382Z" fill="#E0E0E0"/>
<path d="M114.611 133.052C112.881 133.229 111.141 133.289 109.403 133.231C107.662 133.289 105.92 133.229 104.188 133.052C105.92 132.871 107.662 132.811 109.403 132.873C111.141 132.811 112.881 132.871 114.611 133.052Z" fill="#E0E0E0"/>
<path d="M93.7201 157.235C91.9878 157.413 90.2454 157.472 88.505 157.414C86.7669 157.472 85.0269 157.413 83.2969 157.235C85.0269 157.058 86.7669 156.999 88.505 157.057C90.2454 156.999 91.9878 157.058 93.7201 157.235Z" fill="#E0E0E0"/>
<path d="M93.4701 161.549C91.74 161.726 90 161.786 88.2619 161.728C86.5215 161.786 84.7792 161.726 83.0469 161.549C84.7789 161.368 86.5215 161.308 88.2619 161.37C90 161.308 91.7403 161.368 93.4701 161.549Z" fill="#E0E0E0"/>
<path d="M183.757 117.916C183.757 118.019 158.541 118.095 127.444 118.095C96.3461 118.095 71.1172 118.019 71.1172 117.916C71.1172 117.813 96.3324 117.737 127.444 117.737C158.555 117.737 183.757 117.82 183.757 117.916Z" fill="#E0E0E0"/>
<path d="M78.7175 115.446C79.4547 115.446 80.0523 114.849 80.0523 114.112C80.0523 113.374 79.4547 112.777 78.7175 112.777C77.9804 112.777 77.3828 113.374 77.3828 114.112C77.3828 114.849 77.9804 115.446 78.7175 115.446Z" fill="white"/>
<path d="M84.4519 115.446C85.1891 115.446 85.7866 114.849 85.7866 114.112C85.7866 113.374 85.1891 112.777 84.4519 112.777C83.7148 112.777 83.1172 113.374 83.1172 114.112C83.1172 114.849 83.7148 115.446 84.4519 115.446Z" fill="white"/>
<path d="M90.1785 115.446C90.9156 115.446 91.5132 114.849 91.5132 114.112C91.5132 113.374 90.9156 112.777 90.1785 112.777C89.4413 112.777 88.8438 113.374 88.8438 114.112C88.8438 114.849 89.4413 115.446 90.1785 115.446Z" fill="white"/>
<path d="M466.912 149.406H354.781L363.072 69.5361H476.151L466.912 149.406Z" fill="#F5F5F5"/>
<path d="M367.107 136.004C367.011 136.004 368.167 123.977 369.694 109.172C371.221 94.3659 372.542 82.3397 372.639 82.381C372.735 82.4222 371.579 94.4003 370.052 109.213C368.524 124.026 367.203 136.011 367.107 136.004Z" fill="#E0E0E0"/>
<path d="M387.521 85.0573C383.773 85.2958 380.014 85.2958 376.266 85.0573C380.014 84.8188 383.773 84.8188 387.521 85.0573Z" fill="#E0E0E0"/>
<path d="M435.422 85.0573C435.422 85.1536 425.384 85.2362 413 85.2362C400.616 85.2362 390.578 85.1536 390.578 85.0573C390.578 84.961 400.616 84.8784 413 84.8784C425.384 84.8784 435.422 84.961 435.422 85.0573Z" fill="#E0E0E0"/>
<path d="M386.2 113.444C382.45 113.683 378.688 113.683 374.938 113.444C378.688 113.206 382.45 113.206 386.2 113.444Z" fill="#E0E0E0"/>
<path d="M434.125 113.444C434.125 113.541 424.087 113.623 411.703 113.623C399.319 113.623 389.281 113.541 389.281 113.444C389.281 113.348 399.319 113.265 411.703 113.265C424.087 113.265 434.125 113.341 434.125 113.444Z" fill="#E0E0E0"/>
<path d="M418.82 126.53C418.82 126.626 408.782 126.709 396.398 126.709C384.014 126.709 373.977 126.626 373.977 126.53C373.977 126.434 384.014 126.351 396.398 126.351C408.782 126.351 418.82 126.427 418.82 126.53Z" fill="#E0E0E0"/>
<path d="M392.486 93.0725C392.486 93.1688 388.936 93.2514 384.567 93.2514C380.198 93.2514 376.648 93.1688 376.648 93.0725C376.648 92.9762 380.192 92.8799 384.588 92.8799C388.984 92.8799 392.486 92.9693 392.486 93.0725Z" fill="#E0E0E0"/>
<path d="M392.08 104.817C392.08 104.92 388.537 104.996 384.161 104.996C379.785 104.996 376.242 104.92 376.242 104.817C376.242 104.714 379.785 104.638 384.161 104.638C388.537 104.638 392.08 104.721 392.08 104.817Z" fill="#E0E0E0"/>
<path d="M405.471 121.611C405.471 121.707 401.927 121.79 397.552 121.79C393.176 121.79 389.633 121.707 389.633 121.611C389.633 121.514 393.176 121.432 397.552 121.432C401.927 121.432 405.471 121.514 405.471 121.611Z" fill="#E0E0E0"/>
<path d="M450.102 93.0727C450.102 93.169 441.041 93.2516 429.868 93.2516C418.695 93.2516 409.641 93.169 409.641 93.0727C409.641 92.9764 418.695 92.8938 429.868 92.8938C441.041 92.8938 450.102 92.9695 450.102 93.0727Z" fill="#E0E0E0"/>
<path d="M437.618 105.498C437.618 105.601 428.557 105.677 417.383 105.677C406.21 105.677 397.156 105.601 397.156 105.498C397.156 105.395 406.21 105.319 417.383 105.319C428.557 105.319 437.618 105.402 437.618 105.498Z" fill="#E0E0E0"/>
<path d="M451.533 121.611C451.533 121.707 442.478 121.79 431.305 121.79C420.132 121.79 411.078 121.707 411.078 121.611C411.078 121.514 420.132 121.432 431.305 121.432C442.478 121.432 451.533 121.514 451.533 121.611Z" fill="#E0E0E0"/>
<path d="M414.594 136.004C414.594 136.1 405.533 136.183 394.367 136.183C383.201 136.183 374.133 136.1 374.133 136.004C374.133 135.908 383.187 135.825 394.367 135.825C405.547 135.825 414.594 135.901 414.594 136.004Z" fill="#E0E0E0"/>
<path d="M459.336 136.004C459.336 136.1 450.282 136.183 439.109 136.183C427.936 136.183 418.875 136.1 418.875 136.004C418.875 135.908 427.936 135.825 439.109 135.825C450.282 135.825 459.336 135.901 459.336 136.004Z" fill="#E0E0E0"/>
<path d="M414.587 140.682C414.587 140.785 405.533 140.861 394.36 140.861C383.187 140.861 374.133 140.785 374.133 140.682C374.133 140.579 383.187 140.503 394.36 140.503C405.533 140.503 414.587 140.586 414.587 140.682Z" fill="#E0E0E0"/>
<path d="M416.563 96.4438C416.563 96.5401 407.502 96.6227 396.329 96.6227C385.156 96.6227 376.102 96.5401 376.102 96.4438C376.102 96.3474 385.156 96.2649 396.329 96.2649C407.502 96.2649 416.563 96.3199 416.563 96.4438Z" fill="#E0E0E0"/>
<path d="M405.768 93.1139C402.3 93.3525 398.82 93.3525 395.352 93.1139C398.82 92.8754 402.3 92.8754 405.768 93.1139Z" fill="#E0E0E0"/>
<path d="M384.876 117.297C381.406 117.536 377.923 117.536 374.453 117.297C377.923 117.059 381.406 117.059 384.876 117.297Z" fill="#E0E0E0"/>
<path d="M384.627 121.611C381.159 121.849 377.679 121.849 374.211 121.611C377.679 121.372 381.159 121.372 384.627 121.611Z" fill="#E0E0E0"/>
<path d="M474.921 77.9779C474.921 78.0811 449.699 78.1568 418.601 78.1568C387.503 78.1568 362.281 78.0811 362.281 77.9779C362.281 77.8747 387.49 77.7991 418.601 77.7991C449.712 77.7991 474.921 77.8816 474.921 77.9779Z" fill="#E0E0E0"/>
<path d="M369.874 75.5081C370.611 75.5081 371.209 74.9105 371.209 74.1733C371.209 73.4362 370.611 72.8386 369.874 72.8386C369.137 72.8386 368.539 73.4362 368.539 74.1733C368.539 74.9105 369.137 75.5081 369.874 75.5081Z" fill="white"/>
<path d="M375.608 75.5081C376.345 75.5081 376.943 74.9105 376.943 74.1733C376.943 73.4362 376.345 72.8386 375.608 72.8386C374.871 72.8386 374.273 73.4362 374.273 74.1733C374.273 74.9105 374.871 75.5081 375.608 75.5081Z" fill="white"/>
<path d="M381.335 75.5081C382.072 75.5081 382.669 74.9105 382.669 74.1733C382.669 73.4362 382.072 72.8386 381.335 72.8386C380.598 72.8386 380 73.4362 380 74.1733C380 74.9105 380.598 75.5081 381.335 75.5081Z" fill="white"/>
<path d="M231.73 97.2556H161.891L167.051 47.5063H237.481L231.73 97.2556Z" fill="#EBEBEB"/>
<path d="M169.571 88.9033C169.475 88.9033 170.163 81.411 171.113 72.1918C172.062 62.9726 172.915 55.5009 173.018 55.5078C173.122 55.5147 172.427 63.007 171.47 72.2262C170.514 81.4454 169.668 88.9171 169.571 88.9033Z" fill="#E0E0E0"/>
<path d="M182.315 57.1728C179.985 57.4113 177.636 57.4113 175.305 57.1728C177.636 56.9343 179.985 56.9343 182.315 57.1728Z" fill="#E0E0E0"/>
<path d="M212.112 57.1728C212.112 57.276 205.859 57.3517 198.146 57.3517C190.434 57.3517 184.18 57.276 184.18 57.1728C184.18 57.0696 190.434 56.9939 198.146 56.9939C205.859 56.9939 212.112 57.104 212.112 57.1728Z" fill="#E0E0E0"/>
<path d="M181.456 74.8544C179.125 75.0929 176.776 75.0929 174.445 74.8544C176.776 74.6159 179.125 74.6159 181.456 74.8544Z" fill="#E0E0E0"/>
<path d="M211.292 74.8544C211.292 74.9507 205.038 75.0333 197.326 75.0333C189.613 75.0333 183.359 74.9507 183.359 74.8544C183.359 74.7581 189.613 74.6755 197.326 74.6755C205.038 74.6755 211.292 74.7581 211.292 74.8544Z" fill="#E0E0E0"/>
<path d="M201.777 83.0002C201.777 83.1034 195.524 83.1791 187.811 83.1791C180.099 83.1791 173.852 83.1034 173.852 83.0002C173.852 82.897 180.099 82.8213 187.811 82.8213C195.524 82.8213 201.777 82.9039 201.777 83.0002Z" fill="#E0E0E0"/>
<path d="M185.375 62.1675C183.737 62.3445 182.088 62.4043 180.442 62.3464C178.798 62.4045 177.151 62.3447 175.516 62.1675C177.151 61.9862 178.798 61.9264 180.442 61.9886C182.088 61.9266 183.737 61.9864 185.375 62.1675Z" fill="#E0E0E0"/>
<path d="M185.124 69.4879C183.486 69.669 181.837 69.7288 180.191 69.6667C178.544 69.7288 176.895 69.669 175.258 69.4879C176.896 69.3108 178.544 69.2511 180.191 69.309C181.837 69.2511 183.486 69.3108 185.124 69.4879Z" fill="#E0E0E0"/>
<path d="M193.468 79.9385C191.83 80.1197 190.181 80.1795 188.535 80.1174C186.888 80.1795 185.239 80.1197 183.602 79.9385C185.24 79.7615 186.888 79.7017 188.535 79.7597C190.181 79.7017 191.83 79.7615 193.468 79.9385Z" fill="#E0E0E0"/>
<path d="M221.259 62.1677C221.259 62.264 215.617 62.3465 208.662 62.3465C201.706 62.3465 196.078 62.264 196.078 62.1677C196.078 62.0713 201.72 61.9888 208.682 61.9888C215.645 61.9888 221.259 62.0645 221.259 62.1677Z" fill="#E0E0E0"/>
<path d="M213.476 69.9076C213.476 70.004 207.834 70.0865 200.879 70.0865C193.923 70.0865 188.281 70.004 188.281 69.9076C188.281 69.8113 193.923 69.7288 200.879 69.7288C207.834 69.7288 213.476 69.8113 213.476 69.9076Z" fill="#E0E0E0"/>
<path d="M222.155 79.9386C222.155 80.0418 216.513 80.1175 209.557 80.1175C202.602 80.1175 196.953 80.0418 196.953 79.9386C196.953 79.8354 202.595 79.7598 209.557 79.7598C216.52 79.7598 222.155 79.8423 222.155 79.9386Z" fill="#E0E0E0"/>
<path d="M199.147 88.9032C199.147 89.0064 193.505 89.0821 186.543 89.0821C179.58 89.0821 173.945 89.0064 173.945 88.9032C173.945 88.8 179.587 88.7244 186.543 88.7244C193.498 88.7244 199.147 88.8069 199.147 88.9032Z" fill="#E0E0E0"/>
<path d="M227.037 88.9032C227.037 89.0064 221.396 89.0821 214.44 89.0821C207.484 89.0821 201.836 89.0064 201.836 88.9032C201.836 88.8 207.478 88.7244 214.44 88.7244C221.403 88.7244 227.037 88.8069 227.037 88.9032Z" fill="#E0E0E0"/>
<path d="M199.14 91.8205C199.14 91.9237 193.498 91.9994 186.543 91.9994C179.587 91.9994 173.945 91.9237 173.945 91.8205C173.945 91.7173 179.58 91.6416 186.543 91.6416C193.505 91.6416 199.14 91.7242 199.14 91.8205Z" fill="#E0E0E0"/>
<path d="M200.366 64.266C200.366 64.3692 194.725 64.4449 187.769 64.4449C180.813 64.4449 175.172 64.3692 175.172 64.266C175.172 64.1628 180.813 64.0872 187.769 64.0872C194.725 64.0872 200.366 64.1697 200.366 64.266Z" fill="#E0E0E0"/>
<path d="M193.651 62.1951C191.493 62.4335 189.315 62.4335 187.156 62.1951C189.315 61.9568 191.493 61.9568 193.651 62.1951Z" fill="#E0E0E0"/>
<path d="M180.636 77.2556C178.48 77.4941 176.304 77.4941 174.148 77.2556C176.304 77.017 178.48 77.017 180.636 77.2556Z" fill="#E0E0E0"/>
<path d="M180.479 79.9388C178.321 80.1771 176.143 80.1771 173.984 79.9388C176.143 79.7004 178.321 79.7004 180.479 79.9388Z" fill="#E0E0E0"/>
<path d="M236.715 52.7695C236.715 52.8658 221.015 52.9483 201.627 52.9483C182.239 52.9483 166.539 52.8658 166.539 52.7695C166.539 52.6731 182.239 52.5906 201.627 52.5906C221.015 52.5906 236.715 52.6663 236.715 52.7695Z" fill="#E0E0E0"/>
<path d="M172.125 50.3959C172.12 50.5601 172.066 50.7191 171.97 50.8527C171.875 50.9863 171.742 51.0886 171.588 51.1468C171.434 51.2049 171.267 51.2162 171.107 51.1794C170.947 51.1425 170.801 51.0591 170.688 50.9396C170.575 50.8201 170.5 50.6699 170.473 50.5079C170.445 50.3459 170.466 50.1794 170.533 50.0293C170.6 49.8792 170.71 49.7522 170.849 49.6644C170.988 49.5766 171.149 49.5319 171.314 49.5359C171.424 49.5386 171.532 49.563 171.632 49.6077C171.733 49.6525 171.823 49.7167 171.899 49.7967C171.974 49.8766 172.033 49.9707 172.072 50.0736C172.111 50.1764 172.129 50.286 172.125 50.3959Z" fill="white"/>
<path d="M175.696 50.3959C175.69 50.5593 175.637 50.7174 175.542 50.8507C175.448 50.9839 175.316 51.0863 175.163 51.1451C175.011 51.2039 174.844 51.2165 174.685 51.1814C174.525 51.1462 174.379 51.0648 174.266 50.9474C174.152 50.8299 174.075 50.6816 174.045 50.5209C174.015 50.3602 174.033 50.1943 174.097 50.0438C174.161 49.8932 174.268 49.7648 174.404 49.6745C174.54 49.5842 174.7 49.536 174.863 49.5359C174.975 49.5358 175.086 49.5582 175.188 49.6018C175.291 49.6453 175.384 49.7091 175.462 49.7894C175.54 49.8696 175.6 49.9647 175.64 50.0689C175.681 50.1731 175.699 50.2843 175.696 50.3959Z" fill="white"/>
<path d="M179.266 50.3959C179.261 50.5593 179.207 50.7174 179.113 50.8507C179.018 50.9839 178.886 51.0863 178.734 51.1451C178.581 51.2039 178.415 51.2165 178.255 51.1814C178.095 51.1462 177.95 51.0648 177.836 50.9474C177.722 50.8299 177.646 50.6816 177.616 50.5209C177.586 50.3602 177.604 50.1943 177.667 50.0438C177.731 49.8932 177.838 49.7648 177.974 49.6745C178.11 49.5842 178.27 49.536 178.434 49.5359C178.545 49.5358 178.656 49.5582 178.759 49.6018C178.861 49.6453 178.955 49.7091 179.032 49.7894C179.11 49.8696 179.171 49.9647 179.211 50.0689C179.251 50.1731 179.27 50.2843 179.266 50.3959Z" fill="white"/>
<path d="M421.538 184.074H386.367V297.911H421.538V184.074Z" fill="#EBEBEB"/>
<path d="M451.398 184.095H421.539V297.89H451.398V184.095Z" fill="#E0E0E0"/>
<path d="M417.324 188.684H389.109V213.204H417.324V188.684Z" fill="#E0E0E0"/>
<path d="M417.324 215.984H389.109V240.504H417.324V215.984Z" fill="#E0E0E0"/>
<path d="M417.324 243.284H389.109V267.804H417.324V243.284Z" fill="#E0E0E0"/>
<path d="M417.324 270.59H389.109V295.111H417.324V270.59Z" fill="#E0E0E0"/>
<path d="M403.225 193.211C403.227 193.406 403.17 193.597 403.063 193.76C402.956 193.922 402.803 194.049 402.623 194.125C402.443 194.2 402.245 194.221 402.054 194.184C401.863 194.147 401.687 194.053 401.548 193.916C401.41 193.779 401.316 193.603 401.277 193.412C401.239 193.221 401.258 193.023 401.332 192.843C401.406 192.663 401.532 192.509 401.694 192.4C401.856 192.292 402.047 192.234 402.242 192.234C402.501 192.234 402.751 192.337 402.935 192.52C403.119 192.703 403.224 192.951 403.225 193.211Z" fill="#FAFAFA"/>
<path d="M403.225 220.848C403.227 221.043 403.17 221.234 403.063 221.397C402.956 221.559 402.803 221.686 402.623 221.762C402.443 221.837 402.245 221.858 402.054 221.821C401.863 221.784 401.687 221.69 401.548 221.553C401.41 221.416 401.316 221.24 401.277 221.049C401.239 220.858 401.258 220.66 401.332 220.48C401.406 220.3 401.532 220.146 401.694 220.037C401.856 219.929 402.047 219.871 402.242 219.871C402.501 219.871 402.751 219.974 402.935 220.157C403.119 220.34 403.224 220.588 403.225 220.848Z" fill="#FAFAFA"/>
<path d="M403.225 248.451C403.225 248.645 403.168 248.835 403.06 248.997C402.952 249.159 402.798 249.285 402.618 249.36C402.438 249.434 402.241 249.454 402.05 249.416C401.859 249.378 401.684 249.284 401.546 249.146C401.408 249.009 401.315 248.833 401.277 248.643C401.239 248.452 401.258 248.254 401.333 248.074C401.407 247.894 401.533 247.741 401.695 247.633C401.857 247.524 402.047 247.467 402.242 247.467C402.503 247.467 402.753 247.57 402.937 247.755C403.122 247.939 403.225 248.19 403.225 248.451Z" fill="#FAFAFA"/>
<path d="M403.225 276.067C403.227 276.262 403.17 276.453 403.063 276.615C402.956 276.778 402.803 276.905 402.623 276.981C402.443 277.056 402.245 277.077 402.054 277.039C401.863 277.002 401.687 276.909 401.548 276.772C401.41 276.634 401.316 276.459 401.277 276.268C401.239 276.077 401.258 275.879 401.332 275.699C401.406 275.519 401.532 275.365 401.694 275.256C401.856 275.148 402.047 275.09 402.242 275.09C402.501 275.09 402.751 275.193 402.935 275.376C403.119 275.559 403.224 275.807 403.225 276.067Z" fill="#FAFAFA"/>
<path d="M390.433 297.911H386.367V320.746H390.433V297.911Z" fill="#E0E0E0"/>
<path d="M421.394 297.911H417.328V320.746H421.394V297.911Z" fill="#E0E0E0"/>
<path d="M450.957 297.911H446.891V320.746H450.957V297.911Z" fill="#E0E0E0"/>
<path d="M90.9111 314.299C89.8722 313.412 87.5468 310.591 89.3356 307.309C90.0236 306.112 91.3996 305.513 92.6586 304.984C93.9564 304.545 95.181 303.915 96.2912 303.112C98.2658 301.44 98.8093 298.661 100.117 296.432C101.623 293.879 104.43 291.96 107.396 292.097C110.787 292.249 113.588 295.008 114.902 298.152C116.216 301.296 116.229 304.791 116.278 308.19C116.278 310.068 116.209 312.187 114.819 313.46C113.546 314.629 111.62 314.643 109.886 314.588L91.3101 314.024" fill="#F5F5F5"/>
<path d="M126.388 263.504H77.6016L86.3942 315.661C86.5725 316.746 87.055 317.759 87.7857 318.581C88.5164 319.403 89.4653 320.001 90.5222 320.305L90.6942 320.353C90.8367 320.397 90.9814 320.434 91.1276 320.463C91.4757 320.544 91.8303 320.592 92.1872 320.608V320.656L92.428 320.622H114.169C114.571 320.619 114.972 320.578 115.366 320.498C116.633 320.306 117.802 319.703 118.694 318.782C119.585 317.861 120.149 316.673 120.299 315.4L124.523 279.459L124.716 278.028L126.388 263.793V263.504ZM117.182 296.776H112.18L112.683 281.64H118.483L117.182 296.776ZM118.971 281.64H123.787L121.998 296.776H117.643L118.971 281.64ZM104.667 313.556L104.365 300.408H111.575L111.135 313.556H104.667ZM96.8724 300.408H103.883L104.193 313.556H97.8976L96.8724 300.408ZM97.416 313.556H91.5404C90.9832 310.006 90.2539 305.389 89.4764 300.408H96.3977L97.416 313.556ZM96.5904 296.776L95.407 281.64H103.443L103.794 296.776H96.5904ZM104.282 296.776L103.931 281.64H112.187L111.678 296.776H104.282ZM103.842 278.007L103.519 263.986H112.786L112.318 278.007H103.842ZM103.36 278.007H95.1043L94.0104 263.986H103.016L103.36 278.007ZM94.6364 278.007H85.9264C85.6168 276.074 85.3209 274.237 85.0595 272.592C84.1513 266.923 83.8073 264.79 83.6216 263.986H93.5632L94.6364 278.007ZM94.9254 281.64L96.1019 296.776H88.8985C88.6577 295.241 88.41 293.686 88.1624 292.132C87.5982 288.561 87.034 284.983 86.5043 281.64H94.9254ZM88.41 296.776H83.6972L81.1516 281.64H85.9952L88.41 296.776ZM88.9811 300.408C89.6691 304.956 90.4052 309.442 91.0451 313.556H86.518L84.3027 300.408H88.9811ZM111.616 313.556L112.057 300.408H116.873L115.744 313.556H111.616ZM112.827 278.028L113.295 264.006H120.017L118.82 278.028H112.827ZM83.1812 264.006C83.3739 265.024 84.2614 270.542 85.4585 278.028H80.56L78.1932 264.006H83.1812ZM120.024 313.542H116.267L117.395 300.394H121.585L120.024 313.542ZM124.214 277.993H119.301L120.505 263.972H125.865L124.214 277.993Z" fill="#E0E0E0"/>
<path d="M447.891 320.739C447.891 320.842 358.85 320.918 249.059 320.918C139.268 320.918 50.2266 320.842 50.2266 320.739C50.2266 320.636 139.247 320.56 249.093 320.56C358.939 320.56 447.891 320.642 447.891 320.739Z" fill="#263238"/>
<path d="M272.573 171.917H196.273L201.915 117.565H278.861L272.573 171.917Z" fill="#263238"/>
<path d="M268.689 171.917H192.383L198.024 117.565H274.97L268.689 171.917Z" fill="#455A64"/>
<path d="M265.857 169.454H195.055L200.29 119.024H271.691L265.857 169.454Z" fill="#F5F5F5"/>
<path d="M202.729 161.047C202.626 161.047 203.327 153.445 204.297 144.101C205.268 134.758 206.121 127.177 206.217 127.19C206.313 127.204 205.618 134.758 204.648 144.136C203.678 153.513 202.825 161.054 202.729 161.047Z" fill="#263238"/>
<path d="M215.615 128.876C213.252 129.115 210.871 129.115 208.508 128.876C210.871 128.638 213.252 128.638 215.615 128.876Z" fill="#263238"/>
<path d="M245.858 128.876C245.858 128.972 239.522 129.055 231.699 129.055C223.876 129.055 217.547 128.972 217.547 128.876C217.547 128.78 223.883 128.697 231.699 128.697C239.515 128.697 245.858 128.78 245.858 128.876Z" fill="#008080"/>
<path d="M214.786 146.799C212.42 147.037 210.037 147.037 207.672 146.799C210.037 146.56 212.42 146.56 214.786 146.799Z" fill="#263238"/>
<path d="M245.022 146.799C245.022 146.902 238.686 146.977 230.87 146.977C223.054 146.977 216.711 146.902 216.711 146.799C216.711 146.695 223.047 146.62 230.87 146.62C238.693 146.62 245.022 146.702 245.022 146.799Z" fill="#008080"/>
<path d="M235.374 155.061C235.374 155.158 229.037 155.24 221.222 155.24C213.406 155.24 207.062 155.158 207.062 155.061C207.062 154.965 213.399 154.883 221.222 154.883C229.044 154.883 235.374 154.965 235.374 155.061Z" fill="#008080"/>
<path d="M218.785 133.933C217.124 134.118 215.453 134.18 213.783 134.119C212.113 134.18 210.442 134.118 208.781 133.933C210.442 133.756 212.114 133.696 213.783 133.754C215.452 133.696 217.124 133.756 218.785 133.933Z" fill="#008080"/>
<path d="M218.496 141.356C216.835 141.533 215.163 141.593 213.494 141.535C211.825 141.593 210.153 141.533 208.492 141.356C210.153 141.175 211.825 141.116 213.494 141.177C215.163 141.116 216.835 141.175 218.496 141.356Z" fill="#008080"/>
<path d="M226.957 151.959C225.296 152.135 223.624 152.195 221.955 152.137C220.285 152.195 218.614 152.136 216.953 151.959C218.614 151.777 220.285 151.717 221.955 151.78C223.624 151.718 225.296 151.778 226.957 151.959Z" fill="#008080"/>
<path d="M255.131 133.933C255.131 134.036 249.414 134.119 242.362 134.119C235.31 134.119 229.586 134.036 229.586 133.933C229.586 133.83 235.303 133.754 242.362 133.754C249.421 133.754 255.131 133.836 255.131 133.933Z" fill="#263238"/>
<path d="M247.241 141.783C247.241 141.886 241.523 141.962 234.471 141.962C227.419 141.962 221.695 141.886 221.695 141.783C221.695 141.68 227.413 141.604 234.471 141.604C241.53 141.604 247.241 141.687 247.241 141.783Z" fill="#263238"/>
<path d="M256.036 151.958C256.036 152.055 250.318 152.137 243.266 152.137C236.214 152.137 230.477 152.048 230.477 151.958C230.477 151.869 236.194 151.78 243.253 151.78C250.312 151.78 256.036 151.855 256.036 151.958Z" fill="#263238"/>
<path d="M232.716 161.047C232.716 161.143 226.992 161.226 219.94 161.226C212.888 161.226 207.164 161.143 207.164 161.047C207.164 160.951 212.888 160.868 219.94 160.868C226.992 160.868 232.716 160.944 232.716 161.047Z" fill="#263238"/>
<path d="M260.96 161.047C260.96 161.143 255.242 161.226 248.19 161.226C241.138 161.226 235.414 161.143 235.414 161.047C235.414 160.951 241.131 160.868 248.19 160.868C255.249 160.868 260.96 160.944 260.96 161.047Z" fill="#263238"/>
<path d="M232.71 163.998C232.71 164.102 226.992 164.177 219.94 164.177C212.888 164.177 207.164 164.102 207.164 163.998C207.164 163.895 212.881 163.82 219.94 163.82C226.999 163.82 232.71 163.902 232.71 163.998Z" fill="#263238"/>
<path d="M233.952 136.066C233.952 136.162 228.234 136.244 221.182 136.244C214.13 136.244 208.406 136.162 208.406 136.066C208.406 135.969 214.124 135.887 221.182 135.887C228.241 135.887 233.952 135.969 233.952 136.066Z" fill="#263238"/>
<path d="M227.139 133.967C224.951 134.206 222.743 134.206 220.555 133.967C222.742 133.72 224.951 133.72 227.139 133.967Z" fill="#455A64"/>
<path d="M213.968 149.234C211.782 149.473 209.577 149.473 207.391 149.234C209.577 148.996 211.782 148.996 213.968 149.234Z" fill="#455A64"/>
<path d="M213.788 151.958C211.602 152.197 209.397 152.197 207.211 151.958C209.397 151.72 211.602 151.72 213.788 151.958Z" fill="#455A64"/>
<path d="M270.797 124.411C270.797 124.507 254.877 124.59 235.235 124.59C215.592 124.59 199.672 124.507 199.672 124.411C199.672 124.315 215.592 124.225 235.235 124.225C254.877 124.225 270.797 124.308 270.797 124.411Z" fill="#263238"/>
<path d="M205.317 122.003C205.317 122.171 205.268 122.335 205.174 122.474C205.081 122.613 204.949 122.722 204.793 122.785C204.638 122.849 204.468 122.866 204.304 122.832C204.139 122.799 203.988 122.718 203.87 122.599C203.752 122.48 203.672 122.328 203.64 122.164C203.609 121.999 203.626 121.829 203.691 121.674C203.757 121.52 203.866 121.388 204.006 121.296C204.146 121.204 204.31 121.155 204.478 121.157C204.589 121.157 204.699 121.179 204.801 121.221C204.903 121.264 204.996 121.326 205.074 121.405C205.152 121.484 205.214 121.577 205.256 121.68C205.297 121.782 205.318 121.892 205.317 122.003Z" fill="white"/>
<path d="M208.935 122.003C208.935 122.171 208.885 122.335 208.792 122.474C208.698 122.613 208.566 122.722 208.411 122.785C208.256 122.849 208.085 122.866 207.921 122.832C207.756 122.799 207.606 122.718 207.488 122.599C207.37 122.48 207.289 122.328 207.258 122.164C207.226 121.999 207.243 121.829 207.309 121.674C207.374 121.52 207.483 121.388 207.623 121.296C207.763 121.204 207.928 121.155 208.095 121.157C208.206 121.157 208.316 121.179 208.418 121.221C208.52 121.264 208.613 121.326 208.691 121.405C208.769 121.484 208.831 121.577 208.873 121.68C208.915 121.782 208.936 121.892 208.935 122.003Z" fill="white"/>
<path d="M212.591 122.003C212.591 122.171 212.541 122.335 212.448 122.474C212.355 122.613 212.222 122.722 212.067 122.785C211.912 122.849 211.741 122.866 211.577 122.832C211.413 122.799 211.262 122.718 211.144 122.599C211.026 122.48 210.946 122.328 210.914 122.164C210.882 121.999 210.9 121.829 210.965 121.674C211.03 121.52 211.139 121.388 211.28 121.296C211.42 121.204 211.584 121.155 211.752 121.157C211.862 121.157 211.972 121.179 212.074 121.221C212.177 121.264 212.269 121.326 212.348 121.405C212.426 121.484 212.487 121.577 212.529 121.68C212.571 121.782 212.592 121.892 212.591 122.003Z" fill="white"/>
<path d="M372.801 173.569H292.539L298.47 116.389H379.42L372.801 173.569Z" fill="#263238"/>
<path d="M368.715 173.569H288.453L294.391 116.389H375.334L368.715 173.569Z" fill="#455A64"/>
<path d="M365.742 170.975H291.266L296.77 117.923H371.879L365.742 170.975Z" fill="#EBEBEB"/>
<path d="M299.383 161.329C299.287 161.329 300.03 153.335 301.041 143.503C302.053 133.672 302.961 125.705 303.057 125.718C303.154 125.732 302.411 133.706 301.399 143.544C300.388 153.383 299.48 161.336 299.383 161.329Z" fill="#263238"/>
<path d="M312.939 127.493C310.452 127.732 307.948 127.732 305.461 127.493C307.948 127.245 310.453 127.245 312.939 127.493Z" fill="#263238"/>
<path d="M344.752 127.493C344.752 127.589 338.086 127.672 329.857 127.672C321.629 127.672 314.969 127.589 314.969 127.493C314.969 127.397 321.635 127.307 329.857 127.307C338.079 127.307 344.752 127.39 344.752 127.493Z" fill="#008080"/>
<path d="M312.057 146.344C309.57 146.583 307.065 146.583 304.578 146.344C307.065 146.106 309.57 146.106 312.057 146.344Z" fill="#263238"/>
<path d="M343.877 146.344C343.877 146.441 337.204 146.523 328.982 146.523C320.76 146.523 314.094 146.441 314.094 146.344C314.094 146.248 320.76 146.166 328.982 146.166C337.204 146.166 343.877 146.248 343.877 146.344Z" fill="#008080"/>
<path d="M333.729 155.034C333.729 155.137 327.062 155.213 318.841 155.213C310.619 155.213 303.945 155.137 303.945 155.034C303.945 154.931 310.612 154.855 318.841 154.855C327.069 154.855 333.729 154.938 333.729 155.034Z" fill="#008080"/>
<path d="M316.238 132.784C312.736 133.022 309.221 133.022 305.719 132.784C309.221 132.545 312.736 132.545 316.238 132.784Z" fill="#008080"/>
<path d="M315.965 140.613C312.463 140.861 308.947 140.861 305.445 140.613C308.948 140.375 312.462 140.375 315.965 140.613Z" fill="#008080"/>
<path d="M324.863 151.773C321.361 152.011 317.846 152.011 314.344 151.773C317.846 151.534 321.361 151.534 324.863 151.773Z" fill="#008080"/>
<path d="M354.506 132.784C354.506 132.887 348.493 132.963 341.069 132.963C333.646 132.963 327.633 132.887 327.633 132.784C327.633 132.681 333.646 132.605 341.069 132.605C348.493 132.605 354.506 132.715 354.506 132.784Z" fill="#263238"/>
<path d="M346.209 141.04C346.209 141.143 340.189 141.219 332.773 141.219C325.356 141.219 319.336 141.143 319.336 141.04C319.336 140.937 325.349 140.861 332.773 140.861C340.196 140.861 346.209 140.971 346.209 141.04Z" fill="#263238"/>
<path d="M355.459 151.773C355.459 151.869 349.439 151.952 342.023 151.952C334.606 151.952 328.586 151.869 328.586 151.773C328.586 151.676 334.599 151.594 342.023 151.594C349.446 151.594 355.459 151.669 355.459 151.773Z" fill="#263238"/>
<path d="M330.928 161.329C330.928 161.425 324.915 161.508 317.491 161.508C310.068 161.508 304.055 161.425 304.055 161.329C304.055 161.233 310.075 161.15 317.491 161.15C324.908 161.15 330.928 161.233 330.928 161.329Z" fill="#263238"/>
<path d="M360.639 161.329C360.639 161.425 354.619 161.508 347.202 161.508C339.786 161.508 333.766 161.425 333.766 161.329C333.766 161.233 339.779 161.15 347.202 161.15C354.626 161.15 360.639 161.233 360.639 161.329Z" fill="#263238"/>
<path d="M330.928 164.432C330.928 164.528 324.915 164.611 317.491 164.611C310.068 164.611 304.055 164.528 304.055 164.432C304.055 164.336 310.068 164.253 317.491 164.253C324.915 164.253 330.928 164.343 330.928 164.432Z" fill="#263238"/>
<path d="M332.225 135.054C332.225 135.151 326.212 135.233 318.788 135.233C311.365 135.233 305.352 135.151 305.352 135.054C305.352 134.958 311.365 134.875 318.788 134.875C326.212 134.875 332.225 134.958 332.225 135.054Z" fill="#263238"/>
<path d="M325.054 132.839C322.753 133.078 320.434 133.078 318.133 132.839C320.434 132.601 322.753 132.601 325.054 132.839Z" fill="#455A64"/>
<path d="M311.179 148.904C308.878 149.142 306.559 149.142 304.258 148.904C306.559 148.665 308.878 148.665 311.179 148.904Z" fill="#455A64"/>
<path d="M311.015 151.773C308.714 152.011 306.395 152.011 304.094 151.773C306.395 151.534 308.714 151.534 311.015 151.773Z" fill="#455A64"/>
<path d="M370.985 122.787C370.985 122.89 354.239 122.966 333.578 122.966C312.918 122.966 296.172 122.89 296.172 122.787C296.172 122.684 312.918 122.608 333.578 122.608C354.239 122.608 370.985 122.691 370.985 122.787Z" fill="#263238"/>
<path d="M302.103 120.262C302.103 120.438 302.051 120.609 301.954 120.755C301.856 120.901 301.717 121.015 301.555 121.082C301.393 121.149 301.215 121.167 301.042 121.133C300.87 121.099 300.712 121.014 300.588 120.89C300.464 120.766 300.379 120.608 300.345 120.435C300.311 120.263 300.329 120.085 300.396 119.923C300.463 119.76 300.577 119.622 300.723 119.524C300.869 119.427 301.04 119.375 301.216 119.375C301.332 119.374 301.448 119.396 301.556 119.44C301.664 119.485 301.763 119.55 301.845 119.633C301.928 119.715 301.993 119.813 302.037 119.922C302.082 120.03 302.104 120.146 302.103 120.262Z" fill="white"/>
<path d="M305.908 120.262C305.908 120.438 305.856 120.609 305.758 120.755C305.661 120.901 305.522 121.015 305.36 121.082C305.198 121.149 305.019 121.167 304.847 121.133C304.675 121.099 304.517 121.014 304.393 120.89C304.269 120.766 304.184 120.608 304.15 120.435C304.116 120.263 304.133 120.085 304.2 119.923C304.268 119.76 304.381 119.622 304.527 119.524C304.673 119.427 304.845 119.375 305.02 119.375C305.137 119.374 305.253 119.396 305.361 119.44C305.469 119.485 305.567 119.55 305.65 119.633C305.733 119.715 305.798 119.813 305.842 119.922C305.886 120.03 305.909 120.146 305.908 120.262Z" fill="white"/>
<path d="M309.72 120.262C309.72 120.438 309.668 120.609 309.571 120.755C309.473 120.901 309.335 121.015 309.172 121.082C309.01 121.149 308.832 121.167 308.66 121.133C308.488 121.099 308.329 121.014 308.205 120.89C308.081 120.766 307.997 120.608 307.962 120.435C307.928 120.263 307.946 120.085 308.013 119.923C308.08 119.76 308.194 119.622 308.34 119.524C308.486 119.427 308.657 119.375 308.833 119.375C308.95 119.374 309.065 119.396 309.174 119.44C309.282 119.485 309.38 119.55 309.462 119.633C309.545 119.715 309.61 119.813 309.655 119.922C309.699 120.03 309.721 120.146 309.72 120.262Z" fill="white"/>
<path d="M327.009 105.883H250.359L256.029 51.2834H333.325L327.009 105.883Z" fill="#263238"/>
<path d="M323.111 105.883H246.461L252.13 51.2834H329.427L323.111 105.883Z" fill="#455A64"/>
<path d="M320.259 103.413H249.141L254.397 52.7488H326.121L320.259 103.413Z" fill="#FAFAFA"/>
<path d="M256.962 94.9439C256.866 94.9439 257.574 87.3071 258.544 77.9228C259.514 68.5385 260.374 60.9223 260.478 60.9361C260.581 60.9498 259.865 68.566 258.895 77.9572C257.925 87.3484 257.065 94.9439 256.962 94.9439Z" fill="#263238"/>
<path d="M269.915 62.6078C267.54 62.8463 265.148 62.8463 262.773 62.6078C265.148 62.3693 267.54 62.3693 269.915 62.6078Z" fill="#263238"/>
<path d="M300.286 62.6078C300.286 62.7042 293.922 62.7867 286.065 62.7867C278.208 62.7867 271.844 62.7042 271.844 62.6078C271.844 62.5115 278.208 62.429 286.065 62.429C293.922 62.429 300.286 62.4909 300.286 62.6078Z" fill="#008080"/>
<path d="M269.071 80.599C266.697 80.8376 264.304 80.8376 261.93 80.599C264.304 80.3605 266.697 80.3605 269.071 80.599Z" fill="#263238"/>
<path d="M299.45 80.599C299.45 80.6954 293.079 80.7779 285.229 80.7779C277.379 80.7779 271.008 80.6954 271.008 80.599C271.008 80.5027 277.372 80.4202 285.229 80.4202C293.086 80.4202 299.45 80.4958 299.45 80.599Z" fill="#008080"/>
<path d="M289.762 88.8964C289.762 88.9927 283.391 89.0753 275.541 89.0753C267.691 89.0753 261.32 88.9927 261.32 88.8964C261.32 88.8001 267.684 88.7175 275.541 88.7175C283.398 88.7175 289.762 88.8001 289.762 88.8964Z" fill="#008080"/>
<path d="M273.06 67.6784C269.716 67.9169 266.36 67.9169 263.016 67.6784C266.36 67.4399 269.716 67.4399 273.06 67.6784Z" fill="#008080"/>
<path d="M272.803 75.1296C269.459 75.3681 266.102 75.3681 262.758 75.1296C266.102 74.8911 269.459 74.8911 272.803 75.1296Z" fill="#008080"/>
<path d="M281.295 85.7797C277.951 86.0182 274.594 86.0182 271.25 85.7797C274.594 85.5412 277.951 85.5412 281.295 85.7797Z" fill="#008080"/>
<path d="M309.6 67.6784C309.6 67.7747 303.855 67.8573 296.769 67.8573C289.682 67.8573 283.938 67.7747 283.938 67.6784C283.938 67.5821 289.675 67.4995 296.769 67.4995C303.862 67.4995 309.6 67.5752 309.6 67.6784Z" fill="#263238"/>
<path d="M301.678 75.5629C301.678 75.6592 295.933 75.7418 288.847 75.7418C281.76 75.7418 276.016 75.6592 276.016 75.5629C276.016 75.4666 281.76 75.384 288.847 75.384C295.933 75.384 301.678 75.4597 301.678 75.5629Z" fill="#263238"/>
<path d="M310.514 85.7797C310.514 85.876 304.769 85.9586 297.683 85.9586C290.596 85.9586 284.852 85.876 284.852 85.7797C284.852 85.6834 290.596 85.6008 297.683 85.6008C304.769 85.6008 310.514 85.6765 310.514 85.7797Z" fill="#263238"/>
<path d="M287.079 94.944C287.079 95.0403 281.334 95.1229 274.248 95.1229C267.162 95.1229 261.438 95.0059 261.438 94.944C261.438 94.8821 267.182 94.7651 274.269 94.7651C281.355 94.7651 287.079 94.8064 287.079 94.944Z" fill="#263238"/>
<path d="M315.459 94.944C315.459 95.0403 309.714 95.1229 302.628 95.1229C295.542 95.1229 289.797 95.0403 289.797 94.944C289.797 94.8477 295.542 94.7651 302.628 94.7651C309.714 94.7651 315.459 94.8064 315.459 94.944Z" fill="#263238"/>
<path d="M287.076 97.8749C287.076 97.9781 281.332 98.0538 274.245 98.0538C267.159 98.0538 261.414 97.9781 261.414 97.8749C261.414 97.7717 267.159 97.696 274.245 97.696C281.332 97.696 287.076 97.7786 287.076 97.8749Z" fill="#263238"/>
<path d="M288.326 69.8183C288.326 69.9146 282.582 69.9972 275.495 69.9972C268.409 69.9972 262.664 69.9146 262.664 69.8183C262.664 69.722 268.409 69.6394 275.495 69.6394C282.582 69.6394 288.326 69.7151 288.326 69.8183Z" fill="#263238"/>
<path d="M281.487 67.706C279.289 67.9445 277.072 67.9445 274.875 67.706C277.072 67.4675 279.289 67.4675 281.487 67.706Z" fill="#455A64"/>
<path d="M268.229 83.0414C266.031 83.2799 263.815 83.2799 261.617 83.0414C263.815 82.8029 266.031 82.8029 268.229 83.0414Z" fill="#455A64"/>
<path d="M268.08 85.7797C265.883 86.0182 263.666 86.0182 261.469 85.7797C263.666 85.5412 265.883 85.5412 268.08 85.7797Z" fill="#455A64"/>
<path d="M325.337 58.1015C325.337 58.2047 309.348 58.2872 289.623 58.2872C269.898 58.2872 253.867 58.2047 253.867 58.1015C253.867 57.9983 269.856 57.9226 289.595 57.9226C309.334 57.9226 325.337 58.0052 325.337 58.1015Z" fill="#263238"/>
<path d="M258.721 56.5328C259.189 56.5328 259.567 56.1539 259.567 55.6866C259.567 55.2192 259.189 54.8403 258.721 54.8403C258.254 54.8403 257.875 55.2192 257.875 55.6866C257.875 56.1539 258.254 56.5328 258.721 56.5328Z" fill="white"/>
<path d="M262.354 56.5328C262.821 56.5328 263.2 56.1539 263.2 55.6866C263.2 55.2192 262.821 54.8403 262.354 54.8403C261.887 54.8403 261.508 55.2192 261.508 55.6866C261.508 56.1539 261.887 56.5328 262.354 56.5328Z" fill="white"/>
<path d="M265.987 56.5328C266.454 56.5328 266.833 56.1539 266.833 55.6866C266.833 55.2192 266.454 54.8403 265.987 54.8403C265.519 54.8403 265.141 55.2192 265.141 55.6866C265.141 56.1539 265.519 56.5328 265.987 56.5328Z" fill="white"/>
<path d="M197.167 312.139H191.195V320.285H197.167V312.139Z" fill="#263238"/>
<path d="M229.173 217.085H282.156V214.505H229.173V217.085Z" fill="#263238"/>
<path d="M290.371 217.085L300.313 179.843H258.937L249.938 217.085H290.371Z" fill="#263238"/>
<path d="M252.414 214.271H289.373L297.973 181.563H260.821L252.414 214.271Z" fill="#F5F5F5"/>
<path d="M261.744 187.9L259.453 197.16H283.96L286.574 187.9H261.744Z" fill="#E0E0E0"/>
<path d="M281.391 186.675C281.391 186.778 277.097 186.854 271.793 186.854C266.488 186.854 262.195 186.778 262.195 186.675C262.195 186.572 266.488 186.496 271.793 186.496C277.097 186.496 281.391 186.579 281.391 186.675Z" fill="#455A64"/>
<path d="M270.24 189.668C267.666 189.906 265.074 189.906 262.5 189.668C265.074 189.429 267.666 189.429 270.24 189.668Z" fill="#263238"/>
<path d="M276.442 189.523C274.772 189.762 273.076 189.762 271.406 189.523C273.076 189.285 274.772 189.285 276.442 189.523Z" fill="#263238"/>
<path d="M283.45 191.347C283.45 191.45 278.71 191.532 272.862 191.532C267.014 191.532 262.273 191.45 262.273 191.347C262.273 191.243 267.014 191.168 272.862 191.168C278.71 191.168 283.45 191.264 283.45 191.347Z" fill="#455A64"/>
<path d="M268.7 192.881C266.413 193.121 264.107 193.121 261.82 192.881C264.107 192.641 266.413 192.641 268.7 192.881Z" fill="#008080"/>
<path d="M281.556 195.076C281.556 195.172 277.16 195.254 271.739 195.254C266.317 195.254 261.914 195.172 261.914 195.076C261.914 194.979 266.31 194.897 271.739 194.897C277.167 194.897 281.556 194.972 281.556 195.076Z" fill="#455A64"/>
<path d="M267.099 199.816C264.582 200.053 262.048 200.053 259.531 199.816C262.048 199.579 264.582 199.579 267.099 199.816Z" fill="#455A64"/>
<path d="M273.595 199.85C272.741 200.017 271.869 200.07 271.001 200.009C270.133 200.062 269.262 199.992 268.414 199.802C269.268 199.636 270.14 199.582 271.008 199.644C271.876 199.591 272.746 199.66 273.595 199.85Z" fill="#263238"/>
<path d="M277.265 199.671C277.265 199.775 276.77 199.85 276.164 199.85C275.559 199.85 275.07 199.775 275.07 199.671C275.07 199.568 275.566 199.492 276.164 199.492C276.763 199.492 277.265 199.575 277.265 199.671Z" fill="#263238"/>
<path d="M262.063 201.715C262.063 201.818 261.52 201.894 260.852 201.894C260.185 201.894 259.648 201.818 259.648 201.715C259.648 201.612 260.192 201.536 260.852 201.536C261.513 201.536 262.063 201.618 262.063 201.715Z" fill="#008080"/>
<path d="M269.289 201.715C267.374 201.953 265.438 201.953 263.523 201.715C265.438 201.476 267.374 201.476 269.289 201.715Z" fill="#263238"/>
<path d="M286.514 201.495C286.514 201.598 283.074 201.673 278.815 201.673C274.556 201.673 271.109 201.598 271.109 201.495C271.109 201.391 274.549 201.316 278.815 201.316C283.081 201.316 286.514 201.398 286.514 201.495Z" fill="#455A64"/>
<path d="M261.696 203.689C261.696 203.786 261.145 203.868 260.457 203.868C259.769 203.868 259.219 203.786 259.219 203.689C259.219 203.593 259.769 203.51 260.457 203.51C261.145 203.51 261.696 203.586 261.696 203.689Z" fill="#263238"/>
<path d="M265.493 203.648C265.016 203.825 264.505 203.887 264 203.827C263.493 203.886 262.979 203.825 262.5 203.648C262.98 203.475 263.493 203.414 264 203.469C264.505 203.413 265.015 203.475 265.493 203.648Z" fill="#263238"/>
<path d="M276.809 203.469C273.578 203.708 270.333 203.708 267.102 203.469C270.333 203.231 273.578 203.231 276.809 203.469Z" fill="#455A64"/>
<path d="M270.821 206.902C268.868 207.079 266.906 207.139 264.946 207.081C262.986 207.139 261.023 207.08 259.07 206.902C261.023 206.721 262.986 206.661 264.946 206.724C266.906 206.662 268.868 206.721 270.821 206.902Z" fill="#455A64"/>
<path d="M277.684 206.751C275.917 206.989 274.126 206.989 272.359 206.751C274.126 206.512 275.917 206.512 277.684 206.751Z" fill="#008080"/>
<path d="M287.873 206.751C284.933 206.989 281.979 206.989 279.039 206.751C281.979 206.512 284.933 206.512 287.873 206.751Z" fill="#263238"/>
<path d="M285.518 186.531C285.518 186.634 285.105 186.71 284.603 186.71C284.1 186.71 283.688 186.634 283.688 186.531C283.688 186.427 284.1 186.352 284.603 186.352C285.105 186.352 285.518 186.448 285.518 186.531Z" fill="#263238"/>
<path d="M266.877 185.292C265.549 185.531 264.188 185.531 262.859 185.292C264.188 185.054 265.549 185.054 266.877 185.292Z" fill="#008080"/>
<path d="M297.355 183.916H260.203L260.829 181.563H297.981L297.355 183.916Z" fill="#EBEBEB"/>
<path d="M262.39 183.159C262.614 183.159 262.796 182.978 262.796 182.754C262.796 182.529 262.614 182.348 262.39 182.348C262.166 182.348 261.984 182.529 261.984 182.754C261.984 182.978 262.166 183.159 262.39 183.159Z" fill="#FAFAFA"/>
<path d="M263.789 183.159C264.013 183.159 264.195 182.978 264.195 182.754C264.195 182.529 264.013 182.348 263.789 182.348C263.565 182.348 263.383 182.529 263.383 182.754C263.383 182.978 263.565 183.159 263.789 183.159Z" fill="#FAFAFA"/>
<path d="M265.187 183.159C265.411 183.159 265.593 182.978 265.593 182.754C265.593 182.529 265.411 182.348 265.187 182.348C264.963 182.348 264.781 182.529 264.781 182.754C264.781 182.978 264.963 183.159 265.187 183.159Z" fill="#FAFAFA"/>
<path d="M342.638 220.552H254.547V271.953H342.638V220.552Z" fill="#263238"/>
<path d="M294.678 220.552H254.547V271.953H294.678V220.552Z" fill="#455A64"/>
<path d="M290.591 238.007C290.581 237.92 290.581 237.832 290.591 237.745V236.995C290.591 236.307 290.591 235.365 290.557 234.14C290.557 231.657 290.516 228.106 290.488 223.731L290.619 223.862L258.338 223.91L258.517 223.731V227.439C258.517 228.664 258.517 229.881 258.517 231.072C258.517 233.459 258.517 235.778 258.517 237.993L258.352 237.828L281.475 237.904L288.19 237.952H289.993H290.468H290.633H290.488H290.034H288.266L281.585 237.993L258.352 238.076H258.18V237.904C258.18 235.688 258.18 233.37 258.18 230.982V223.745L258.359 223.566L290.64 223.614H290.77V223.745C290.736 228.155 290.715 231.732 290.695 234.23C290.695 235.441 290.695 236.39 290.695 237.057V237.787C290.598 237.931 290.591 238.048 290.591 238.007Z" fill="#263238"/>
<path d="M275.819 230.872C275.729 230.482 275.511 230.133 275.2 229.881C275.032 229.764 274.839 229.69 274.636 229.665C274.433 229.64 274.228 229.664 274.037 229.737C273.807 229.825 273.609 229.981 273.47 230.184C273.33 230.386 273.254 230.626 273.252 230.872C273.256 231.118 273.332 231.357 273.472 231.559C273.612 231.761 273.808 231.917 274.037 232.007C274.229 232.077 274.434 232.1 274.637 232.074C274.839 232.047 275.032 231.973 275.2 231.856C275.509 231.602 275.726 231.254 275.819 230.865C275.819 230.865 275.881 230.989 275.819 231.216C275.763 231.546 275.59 231.844 275.33 232.055C275.133 232.216 274.898 232.324 274.648 232.369C274.397 232.413 274.14 232.393 273.899 232.31C273.598 232.207 273.337 232.012 273.152 231.753C272.967 231.494 272.867 231.184 272.867 230.865C272.867 230.547 272.967 230.237 273.152 229.977C273.337 229.718 273.598 229.524 273.899 229.42C274.139 229.337 274.396 229.315 274.647 229.359C274.897 229.402 275.133 229.508 275.33 229.668C275.59 229.879 275.763 230.178 275.819 230.507C275.888 230.748 275.839 230.872 275.819 230.872Z" fill="#263238"/>
<path d="M290.587 253.727C290.577 253.638 290.577 253.548 290.587 253.459V252.709C290.587 252.021 290.587 251.079 290.552 249.854C290.552 247.377 290.511 243.827 290.484 239.445L290.614 239.575L258.333 239.63L258.512 239.451V243.16C258.512 244.391 258.512 245.602 258.512 246.799C258.512 249.187 258.512 251.505 258.512 253.721L258.347 253.549L281.471 253.631L288.186 253.679H289.988H290.463H290.628H290.484H290.029H288.261L281.581 253.727L258.347 253.81H258.175V253.638C258.175 251.423 258.175 249.104 258.175 246.717V239.458C258.134 239.458 258.512 239.114 258.354 239.273L290.635 239.328H290.766V239.424C290.731 243.841 290.711 247.418 290.69 249.916C290.69 251.127 290.69 252.069 290.69 252.744V253.466C290.594 253.652 290.587 253.734 290.587 253.727Z" fill="#263238"/>
<path d="M275.819 246.586C275.722 246.205 275.505 245.864 275.2 245.616C275.016 245.485 274.8 245.407 274.576 245.39C274.351 245.374 274.126 245.419 273.925 245.521C273.725 245.623 273.556 245.778 273.437 245.97C273.318 246.161 273.255 246.382 273.252 246.607C273.254 246.853 273.33 247.093 273.47 247.295C273.609 247.498 273.807 247.654 274.037 247.742C274.228 247.815 274.433 247.839 274.636 247.814C274.839 247.789 275.032 247.715 275.2 247.598C275.51 247.345 275.728 246.996 275.819 246.607C275.819 246.607 275.881 246.731 275.819 246.958C275.763 247.288 275.59 247.586 275.33 247.797C275.133 247.958 274.898 248.066 274.648 248.11C274.397 248.155 274.14 248.135 273.899 248.052C273.598 247.948 273.337 247.754 273.152 247.495C272.967 247.236 272.867 246.925 272.867 246.607C272.867 246.288 272.967 245.978 273.152 245.719C273.337 245.46 273.598 245.265 273.899 245.162C274.14 245.079 274.397 245.059 274.648 245.103C274.898 245.148 275.133 245.256 275.33 245.417C275.59 245.628 275.763 245.926 275.819 246.256C275.888 246.462 275.839 246.586 275.819 246.586Z" fill="#263238"/>
<path d="M290.591 269.442C290.581 269.355 290.581 269.267 290.591 269.18V268.43C290.591 267.742 290.591 266.8 290.557 265.575C290.557 263.091 290.516 259.541 290.488 255.166L290.619 255.296L258.338 255.344L258.517 255.166V258.874C258.517 260.099 258.517 261.316 258.517 262.507C258.517 264.894 258.517 267.212 258.517 269.428L258.352 269.263L281.475 269.338L288.19 269.387H289.993H290.468H290.633H290.488H290.034H288.266L281.585 269.428L258.352 269.51H258.18V269.338C258.18 267.123 258.18 264.804 258.18 262.417V255.179L258.359 255L290.64 255.049H290.77V255.179C290.736 259.589 290.715 263.167 290.695 265.664C290.695 266.875 290.695 267.825 290.695 268.492V269.221C290.598 269.366 290.591 269.448 290.591 269.442Z" fill="#263238"/>
<path d="M275.819 262.307C275.729 261.917 275.511 261.568 275.2 261.316C275.032 261.199 274.839 261.125 274.636 261.1C274.433 261.074 274.228 261.099 274.037 261.172C273.807 261.26 273.609 261.416 273.47 261.618C273.33 261.821 273.254 262.061 273.252 262.307C273.255 262.532 273.318 262.753 273.437 262.944C273.556 263.135 273.725 263.291 273.925 263.393C274.126 263.495 274.351 263.54 274.576 263.523C274.8 263.507 275.016 263.429 275.2 263.298C275.509 263.044 275.726 262.696 275.819 262.307C275.819 262.307 275.881 262.431 275.819 262.658C275.763 262.988 275.59 263.286 275.33 263.497C275.133 263.658 274.898 263.766 274.648 263.81C274.397 263.855 274.14 263.835 273.899 263.752C273.598 263.648 273.337 263.454 273.152 263.195C272.967 262.936 272.867 262.625 272.867 262.307C272.867 261.989 272.967 261.678 273.152 261.419C273.337 261.16 273.598 260.965 273.899 260.862C274.139 260.778 274.396 260.757 274.647 260.8C274.897 260.844 275.133 260.95 275.33 261.11C275.59 261.321 275.763 261.619 275.819 261.949C275.888 262.183 275.839 262.307 275.819 262.307Z" fill="#263238"/>
<path d="M195.88 313.79L137.008 313.742V220.552H195.88V313.79Z" fill="#263238"/>
<path d="M345.834 216.968H134.164V221.853H345.834V216.968Z" fill="#263238"/>
<path d="M143.571 221.853H137.008V320.718H143.571V221.853Z" fill="#263238"/>
<path d="M342.634 221.853H336.07V320.746H342.634V221.853Z" fill="#263238"/>
<path d="M301.235 221.853H294.672V320.746H301.235V221.853Z" fill="#263238"/>
<path d="M163.93 216.968C163.93 217.064 157.622 217.147 149.84 217.147C142.059 217.147 135.75 217.064 135.75 216.968C135.75 216.871 142.059 216.789 149.84 216.789C157.622 216.789 163.93 216.864 163.93 216.968Z" fill="#455A64"/>
<path d="M225.82 315.902L225.986 308.836L212.742 308.437L212.391 318.757L213.209 318.833C216.856 319.149 231.785 320.168 234.242 319.521C236.994 318.778 225.82 315.902 225.82 315.902Z" fill="#008080"/>
<g opacity="0.4">
<path d="M231.269 317.505C231.269 317.505 235.184 318.757 234.668 319.397C234.152 320.037 219.037 319.562 212.391 318.778V318.482L230.024 319.17C230.024 319.17 230.478 317.512 231.269 317.505Z" fill="white"/>
</g>
<path d="M212.211 318.468H212.438L213.126 318.53L215.527 318.709C217.557 318.847 220.343 318.991 223.467 319.094C226.59 319.198 229.383 319.218 231.42 319.211C229.39 319.211 226.604 319.143 223.473 319.046C220.343 318.95 217.564 318.819 215.534 318.709L213.126 318.585H212.438L212.211 318.468Z" fill="#263238"/>
<path d="M230.039 319.377C230.157 318.98 230.321 318.599 230.528 318.241C230.777 317.914 231.061 317.614 231.374 317.347C230.973 317.511 230.63 317.792 230.392 318.155C230.154 318.517 230.031 318.943 230.039 319.377Z" fill="#263238"/>
<path d="M226.193 317.278C226.227 317.278 226.427 317.079 226.626 316.783C226.826 316.487 226.963 316.219 226.929 316.198C226.895 316.177 226.695 316.391 226.495 316.693C226.296 316.996 226.158 317.251 226.193 317.278Z" fill="#263238"/>
<path d="M225.136 316.68C225.136 316.68 225.377 316.576 225.611 316.377C225.844 316.177 226.01 315.992 225.982 315.957C225.955 315.923 225.741 316.06 225.507 316.26C225.273 316.459 225.108 316.645 225.136 316.68Z" fill="#263238"/>
<path d="M224.5 315.407C224.719 315.491 224.954 315.528 225.188 315.517C225.419 315.552 225.654 315.533 225.876 315.462C225.657 315.379 225.422 315.341 225.188 315.352C224.81 315.338 224.5 315.359 224.5 315.407Z" fill="#263238"/>
<path d="M224.289 314.519C224.514 314.674 224.78 314.76 225.053 314.767C225.321 314.819 225.599 314.791 225.851 314.684C225.593 314.631 225.33 314.606 225.067 314.609C224.812 314.55 224.551 314.52 224.289 314.519Z" fill="#263238"/>
<path d="M226.68 316.136C226.96 316.184 227.246 316.184 227.526 316.136C227.835 316.105 228.142 316.048 228.441 315.964C228.622 315.916 228.797 315.85 228.964 315.765C229.067 315.711 229.146 315.62 229.184 315.51C229.2 315.447 229.198 315.382 229.177 315.32C229.156 315.259 229.118 315.206 229.067 315.166C228.747 314.997 228.378 314.943 228.024 315.015C227.669 315.086 227.349 315.278 227.12 315.558C226.984 315.724 226.884 315.916 226.824 316.122C226.809 316.197 226.809 316.274 226.824 316.349C226.923 316.099 227.062 315.866 227.237 315.661C227.434 315.444 227.689 315.288 227.973 315.214C228.312 315.114 228.677 315.149 228.991 315.31C229.122 315.414 229.06 315.572 228.909 315.661C228.754 315.737 228.593 315.8 228.427 315.847C228.137 315.937 227.84 316.006 227.54 316.053C227.037 316.115 226.68 316.109 226.68 316.136Z" fill="#263238"/>
<path d="M226.892 316.184C227.002 316.01 227.043 315.802 227.009 315.599C226.991 315.374 226.918 315.157 226.796 314.966C226.729 314.839 226.63 314.73 226.51 314.651C226.39 314.571 226.251 314.524 226.108 314.512C226.02 314.527 225.942 314.576 225.891 314.649C225.839 314.721 225.818 314.81 225.832 314.898C225.85 315.035 225.897 315.166 225.97 315.283C226.073 315.474 226.203 315.65 226.355 315.806C226.483 315.962 226.646 316.087 226.83 316.17C226.83 316.17 226.665 316.012 226.438 315.73C226.308 315.57 226.195 315.398 226.101 315.214C225.991 315.028 225.915 314.705 226.135 314.671C226.355 314.636 226.555 314.877 226.679 315.049C226.795 315.218 226.873 315.41 226.906 315.613C226.921 315.803 226.916 315.995 226.892 316.184Z" fill="#263238"/>
<path d="M212.586 314.849C212.586 314.884 212.971 314.849 213.563 314.918C214.342 315.025 215.074 315.351 215.674 315.859C216.273 316.367 216.715 317.036 216.948 317.787C217.037 318.102 217.111 318.421 217.168 318.743C217.186 318.655 217.186 318.564 217.168 318.475C217.145 318.243 217.103 318.013 217.044 317.787C216.831 317.001 216.384 316.297 215.762 315.77C215.141 315.243 214.374 314.917 213.563 314.836C213.32 314.811 213.076 314.811 212.834 314.836C212.751 314.83 212.668 314.835 212.586 314.849Z" fill="#263238"/>
<path d="M214.133 309.38C214.017 310.281 213.95 311.189 213.933 312.097C213.87 313.013 213.858 313.932 213.899 314.849C214.015 313.948 214.082 313.041 214.098 312.132C214.166 311.216 214.177 310.297 214.133 309.38Z" fill="#263238"/>
<path d="M218.898 317.574C219.527 317.743 220.174 317.829 220.825 317.828C221.473 317.878 222.125 317.846 222.765 317.732C222.765 317.684 221.898 317.732 220.832 317.67C219.765 317.608 218.905 317.533 218.898 317.574Z" fill="#263238"/>
<path d="M216.305 317.491C216.305 317.491 216.367 317.677 216.449 317.877C216.532 318.076 216.573 318.262 216.621 318.255C216.669 318.248 216.697 318.049 216.621 317.822C216.545 317.595 216.332 317.464 216.305 317.491Z" fill="#263238"/>
<path d="M215.344 316.246C215.344 316.246 215.392 316.418 215.523 316.563C215.653 316.707 215.791 316.797 215.825 316.762C215.86 316.728 215.777 316.597 215.64 316.453C215.502 316.308 215.399 316.219 215.344 316.246Z" fill="#263238"/>
<path d="M213.969 315.648C213.969 315.696 214.155 315.696 214.347 315.771C214.54 315.847 214.677 315.95 214.712 315.923C214.746 315.895 214.643 315.709 214.402 315.62C214.161 315.531 213.969 315.606 213.969 315.648Z" fill="#263238"/>
<path d="M212.984 315.352C212.984 315.393 213.046 315.462 213.15 315.51C213.253 315.558 213.363 315.558 213.377 315.51C213.39 315.462 213.322 315.393 213.211 315.352C213.101 315.31 213.005 315.31 212.984 315.352Z" fill="#263238"/>
<g opacity="0.3">
<path d="M212.615 314.499L225.852 314.684L225.879 313.088L212.539 313.652L212.615 314.499Z" fill="black"/>
</g>
<path d="M246.709 317.003V309.93L233.458 309.882L233.383 320.202L234.202 320.257C237.855 320.47 252.778 321.096 255.247 320.367C257.958 319.576 246.709 317.003 246.709 317.003Z" fill="#008080"/>
<g opacity="0.4">
<path d="M252.196 318.455C252.196 318.455 256.138 319.61 255.636 320.257C255.134 320.904 240.018 320.842 233.352 320.257V319.961L250.992 320.188C250.992 320.188 251.425 318.489 252.196 318.455Z" fill="white"/>
</g>
<path d="M233.172 319.92H233.399L234.053 319.961L236.461 320.078C238.49 320.161 241.277 320.237 244.407 320.25C247.537 320.264 250.324 320.25 252.36 320.161L254.768 320.071L255.422 320.03H255.649H254.768L252.36 320.065C250.296 320.065 247.51 320.126 244.407 320.113C241.304 320.099 238.497 320.037 236.461 319.989L234.053 319.92H233.172Z" fill="#263238"/>
<path d="M251.021 320.367C251.124 319.967 251.276 319.581 251.475 319.218C251.713 318.88 251.99 318.571 252.3 318.296C251.886 318.447 251.543 318.746 251.337 319.136C251.081 319.492 250.968 319.932 251.021 320.367Z" fill="#263238"/>
<path d="M247.117 318.365C247.151 318.365 247.337 318.159 247.537 317.856C247.736 317.553 247.853 317.292 247.819 317.264C247.784 317.237 247.592 317.471 247.399 317.774C247.206 318.076 247.076 318.338 247.117 318.365Z" fill="#263238"/>
<path d="M246.05 317.794C246.05 317.794 246.291 317.684 246.518 317.485C246.745 317.285 246.91 317.085 246.882 317.051C246.855 317.017 246.642 317.161 246.415 317.361C246.187 317.56 246.022 317.76 246.05 317.794Z" fill="#263238"/>
<path d="M245.375 316.542C245.596 316.62 245.83 316.65 246.063 316.631C246.295 316.659 246.53 316.636 246.751 316.563C246.751 316.514 246.448 316.473 246.063 316.473C245.678 316.473 245.375 316.48 245.375 316.542Z" fill="#263238"/>
<path d="M245.148 315.654C245.377 315.805 245.645 315.884 245.919 315.881C246.189 315.935 246.47 315.899 246.717 315.778C246.458 315.739 246.195 315.72 245.933 315.723C245.674 315.677 245.411 315.654 245.148 315.654Z" fill="#263238"/>
<path d="M247.57 317.209C247.85 317.262 248.137 317.262 248.417 317.209C248.725 317.175 249.03 317.108 249.325 317.01C249.507 316.963 249.682 316.893 249.848 316.803C249.95 316.744 250.026 316.648 250.061 316.535C250.073 316.472 250.068 316.407 250.045 316.348C250.021 316.288 249.982 316.236 249.93 316.198C249.606 316.037 249.236 315.994 248.883 316.075C248.531 316.157 248.217 316.358 247.997 316.645C247.868 316.814 247.773 317.005 247.715 317.209C247.697 317.286 247.697 317.366 247.715 317.443C247.806 317.194 247.939 316.961 248.107 316.755C248.3 316.531 248.553 316.367 248.836 316.281C249.17 316.171 249.534 316.198 249.848 316.356C249.985 316.459 249.93 316.618 249.779 316.707C249.628 316.79 249.469 316.857 249.304 316.907C249.016 317.003 248.722 317.079 248.423 317.134C247.894 317.168 247.57 317.168 247.57 317.209Z" fill="#263238"/>
<path d="M247.79 317.258C247.89 317.077 247.924 316.868 247.887 316.666C247.863 316.442 247.785 316.227 247.66 316.04C247.589 315.917 247.49 315.813 247.37 315.737C247.25 315.662 247.113 315.617 246.972 315.606C246.928 315.615 246.887 315.631 246.851 315.655C246.814 315.68 246.783 315.711 246.759 315.748C246.734 315.784 246.717 315.825 246.709 315.868C246.701 315.911 246.701 315.956 246.71 315.998C246.73 316.134 246.779 316.263 246.855 316.377C246.965 316.565 247.099 316.739 247.254 316.893C247.515 317.154 247.728 317.258 247.735 317.237C247.742 317.216 247.57 317.086 247.336 316.817C247.201 316.657 247.081 316.484 246.978 316.301C246.862 316.122 246.786 315.799 246.978 315.765C247.171 315.73 247.405 315.957 247.536 316.122C247.656 316.288 247.739 316.478 247.777 316.68C247.797 316.872 247.802 317.065 247.79 317.258Z" fill="#263238"/>
<path d="M233.453 316.301C233.453 316.301 233.832 316.267 234.43 316.342C235.21 316.433 235.949 316.74 236.563 317.23C237.172 317.725 237.632 318.38 237.891 319.122C238.09 319.686 238.111 320.071 238.138 320.065C238.152 319.976 238.152 319.885 238.138 319.796C238.113 319.563 238.067 319.333 238.001 319.108C237.766 318.328 237.3 317.637 236.666 317.126C236.031 316.616 235.256 316.309 234.444 316.246C234.201 316.224 233.957 316.224 233.715 316.246C233.543 316.267 233.453 316.287 233.453 316.301Z" fill="#263238"/>
<path d="M234.855 310.79C234.759 311.704 234.718 312.623 234.731 313.542C234.685 314.459 234.696 315.379 234.766 316.294C234.857 315.38 234.899 314.461 234.889 313.542C234.936 312.625 234.925 311.706 234.855 310.79Z" fill="#263238"/>
<path d="M239.836 318.861C240.469 319.01 241.119 319.077 241.769 319.06C242.42 319.093 243.072 319.042 243.709 318.909C243.709 318.867 242.836 318.909 241.769 318.909C240.703 318.909 239.843 318.812 239.836 318.861Z" fill="#263238"/>
<path d="M237.234 318.84C237.234 318.874 237.31 319.026 237.393 319.225C237.475 319.425 237.53 319.604 237.578 319.597C237.627 319.59 237.647 319.39 237.544 319.163C237.441 318.936 237.269 318.812 237.234 318.84Z" fill="#263238"/>
<path d="M236.265 317.622C236.231 317.622 236.32 317.787 236.458 317.932C236.595 318.076 236.726 318.159 236.761 318.124C236.795 318.09 236.706 317.959 236.568 317.815C236.43 317.67 236.3 317.588 236.265 317.622Z" fill="#263238"/>
<path d="M234.868 317.058C234.868 317.106 235.054 317.106 235.246 317.175C235.439 317.244 235.583 317.347 235.618 317.319C235.652 317.292 235.542 317.106 235.301 317.024C235.06 316.941 234.854 317.017 234.868 317.058Z" fill="#263238"/>
<path d="M233.867 316.79C233.867 316.831 233.929 316.9 234.039 316.948C234.149 316.996 234.252 316.989 234.266 316.948C234.28 316.907 234.204 316.838 234.094 316.797C233.984 316.755 233.915 316.748 233.867 316.79Z" fill="#263238"/>
<g opacity="0.3">
<path d="M233.478 315.943L246.715 315.785L246.702 314.189L233.375 315.104L233.478 315.943Z" fill="black"/>
</g>
<path d="M217.453 195.936L222.758 211.904C224.189 216.218 227.959 216.961 232.507 216.961H262.015V210.335L235.059 206.489L228.633 190.074L217.453 195.936Z" fill="#FFBE9D"/>
<path d="M265.263 208.966L267.602 207.859C267.602 207.859 270.127 202.981 270.705 203.18C271.283 203.38 271.455 204.811 270.444 207.047L273.553 206.159C273.553 206.159 280.296 209.276 280 209.696C279.704 210.115 279.147 211.113 277.681 210.384C276.216 209.654 274.283 208.746 274.283 208.746L270.65 209.785L275.335 210.384L279.745 214.388C279.745 214.388 278.294 215.475 277.048 214.326L265.6 216.782L262.016 216.988V210.363L265.263 208.966Z" fill="#FFBE9D"/>
<path d="M277.05 214.305C277.002 214.305 276.789 213.995 276.362 213.548C276.119 213.292 275.839 213.074 275.53 212.902C275.142 212.716 274.721 212.606 274.292 212.578C273.128 212.499 271.976 212.303 270.852 211.993C272.017 211.954 273.183 212.032 274.333 212.227C274.815 212.257 275.284 212.391 275.709 212.619C276.04 212.819 276.331 213.078 276.569 213.383C276.808 213.642 276.975 213.96 277.05 214.305Z" fill="#EB996E"/>
<path d="M275.261 214.759C275.212 214.759 275.178 214.525 274.862 214.457C274.545 214.388 274.008 214.333 273.486 214.278C272.812 214.267 272.14 214.2 271.477 214.078C272.139 213.847 272.85 213.792 273.541 213.92C274.03 213.962 274.512 214.062 274.978 214.216C275.06 214.246 275.134 214.295 275.193 214.358C275.253 214.421 275.297 214.497 275.322 214.58C275.322 214.704 275.281 214.766 275.261 214.759Z" fill="#EB996E"/>
<path d="M192.541 130.252L190.938 162.712L204.835 164.019L205.606 156.176C205.606 156.176 210.504 157.387 211.99 152.853C212.947 149.957 213.793 127.266 213.793 127.266L192.541 130.252Z" fill="#FFBE9D"/>
<path d="M214.991 131.023C215.376 134.064 211.131 135.839 211.131 135.839L210.388 143.028C209.724 142.981 209.057 142.981 208.393 143.028C208.751 139.657 204.403 140.318 203.962 142.616C203.522 144.914 206.026 146.303 206.026 146.303C204.292 148.966 203.584 150.376 201.121 152.874C198.451 155.578 196.993 155.798 194.241 155.715L191.207 155.578C191.207 155.578 190.12 152.984 189.328 146.854C188.95 143.909 186.645 140.043 187.306 135.254C189.163 121.639 202.208 123.076 202.208 123.076C209.026 123.221 214.096 123.978 214.991 131.023Z" fill="#263238"/>
<path d="M205.023 123.427C207.968 123.503 211.023 123.737 213.61 125.147C216.197 126.558 218.192 129.468 217.662 132.364L216.19 132.633L215.584 131.546C215.584 132.124 215.584 132.701 215.584 133.279L212.997 134.002C212.608 131.793 211.83 129.671 210.699 127.734" fill="#263238"/>
<path d="M193.091 138.364C192.988 138.207 192.912 138.035 192.864 137.855C192.697 137.373 192.573 136.878 192.492 136.375C192.213 134.705 192.329 132.993 192.832 131.376C193.335 129.759 194.211 128.283 195.389 127.067C195.736 126.696 196.116 126.358 196.524 126.055C196.667 125.93 196.83 125.83 197.005 125.76C197.04 125.808 196.407 126.282 195.574 127.232C194.493 128.469 193.68 129.916 193.187 131.484C192.714 133.056 192.569 134.71 192.761 136.341C192.891 137.6 193.153 138.343 193.091 138.364Z" fill="#455A64"/>
<path d="M195.829 137.229C195.562 136.705 195.379 136.144 195.285 135.564C194.98 134.178 194.889 132.753 195.017 131.339C195.137 129.921 195.471 128.529 196.008 127.211C196.202 126.655 196.483 126.132 196.84 125.663C196.1 127.486 195.607 129.4 195.375 131.353C195.263 133.323 195.416 135.299 195.829 137.229Z" fill="#455A64"/>
<path d="M213.575 132.192C213.506 132.192 213.389 131.353 212.825 130.128C212.101 128.514 210.939 127.134 209.472 126.144C208.004 125.154 206.29 124.595 204.521 124.528C203.145 124.466 202.326 124.672 202.312 124.611C202.494 124.519 202.689 124.459 202.89 124.432C203.43 124.325 203.978 124.274 204.528 124.28C206.364 124.278 208.159 124.826 209.68 125.856C211.201 126.885 212.378 128.347 213.059 130.053C213.267 130.56 213.421 131.088 213.52 131.628C213.569 131.812 213.588 132.002 213.575 132.192Z" fill="#455A64"/>
<path d="M193.525 120.799C194.302 120.963 195.004 121.379 195.52 121.982C196.124 122.5 196.536 123.205 196.69 123.985C196.594 124.026 196.147 123.104 195.266 122.23C194.385 121.356 193.477 120.902 193.525 120.799Z" fill="#263238"/>
<path d="M196.769 120.813C196.872 120.847 196.659 121.576 196.7 122.478C196.741 123.379 196.989 124.081 196.892 124.129C196.506 123.674 196.308 123.088 196.342 122.491C196.26 121.898 196.413 121.295 196.769 120.813Z" fill="#455A64"/>
<path d="M214.955 192.454L217.218 200.139L231.625 193.624C231.109 192.014 228.722 184.845 224.167 173.466C222.92 170.346 220.891 167.6 218.275 165.492C215.659 163.385 212.544 161.987 209.231 161.432C204.688 160.603 200.087 160.143 195.471 160.056C187.393 160.146 175.519 165.196 173.909 173.128C172.684 179.169 173.86 189.84 173.86 202.802L174.913 227.57L216.303 228.946L214.955 192.454Z" fill="#008080"/>
<g opacity="0.3">
<path d="M173.883 197.078C178.919 198.11 184.086 197.078 189.218 196.768C192.328 196.582 195.782 196.245 198.245 198.144C200.199 199.658 200.997 202.21 201.547 204.618C203.694 213.789 204.079 219.94 204.561 229.345L179.648 230.858L173.883 197.078Z" fill="black"/>
</g>
<path d="M222.96 171.092C222.96 171.195 212.09 171.271 198.688 171.271C185.285 171.271 174.422 171.195 174.422 171.092C174.422 170.989 185.285 170.913 198.688 170.913C212.09 170.913 222.96 170.996 222.96 171.092Z" fill="#FAFAFA"/>
<path d="M225.981 178.048C225.981 178.144 214.161 178.226 199.596 178.226C185.031 178.226 173.211 178.144 173.211 178.048C173.211 177.951 185.017 177.869 199.596 177.869C214.174 177.869 225.981 177.951 225.981 178.048Z" fill="#FAFAFA"/>
<path d="M229.79 186.771C229.79 186.875 217.186 186.95 201.637 186.95C186.089 186.95 173.484 186.875 173.484 186.771C173.484 186.668 186.089 186.593 201.637 186.593C217.186 186.593 229.79 186.675 229.79 186.771Z" fill="#FAFAFA"/>
<path d="M214.655 196.183C214.655 196.28 210.712 196.362 205.862 196.362C201.012 196.362 197.062 196.28 197.062 196.183C197.062 196.087 200.998 196.004 205.862 196.004C210.726 196.004 214.655 196.08 214.655 196.183Z" fill="#FAFAFA"/>
<path d="M215.458 206.4C215.458 206.496 211.33 206.544 206.252 206.503C201.175 206.462 197.047 206.352 197.047 206.249C197.047 206.145 201.175 206.104 206.252 206.145C211.33 206.187 215.458 206.283 215.458 206.4Z" fill="#FAFAFA"/>
<path d="M215.857 214.69C215.619 214.734 215.376 214.745 215.135 214.725L213.16 214.684C211.495 214.649 209.197 214.601 206.659 214.601C204.12 214.601 201.843 214.642 200.157 214.677L198.182 214.718C197.94 214.749 197.695 214.749 197.453 214.718C197.688 214.649 197.931 214.612 198.176 214.608C198.636 214.56 199.311 214.512 200.143 214.463C201.808 214.36 204.113 214.278 206.659 214.278C209.204 214.278 211.509 214.367 213.167 214.47C214 214.518 214.674 214.573 215.142 214.622C215.382 214.616 215.622 214.639 215.857 214.69Z" fill="#FAFAFA"/>
<path d="M215.73 221.405C215.73 221.502 211.671 221.584 206.663 221.584C201.654 221.584 197.602 221.502 197.602 221.405C197.602 221.309 201.654 221.226 206.663 221.226C211.671 221.226 215.73 221.302 215.73 221.405Z" fill="#FAFAFA"/>
<path d="M216.957 164.274C216.957 164.377 208.99 164.453 199.166 164.453C189.341 164.453 181.367 164.377 181.367 164.274C181.367 164.171 189.334 164.095 199.166 164.095C208.997 164.095 216.957 164.178 216.957 164.274Z" fill="#FAFAFA"/>
<path d="M216.028 165.567C216.028 165.609 215.615 165.629 214.927 165.898C213.972 166.316 213.148 166.984 212.54 167.831C211.662 169.103 211.168 170.6 211.116 172.145C211.063 174.044 211.211 175.945 211.556 177.814C212.135 181.237 212.907 184.625 213.868 187.962C214.205 189.207 214.487 190.232 214.7 191.01C214.816 191.379 214.906 191.756 214.968 192.138C214.803 191.788 214.67 191.424 214.569 191.051C214.335 190.363 214.005 189.31 213.62 188.03C212.596 184.699 211.792 181.305 211.212 177.869C210.867 175.972 210.729 174.044 210.799 172.117C210.871 170.517 211.412 168.974 212.354 167.679C212.999 166.811 213.88 166.147 214.893 165.767C215.167 165.673 215.451 165.609 215.739 165.574C215.834 165.558 215.932 165.556 216.028 165.567Z" fill="#263238"/>
<path d="M231.163 191.656C230.522 192.104 229.843 192.495 229.134 192.826C227.854 193.514 226.058 194.374 224.049 195.282C222.04 196.19 220.197 196.947 218.848 197.463C218.131 197.773 217.39 198.024 216.633 198.213C217.314 197.833 218.022 197.504 218.752 197.229C220.073 196.651 221.903 195.853 223.905 194.959C225.907 194.064 227.71 193.204 229.017 192.599C229.71 192.236 230.427 191.921 231.163 191.656Z" fill="#263238"/>
<path d="M187.687 227.976L237.14 229.723C240.999 229.861 244.649 231.506 247.309 234.305C249.969 237.104 251.426 240.833 251.368 244.694L249.304 315.324L230.198 314.691L231.622 248.561L187.68 247.405L187.687 227.976Z" fill="#263238"/>
<path d="M167.258 227.976L216.718 229.723C220.577 229.861 224.227 231.506 226.887 234.305C229.547 237.104 231.004 240.833 230.946 244.694L228.882 315.324L209.522 313.79L211.214 248.561L167.272 247.405L167.258 227.976Z" fill="#263238"/>
<path d="M204.27 253.631H199.406V311.912H204.27V253.631Z" fill="#455A64"/>
<path d="M158.586 197.064V239.967C158.586 242.67 159.659 245.261 161.57 247.172C163.481 249.083 166.073 250.157 168.775 250.157H197.348V197.064C197.348 196.467 197.23 195.877 197.002 195.326C196.774 194.775 196.44 194.275 196.018 193.853C195.596 193.431 195.096 193.097 194.545 192.869C193.994 192.64 193.403 192.523 192.807 192.523H163.127C162.53 192.523 161.94 192.64 161.389 192.869C160.838 193.097 160.338 193.431 159.916 193.853C159.494 194.275 159.16 194.775 158.932 195.326C158.703 195.877 158.586 196.467 158.586 197.064Z" fill="#455A64"/>
<path d="M235.797 253.631H166.227C166.227 251.624 167.024 249.699 168.443 248.28C169.862 246.861 171.787 246.063 173.795 246.063H228.264C230.271 246.063 232.196 246.861 233.615 248.28C235.034 249.699 235.832 251.624 235.832 253.631H235.797Z" fill="#455A64"/>
<path d="M197.347 245.079C197.355 245.189 197.355 245.3 197.347 245.41C197.341 245.725 197.302 246.038 197.23 246.345C197 247.317 196.493 248.2 195.77 248.888C195.046 249.576 194.138 250.038 193.157 250.219C192.243 250.317 191.323 250.351 190.405 250.322H184.151C179.713 250.322 175.695 250.322 172.792 250.281L169.352 250.232L168.416 250.198C168.305 250.196 168.195 250.185 168.086 250.164C168.193 250.133 168.305 250.119 168.416 250.122L169.352 250.088L172.792 250.026C175.695 249.992 179.713 249.971 184.151 249.964H190.398C191.299 250 192.203 249.98 193.102 249.902C193.864 249.772 194.585 249.466 195.207 249.008C196.127 248.33 196.789 247.359 197.085 246.256C197.326 245.533 197.305 245.079 197.347 245.079Z" fill="#263238"/>
<path d="M206.108 253.782C204.692 253.963 203.263 254.023 201.836 253.961C200.412 254.023 198.985 253.963 197.57 253.782C198.985 253.606 200.412 253.546 201.836 253.604C203.263 253.546 204.692 253.606 206.108 253.782Z" fill="#263238"/>
<path d="M227.27 250.528C227.066 249.855 226.923 249.164 226.843 248.464C226.609 247.143 226.3 245.224 225.928 242.857C225.557 240.49 225.302 237.621 223.995 234.78C223.31 233.302 222.443 231.915 221.415 230.652C220.291 229.312 218.985 228.135 217.535 227.157C216.09 226.167 214.503 225.404 212.829 224.893C211.269 224.396 209.649 224.115 208.013 224.061C204.869 223.992 201.993 224.006 199.598 223.958C197.204 223.91 195.257 223.889 193.916 223.848C193.225 223.864 192.534 223.815 191.852 223.703C192.534 223.596 193.225 223.55 193.916 223.566C195.257 223.524 197.197 223.483 199.598 223.456C202 223.428 204.841 223.366 208.033 223.407C211.561 223.49 214.991 224.587 217.913 226.565C219.422 227.577 220.775 228.803 221.931 230.205C222.995 231.521 223.885 232.969 224.58 234.512C224.738 234.876 224.869 235.255 225.013 235.619L225.22 236.17C225.268 236.355 225.323 236.541 225.371 236.727C225.474 237.092 225.577 237.456 225.674 237.814C225.77 238.172 225.804 238.536 225.873 238.887C226.114 240.298 226.245 241.591 226.41 242.788C226.713 245.162 226.953 247.095 227.098 248.423C227.219 249.118 227.276 249.823 227.27 250.528Z" fill="#455A64"/>
<path d="M223.112 317.168H222.424C222.474 314.418 221.976 311.686 220.958 309.131C219.941 306.575 218.424 304.249 216.497 302.286C214.57 300.324 212.271 298.765 209.735 297.701C207.199 296.637 204.476 296.089 201.726 296.089C198.975 296.089 196.253 296.637 193.716 297.701C191.18 298.765 188.882 300.324 186.955 302.286C185.028 304.249 183.511 306.575 182.493 309.131C181.476 311.686 180.977 314.418 181.027 317.168H180.339C180.288 314.327 180.804 311.505 181.856 308.865C182.908 306.226 184.475 303.823 186.466 301.796C188.457 299.769 190.832 298.159 193.452 297.06C196.072 295.961 198.885 295.395 201.726 295.395C204.567 295.395 207.38 295.961 210 297.06C212.62 298.159 214.995 299.769 216.986 301.796C218.977 303.823 220.544 306.226 221.596 308.865C222.648 311.505 223.163 314.327 223.112 317.168Z" fill="#455A64"/>
<path d="M183.897 318.255C183.897 318.889 183.708 319.509 183.356 320.036C183.004 320.564 182.503 320.975 181.917 321.217C181.332 321.46 180.687 321.523 180.065 321.4C179.443 321.276 178.872 320.971 178.423 320.522C177.975 320.074 177.67 319.503 177.546 318.881C177.422 318.259 177.486 317.614 177.728 317.028C177.971 316.442 178.382 315.942 178.909 315.589C179.436 315.237 180.056 315.049 180.69 315.049C181.112 315.048 181.529 315.13 181.918 315.291C182.308 315.452 182.662 315.688 182.96 315.986C183.257 316.284 183.494 316.638 183.654 317.027C183.815 317.417 183.897 317.834 183.897 318.255Z" fill="#263238"/>
<path d="M226.139 317.815C226.139 318.449 225.951 319.069 225.598 319.596C225.246 320.123 224.745 320.534 224.16 320.777C223.574 321.019 222.929 321.083 222.307 320.959C221.685 320.835 221.114 320.53 220.666 320.082C220.217 319.633 219.912 319.062 219.788 318.44C219.664 317.818 219.728 317.174 219.971 316.588C220.213 316.002 220.624 315.501 221.151 315.149C221.679 314.797 222.299 314.609 222.933 314.609C223.783 314.609 224.598 314.946 225.2 315.548C225.801 316.149 226.139 316.964 226.139 317.815Z" fill="#263238"/>
<path d="M222.913 311.912C222.913 312.015 213.604 312.098 202.128 312.098C190.652 312.098 181.344 312.015 181.344 311.912C181.344 311.809 190.646 311.733 202.128 311.733C213.611 311.733 222.913 311.815 222.913 311.912Z" fill="#455A64"/>
<path d="M151.907 178.034C152.414 178.354 152.852 178.774 153.195 179.266C153.537 179.759 153.778 180.316 153.902 180.903C154.137 182.086 154.1 183.307 153.792 184.473C153.269 186.73 151.728 188.89 150.077 190.555C148.35 188.65 148.247 185.664 148.288 184.143C148.357 181.742 149.946 177.442 151.907 178.034Z" fill="#008080"/>
<path d="M151.881 194.601C151.829 193.934 151.953 193.264 152.242 192.66C152.531 192.057 152.973 191.539 153.525 191.161C154.086 190.791 154.715 190.536 155.375 190.411C156.035 190.285 156.714 190.293 157.371 190.432C157.68 190.464 157.977 190.563 158.244 190.722C158.51 190.882 158.738 191.097 158.912 191.353C159.034 191.617 159.083 191.909 159.053 192.198C159.024 192.487 158.919 192.763 158.747 192.998C158.392 193.467 157.917 193.83 157.371 194.05C155.576 194.904 153.684 195.426 151.867 194.615" fill="#008080"/>
<path d="M148.977 199.637C149.072 199.132 149.22 198.639 149.417 198.165C149.609 197.637 149.866 197.136 150.181 196.672C150.54 196.092 150.94 195.538 151.378 195.014C152.182 194.048 153.213 193.297 154.377 192.826C154.732 192.696 155.098 192.601 155.471 192.544C155.608 192.521 155.747 192.521 155.884 192.544C155.884 192.592 155.306 192.654 154.446 193.018C153.339 193.524 152.358 194.272 151.577 195.206C151.146 195.72 150.746 196.26 150.38 196.823C150.065 197.271 149.798 197.751 149.582 198.254C149.413 198.729 149.211 199.191 148.977 199.637Z" fill="#263238"/>
<path d="M150.982 181.412C151.008 181.67 151.008 181.931 150.982 182.189C150.982 182.685 150.913 183.407 150.851 184.295C150.721 186.077 150.507 188.533 150.218 191.243C149.929 193.954 149.585 196.39 149.303 198.123C149.159 199.004 149.042 199.713 148.946 200.187C148.91 200.444 148.853 200.697 148.774 200.944C148.771 200.683 148.794 200.423 148.842 200.167C148.918 199.63 149.008 198.921 149.118 198.103C149.352 196.335 149.661 193.892 149.957 191.181C150.253 188.471 150.48 186.07 150.645 184.253C150.734 183.4 150.81 182.692 150.865 182.148C150.886 181.9 150.925 181.654 150.982 181.412Z" fill="#263238"/>
<path d="M148.869 195.144C148.604 193.752 148.011 192.443 147.14 191.324C146.27 190.206 145.145 189.31 143.861 188.712C143.173 188.416 142.354 188.23 141.831 188.712C141.308 189.193 141.446 190.088 141.721 190.741C142.321 192.121 143.316 193.292 144.581 194.106C145.846 194.921 147.324 195.342 148.828 195.316" fill="#008080"/>
<path d="M144.359 190.762C144.49 190.802 144.613 190.862 144.724 190.941C146.115 191.74 147.326 192.817 148.281 194.105C148.657 194.676 148.938 195.303 149.113 195.963C149.249 196.503 149.312 197.058 149.299 197.614C149.29 197.987 149.246 198.357 149.168 198.722C149.151 198.859 149.113 198.994 149.058 199.121C149.003 199.121 149.127 198.536 149.113 197.614C149.1 197.077 149.024 196.544 148.886 196.025C148.702 195.395 148.424 194.797 148.061 194.25C147.366 193.266 146.518 192.4 145.55 191.684C145.134 191.401 144.737 191.093 144.359 190.762Z" fill="#263238"/>
<path d="M148.639 216.968C146.358 216.966 144.17 216.058 142.558 214.444C140.945 212.83 140.039 210.642 140.039 208.361V199.761H157.239V208.361C157.239 210.642 156.333 212.83 154.721 214.444C153.108 216.058 150.921 216.966 148.639 216.968Z" fill="#263238"/>
<path d="M157.246 203.992C157.177 204.08 157.098 204.161 157.012 204.233L156.324 204.873L153.703 207.088L153.641 207.136L153.565 207.095L148.605 204.116H148.749L144.078 207.088L144.009 207.136L143.94 207.081L141.085 204.845L140.3 204.212C140.203 204.141 140.116 204.058 140.039 203.965C140.151 204.01 140.256 204.073 140.349 204.15C140.569 204.309 140.844 204.508 141.174 204.735L144.084 206.896H143.947L148.563 203.855L148.639 203.806L148.715 203.848L153.675 206.889H153.538L156.2 204.735L156.95 204.144C157.143 204.047 157.239 203.978 157.246 203.992Z" fill="#E0E0E0"/>
<path d="M157.25 202.272C157.18 202.36 157.102 202.441 157.016 202.513L156.328 203.153L153.734 205.389L153.672 205.437L153.596 205.395L148.608 202.396H148.753L144.109 205.402L144.04 205.451L143.971 205.395L141.116 203.159L140.332 202.527C140.235 202.455 140.147 202.372 140.07 202.279C140.182 202.325 140.287 202.387 140.38 202.465L141.206 203.049L144.116 205.21H143.978L148.595 202.169L148.67 202.121L148.746 202.162L153.706 205.203H153.569L156.231 203.049L156.981 202.458C157.146 202.327 157.243 202.272 157.25 202.272Z" fill="#E0E0E0"/>
<path d="M157.242 205.712C157.242 205.712 157.167 205.808 157.008 205.96L156.32 206.593L153.727 208.829L153.665 208.884L153.589 208.835L148.601 205.87H148.745L144.101 208.877L144.033 208.925L143.964 208.877C142.815 207.969 141.845 207.212 141.109 206.641L140.324 206.001C140.145 205.85 140.056 205.767 140.063 205.753C140.173 205.802 140.277 205.865 140.372 205.939C140.593 206.104 140.868 206.297 141.198 206.531L144.108 208.684H143.971L148.587 205.643L148.663 205.595L148.739 205.643L153.699 208.677H153.561L156.224 206.517L156.974 205.932C157.053 205.847 157.144 205.773 157.242 205.712Z" fill="#E0E0E0"/>
<path d="M380.157 237.167C376.593 237.745 374.997 242.121 375.341 245.719C375.685 249.318 377.137 252.84 376.717 256.425C376.215 260.986 372.768 264.839 372.369 269.407C371.894 274.794 375.706 279.576 376.841 284.86C377.398 287.433 377.322 290.157 378.279 292.606C379.095 294.693 380.61 296.431 382.564 297.525C384.519 298.62 386.793 299.002 388.998 298.608C391.203 298.213 393.203 297.066 394.657 295.362C396.111 293.658 396.929 291.503 396.972 289.263C397.047 285.135 394.495 281.234 394.804 277.106C395.032 274.058 396.82 271.168 396.442 268.162C395.981 264.55 392.637 261.97 391.454 258.53C390.271 255.09 391.413 251.292 391 247.673C390.271 241.185 386.672 236.665 380.164 237.181" fill="#008080"/>
<path d="M361.955 268.588C361.343 274.601 364.019 281.66 367.095 286.869C370.225 292.1 374.941 296.197 380.559 298.565C381.185 298.826 381.969 299.046 382.499 298.62C382.688 298.414 382.829 298.169 382.913 297.903C382.998 297.637 383.023 297.355 382.987 297.078C383.033 290.696 381.008 284.47 377.216 279.336C373.424 274.202 368.069 270.435 361.955 268.602" fill="#008080"/>
<g opacity="0.2">
<path d="M361.955 268.588C361.343 274.601 364.019 281.66 367.095 286.869C370.225 292.1 374.941 296.197 380.559 298.565C381.185 298.826 381.969 299.046 382.499 298.62C382.688 298.414 382.829 298.169 382.913 297.903C382.998 297.637 383.023 297.355 382.987 297.078C383.033 290.696 381.008 284.47 377.216 279.336C373.424 274.202 368.069 270.435 361.955 268.602" fill="black"/>
</g>
<path d="M388.145 311.12C388.073 311.019 388.015 310.908 387.973 310.79L387.54 309.799C387.182 308.946 386.638 307.735 385.95 306.187C384.159 302.238 382.168 298.383 379.985 294.636C377.788 290.893 375.405 287.263 372.844 283.759C371.86 282.417 371.048 281.337 370.477 280.601C370.216 280.257 369.996 279.968 369.83 279.741C369.749 279.645 369.678 279.541 369.617 279.431C369.617 279.431 369.72 279.514 369.879 279.699L370.567 280.518C371.172 281.206 372.011 282.286 373.023 283.614C378.289 290.553 382.703 298.1 386.17 306.091C386.858 307.625 387.34 308.878 387.663 309.751L388.035 310.763C388.082 310.878 388.119 310.998 388.145 311.12Z" fill="#263238"/>
<path d="M384.275 253.803C384.314 253.994 384.337 254.187 384.344 254.381C384.344 254.787 384.413 255.337 384.461 256.039C384.557 257.505 384.688 259.582 384.853 262.128C385.177 267.274 385.631 274.381 386.188 282.224C386.745 290.068 387.282 297.175 387.681 302.314C387.874 304.86 388.032 306.931 388.149 308.403C388.197 309.091 388.231 309.648 388.259 310.054C388.275 310.249 388.275 310.444 388.259 310.639C388.259 310.639 388.224 310.439 388.176 310.061C388.128 309.683 388.073 309.105 387.997 308.41C387.86 306.944 387.667 304.873 387.426 302.335C386.965 297.195 386.381 290.102 385.83 282.252C385.28 274.402 384.874 267.295 384.592 262.128C384.475 259.576 384.379 257.505 384.31 256.032C384.31 255.344 384.268 254.78 384.255 254.367C384.244 254.179 384.251 253.99 384.275 253.803Z" fill="#263238"/>
<path d="M378.742 302.548H393.803V313.604C393.801 315.521 393.038 317.358 391.682 318.713C390.326 320.067 388.488 320.828 386.572 320.828C384.722 320.829 382.942 320.12 381.599 318.848C380.257 317.576 379.453 315.837 379.355 313.99L378.742 302.548Z" fill="#263238"/>
<path d="M302.47 156.788L338.383 176.678L337.035 179.21L301.438 158.949L302.47 156.788Z" fill="#008080"/>
<path d="M300.703 154.91L302.354 152.385L303.318 152.977L301.838 155.522L300.703 154.91Z" fill="#008080"/>
<path d="M334.307 173.534L336.151 174.594L330.137 212.97L327.289 213.005L334.307 173.534Z" fill="#008080"/>
<path d="M319.008 216.968C319.008 216.968 323.39 212.537 329.252 212.84C330.927 212.901 332.574 213.293 334.097 213.993C335.62 214.693 336.99 215.688 338.127 216.919L319.008 216.968Z" fill="#008080"/>
<path d="M300.737 172.309L286.516 164.095L290.644 156.988C291.182 156.054 291.9 155.235 292.755 154.579C293.61 153.922 294.587 153.44 295.628 153.161C296.669 152.882 297.756 152.811 298.825 152.951C299.894 153.092 300.924 153.442 301.858 153.981C303.743 155.071 305.118 156.863 305.682 158.966C306.246 161.069 305.952 163.309 304.865 165.196L300.737 172.309Z" fill="#008080"/>
</svg>
